<svg width="301.856" height="72.072" viewBox="0 0 301.856 72.072" xmlns="http://www.w3.org/2000/svg"><g id="svgGroup" stroke-linecap="round" fill-rule="evenodd" font-size="9pt" stroke="#000" stroke-width="0.25mm" fill="#000" style="stroke:#000;stroke-width:0.25mm;fill:#000"><path d="M 152.1 18.262 L 163.281 18.262 L 163.623 24.366 A 18.764 18.764 0 0 1 177.251 17.348 A 24.301 24.301 0 0 1 179.004 17.286 A 20.551 20.551 0 0 1 186.047 18.394 Q 195.579 21.862 195.801 36.182 L 195.801 71.094 L 183.936 71.094 L 183.936 36.866 A 18.489 18.489 0 0 0 183.749 34.143 Q 183.299 31.128 181.763 29.42 A 6.501 6.501 0 0 0 179.173 27.705 Q 177.317 27.003 174.658 27.003 A 12.422 12.422 0 0 0 169.699 27.954 Q 166.804 29.201 164.829 32.079 A 15.784 15.784 0 0 0 163.965 33.497 L 163.965 71.094 L 152.1 71.094 L 152.1 18.262 Z M 247.656 25.782 L 220.557 61.622 L 248.682 61.622 L 248.682 71.094 L 205.811 71.094 L 205.811 63.331 L 232.617 27.833 L 206.299 27.833 L 206.299 18.262 L 247.656 18.262 L 247.656 25.782 Z M 25.928 71.094 L 0 71.094 L 0 0.001 L 24.365 0.001 A 48.281 48.281 0 0 1 31.18 0.449 Q 34.65 0.945 37.467 1.99 A 19.969 19.969 0 0 1 42.725 4.835 Q 49.023 9.669 49.023 19.239 A 15.352 15.352 0 0 1 46.387 28.028 A 15.721 15.721 0 0 1 41.607 32.568 A 20.856 20.856 0 0 1 38.672 34.083 A 17.698 17.698 0 0 1 43.499 36.154 A 14.689 14.689 0 0 1 47.583 39.966 A 16.354 16.354 0 0 1 50.576 47.732 A 21.253 21.253 0 0 1 50.732 50.342 A 24.927 24.927 0 0 1 49.974 56.676 A 17.157 17.157 0 0 1 44.312 65.723 Q 37.891 71.094 25.928 71.094 Z M 255.371 46.046 L 255.371 44.581 A 35.138 35.138 0 0 1 256.232 36.652 A 28.761 28.761 0 0 1 258.423 30.445 A 24.03 24.03 0 0 1 263.637 23.325 A 22.547 22.547 0 0 1 266.992 20.753 A 22.655 22.655 0 0 1 279.297 17.286 A 27.141 27.141 0 0 1 286.136 18.099 A 18.839 18.839 0 0 1 295.972 24.171 Q 300.919 29.959 301.706 39.787 A 48.424 48.424 0 0 1 301.855 43.653 L 301.855 48.438 L 267.334 48.438 A 20.067 20.067 0 0 0 268.228 53.047 A 14.162 14.162 0 0 0 271.704 58.79 A 12.964 12.964 0 0 0 280.585 62.581 A 17.149 17.149 0 0 0 281.348 62.598 A 15.867 15.867 0 0 0 293.428 57.415 A 20.296 20.296 0 0 0 294.629 56.006 L 301.025 62.11 Q 297.852 66.846 292.554 69.459 Q 287.256 72.071 280.664 72.071 A 29.112 29.112 0 0 1 272.205 70.898 A 22.906 22.906 0 0 1 262.378 64.966 A 23.847 23.847 0 0 1 255.895 52.155 A 34.105 34.105 0 0 1 255.371 46.046 Z M 89.648 17.969 L 89.6 29.102 Q 87.256 28.712 84.766 28.712 A 16.323 16.323 0 0 0 80.606 29.204 A 9.921 9.921 0 0 0 73.779 34.962 L 73.779 71.094 L 61.914 71.094 L 61.914 18.262 L 73.242 18.262 L 73.535 24.171 Q 77.827 17.294 85.43 17.286 A 17.013 17.013 0 0 1 85.449 17.286 Q 87.379 17.286 88.802 17.681 A 7.481 7.481 0 0 1 89.648 17.969 Z M 93.115 44.776 L 93.115 44.19 A 33.799 33.799 0 0 1 94.089 35.943 A 28.661 28.661 0 0 1 96.191 30.201 A 23.459 23.459 0 0 1 101.082 23.475 A 21.699 21.699 0 0 1 104.834 20.63 A 23.484 23.484 0 0 1 114.76 17.424 A 29.207 29.207 0 0 1 117.627 17.286 A 27.079 27.079 0 0 1 125.65 18.422 A 21.726 21.726 0 0 1 134.985 24.171 A 24.918 24.918 0 0 1 141.329 36.073 A 35.053 35.053 0 0 1 142.187 42.432 L 142.236 45.215 A 34.842 34.842 0 0 1 141.389 53.048 A 28.508 28.508 0 0 1 139.233 59.18 Q 136.23 65.333 130.64 68.702 A 23.518 23.518 0 0 1 120.9 71.904 A 29.532 29.532 0 0 1 117.725 72.071 A 27.135 27.135 0 0 1 109.524 70.889 A 21.601 21.601 0 0 1 99.829 64.625 A 25.308 25.308 0 0 1 93.985 53.06 A 37.314 37.314 0 0 1 93.115 44.776 Z M 104.98 45.215 A 31.886 31.886 0 0 0 105.343 50.186 Q 105.76 52.819 106.654 54.951 A 14.884 14.884 0 0 0 108.35 57.984 A 10.725 10.725 0 0 0 116.088 62.507 A 14.306 14.306 0 0 0 117.725 62.598 A 12.307 12.307 0 0 0 122.011 61.883 Q 125.037 60.767 127.075 57.911 A 15.512 15.512 0 0 0 129.178 53.586 Q 129.838 51.519 130.147 48.996 A 39.589 39.589 0 0 0 130.42 44.19 A 30.182 30.182 0 0 0 130.018 39.104 Q 129.546 36.347 128.52 34.125 A 15.16 15.16 0 0 0 126.978 31.495 A 11.396 11.396 0 0 0 123.1 28.072 Q 120.884 26.906 118.102 26.815 A 14.525 14.525 0 0 0 117.627 26.807 Q 111.816 26.807 108.398 31.422 A 14.897 14.897 0 0 0 106.266 35.673 Q 104.98 39.586 104.98 45.215 Z M 27.1 39.014 L 12.354 39.014 L 12.354 61.231 L 26.074 61.231 A 18.894 18.894 0 0 0 29.692 60.906 Q 31.801 60.494 33.45 59.561 A 10.089 10.089 0 0 0 35.156 58.35 Q 38.428 55.469 38.428 50.342 A 15.678 15.678 0 0 0 37.846 45.876 Q 35.861 39.203 27.1 39.014 Z M 12.354 9.962 L 12.354 29.932 L 24.463 29.932 A 20.547 20.547 0 0 0 27.973 29.651 Q 29.917 29.314 31.47 28.571 A 10.176 10.176 0 0 0 33.472 27.32 A 8.505 8.505 0 0 0 36.605 21.641 A 12.47 12.47 0 0 0 36.719 19.922 Q 36.719 14.649 33.716 12.305 Q 30.713 9.962 24.365 9.962 L 12.354 9.962 Z M 267.529 39.747 L 290.137 39.747 L 290.137 38.868 Q 289.873 34.839 288.514 32.138 A 10.089 10.089 0 0 0 286.963 29.859 A 9.128 9.128 0 0 0 281.784 27.035 A 13.439 13.439 0 0 0 279.248 26.807 A 11.314 11.314 0 0 0 275.463 27.416 A 9.682 9.682 0 0 0 271.362 30.225 Q 268.359 33.643 267.529 39.747 Z" vector-effect="non-scaling-stroke"/></g></svg>