<svg width="195.509" height="75.979" viewBox="0 0 195.509 75.979" xmlns="http://www.w3.org/2000/svg"><g id="svgGroup" stroke-linecap="round" fill-rule="evenodd" font-size="9pt" stroke="#000" stroke-width="0.25mm" fill="#000" style="stroke:#000;stroke-width:0.25mm;fill:#000"><path d="M 56.544 38.525 L 56.544 65.771 A 22.137 22.137 0 0 1 49.554 71.689 A 28.731 28.731 0 0 1 45.851 73.389 A 39.26 39.26 0 0 1 37.079 75.549 A 51.451 51.451 0 0 1 30.323 75.977 A 33.568 33.568 0 0 1 21.408 74.833 A 28.319 28.319 0 0 1 14.503 71.924 Q 7.618 67.871 3.883 60.327 A 36.404 36.404 0 0 1 0.712 50.482 A 48.391 48.391 0 0 1 0.001 42.725 L 0.001 37.158 A 54.444 54.444 0 0 1 0.832 27.344 Q 2.532 18.073 7.716 11.987 A 25.182 25.182 0 0 1 23.496 3.363 A 36.691 36.691 0 0 1 29.249 2.93 A 38.919 38.919 0 0 1 36.988 3.654 Q 43.569 4.99 48.097 8.789 A 22.713 22.713 0 0 1 54.916 18.853 A 33.106 33.106 0 0 1 56.495 25.684 L 44.386 25.684 A 19.685 19.685 0 0 0 42.686 20.065 Q 39.125 12.842 29.493 12.842 Q 21.192 12.842 16.871 18.823 A 20.118 20.118 0 0 0 14.132 24.349 Q 13.261 26.993 12.828 30.222 A 51.254 51.254 0 0 0 12.403 36.377 L 12.403 41.846 Q 12.403 53.369 17.262 59.741 A 15.634 15.634 0 0 0 28.661 66.014 A 21.654 21.654 0 0 0 30.763 66.113 Q 40.109 66.113 44.132 61.93 A 9.976 9.976 0 0 0 44.239 61.816 L 44.239 47.9 L 29.591 47.9 L 29.591 38.525 L 56.544 38.525 Z M 183.644 27.051 L 183.644 0 L 195.509 0 L 195.509 75 L 184.767 75 L 184.181 69.531 Q 178.858 75.977 169.972 75.977 Q 160.694 75.977 154.957 68.506 A 25.804 25.804 0 0 1 150.665 59.732 Q 149.22 54.639 149.22 48.193 A 42.774 42.774 0 0 1 149.951 40.041 Q 151.255 33.328 154.884 28.589 A 17.923 17.923 0 0 1 167.891 21.293 A 22.891 22.891 0 0 1 170.069 21.191 A 19.536 19.536 0 0 1 176.582 22.234 A 16.696 16.696 0 0 1 183.644 27.051 Z M 138.526 0 L 138.526 75 L 126.661 75 L 126.661 0 L 138.526 0 Z M 66.749 48.682 L 66.749 48.096 A 33.799 33.799 0 0 1 67.722 39.848 A 28.661 28.661 0 0 1 69.825 34.106 A 23.459 23.459 0 0 1 74.716 27.381 A 21.699 21.699 0 0 1 78.468 24.536 A 23.484 23.484 0 0 1 88.394 21.329 A 29.207 29.207 0 0 1 91.261 21.191 A 27.079 27.079 0 0 1 99.284 22.328 A 21.726 21.726 0 0 1 108.619 28.076 A 24.918 24.918 0 0 1 114.962 39.979 A 35.053 35.053 0 0 1 115.821 46.338 L 115.87 49.121 A 34.842 34.842 0 0 1 115.023 56.953 A 28.508 28.508 0 0 1 112.867 63.086 Q 109.864 69.238 104.273 72.607 A 23.518 23.518 0 0 1 94.534 75.81 A 29.532 29.532 0 0 1 91.358 75.977 A 27.135 27.135 0 0 1 83.157 74.794 A 21.601 21.601 0 0 1 73.463 68.53 A 25.308 25.308 0 0 1 67.619 56.966 A 37.314 37.314 0 0 1 66.749 48.682 Z M 78.614 49.121 A 31.886 31.886 0 0 0 78.977 54.091 Q 79.393 56.725 80.288 58.856 A 14.884 14.884 0 0 0 81.983 61.89 A 10.725 10.725 0 0 0 89.721 66.413 A 14.306 14.306 0 0 0 91.358 66.504 A 12.307 12.307 0 0 0 95.644 65.789 Q 98.671 64.673 100.709 61.816 A 15.512 15.512 0 0 0 102.812 57.491 Q 103.472 55.424 103.781 52.902 A 39.589 39.589 0 0 0 104.054 48.096 A 30.182 30.182 0 0 0 103.652 43.01 Q 103.18 40.253 102.154 38.03 A 15.16 15.16 0 0 0 100.611 35.4 A 11.396 11.396 0 0 0 96.734 31.978 Q 94.518 30.812 91.736 30.721 A 14.525 14.525 0 0 0 91.261 30.713 Q 85.45 30.713 82.032 35.327 A 14.897 14.897 0 0 0 79.9 39.579 Q 78.614 43.491 78.614 49.121 Z M 183.644 59.814 L 183.644 37.256 A 12.276 12.276 0 0 0 180.701 33.45 Q 178.263 31.385 174.767 30.998 A 15.169 15.169 0 0 0 173.097 30.908 A 11.553 11.553 0 0 0 169.016 31.598 Q 166.12 32.683 164.21 35.474 Q 161.214 39.851 161.09 48.469 A 52.274 52.274 0 0 0 161.085 49.219 A 34.036 34.036 0 0 0 161.388 53.908 Q 161.731 56.372 162.464 58.391 A 15.056 15.056 0 0 0 164.186 61.792 A 9.852 9.852 0 0 0 171.278 66.198 A 13.049 13.049 0 0 0 172.999 66.309 Q 179.528 66.309 182.911 61.079 A 15.287 15.287 0 0 0 183.644 59.814 Z" vector-effect="non-scaling-stroke"/></g></svg>