<svg width="244.092" height="75.978" viewBox="0 0 244.092 75.978" xmlns="http://www.w3.org/2000/svg"><g id="svgGroup" stroke-linecap="round" fill-rule="evenodd" font-size="9pt" stroke="#000" stroke-width="0.25mm" fill="#000" style="stroke:#000;stroke-width:0.25mm;fill:#000"><path d="M 53.076 24.658 L 40.771 24.658 A 14.268 14.268 0 0 0 40.321 20.97 A 10.139 10.139 0 0 0 37.28 15.942 A 11.348 11.348 0 0 0 32.96 13.556 Q 31.263 13.031 29.222 12.867 A 24.081 24.081 0 0 0 27.295 12.793 Q 23.094 12.793 20.198 14.039 A 10.558 10.558 0 0 0 17.896 15.381 A 8.394 8.394 0 0 0 14.597 21.548 A 11.93 11.93 0 0 0 14.551 22.607 Q 14.551 26.514 18.164 29.126 A 19.502 19.502 0 0 0 20.567 30.584 Q 23.281 31.999 27.414 33.369 A 89.005 89.005 0 0 0 30.078 34.204 Q 36.052 35.979 40.332 38.108 A 36.043 36.043 0 0 1 43.408 39.819 A 26.643 26.643 0 0 1 47.051 42.531 Q 49.061 44.331 50.371 46.372 A 16.094 16.094 0 0 1 50.781 47.046 A 17.482 17.482 0 0 1 52.89 53.27 A 22.753 22.753 0 0 1 53.125 56.592 Q 53.125 65.479 46.313 70.728 A 23.521 23.521 0 0 1 38.287 74.664 Q 34.966 75.607 31.018 75.873 A 47.545 47.545 0 0 1 27.832 75.977 A 36.422 36.422 0 0 1 18.243 74.746 A 32.391 32.391 0 0 1 13.647 73.12 A 26.829 26.829 0 0 1 7.898 69.72 A 21.709 21.709 0 0 1 3.589 65.234 Q 0 60.205 0 53.516 L 12.354 53.516 Q 12.354 59.57 16.357 62.891 A 13.09 13.09 0 0 0 20.785 65.246 Q 22.672 65.849 24.953 66.075 A 29.205 29.205 0 0 0 27.832 66.211 A 25.437 25.437 0 0 0 31.377 65.981 Q 33.188 65.725 34.652 65.186 A 10.122 10.122 0 0 0 37.524 63.599 A 8.324 8.324 0 0 0 40.738 57.545 A 10.734 10.734 0 0 0 40.771 56.689 Q 40.771 52.002 37.476 49.463 A 16.261 16.261 0 0 0 35.24 48.051 Q 31.796 46.206 25.586 44.336 A 84.705 84.705 0 0 1 20.093 42.488 Q 17.443 41.486 15.245 40.41 A 36.996 36.996 0 0 1 11.914 38.574 A 24.893 24.893 0 0 1 6.79 34.397 A 16.78 16.78 0 0 1 2.197 22.656 A 17.064 17.064 0 0 1 7.755 9.75 A 22.331 22.331 0 0 1 9.204 8.496 Q 16.036 3.068 26.838 2.933 A 44.3 44.3 0 0 1 27.393 2.93 A 34.414 34.414 0 0 1 34.721 3.679 A 27.592 27.592 0 0 1 40.625 5.664 A 22.396 22.396 0 0 1 47.437 10.52 A 21.131 21.131 0 0 1 49.756 13.452 Q 53.076 18.506 53.076 24.658 Z M 160.693 49.951 L 160.693 48.486 A 35.138 35.138 0 0 1 161.555 40.557 A 28.761 28.761 0 0 1 163.745 34.351 A 24.03 24.03 0 0 1 168.959 27.23 A 22.547 22.547 0 0 1 172.314 24.658 A 22.655 22.655 0 0 1 184.619 21.191 A 27.141 27.141 0 0 1 191.458 22.005 A 18.839 18.839 0 0 1 201.294 28.076 Q 206.241 33.865 207.029 43.693 A 48.424 48.424 0 0 1 207.178 47.559 L 207.178 52.344 L 172.656 52.344 A 20.067 20.067 0 0 0 173.55 56.953 A 14.162 14.162 0 0 0 177.026 62.695 A 12.964 12.964 0 0 0 185.907 66.487 A 17.149 17.149 0 0 0 186.67 66.504 A 15.867 15.867 0 0 0 198.751 61.321 A 20.296 20.296 0 0 0 199.951 59.912 L 206.348 66.016 Q 203.174 70.752 197.876 73.364 Q 192.578 75.977 185.986 75.977 A 29.112 29.112 0 0 1 177.527 74.804 A 22.906 22.906 0 0 1 167.7 68.872 A 23.847 23.847 0 0 1 161.217 56.061 A 34.105 34.105 0 0 1 160.693 49.951 Z M 121.191 22.168 L 132.52 59.961 L 143.701 22.168 L 155.957 22.168 L 137.646 75 L 127.344 75 L 108.887 22.168 L 121.191 22.168 Z M 100.977 0 L 100.977 75 L 89.111 75 L 89.111 0 L 100.977 0 Z M 244.092 21.875 L 244.043 33.008 Q 241.699 32.617 239.209 32.617 A 16.323 16.323 0 0 0 235.05 33.11 A 9.921 9.921 0 0 0 228.223 38.867 L 228.223 75 L 216.357 75 L 216.357 22.168 L 227.686 22.168 L 227.979 28.076 Q 232.27 21.2 239.873 21.191 A 17.013 17.013 0 0 1 239.893 21.191 Q 241.823 21.191 243.245 21.586 A 7.481 7.481 0 0 1 244.092 21.875 Z M 75.439 22.168 L 75.439 75 L 63.574 75 L 63.574 22.168 L 75.439 22.168 Z M 172.852 43.652 L 195.459 43.652 L 195.459 42.773 Q 195.195 38.744 193.836 36.044 A 10.089 10.089 0 0 0 192.285 33.765 A 9.128 9.128 0 0 0 187.107 30.941 A 13.439 13.439 0 0 0 184.57 30.713 A 11.314 11.314 0 0 0 180.785 31.321 A 9.682 9.682 0 0 0 176.685 34.131 Q 173.682 37.549 172.852 43.652 Z M 63.195 6.169 A 7.081 7.081 0 0 0 62.842 8.447 A 8.007 8.007 0 0 0 62.852 8.861 A 6.063 6.063 0 0 0 64.575 12.915 A 5.28 5.28 0 0 0 65.412 13.614 Q 66.343 14.241 67.577 14.505 A 9.347 9.347 0 0 0 69.531 14.697 A 11.243 11.243 0 0 0 69.868 14.692 Q 72.847 14.603 74.512 12.915 A 5.917 5.917 0 0 0 75.89 10.749 A 6.738 6.738 0 0 0 76.27 8.447 A 8.12 8.12 0 0 0 76.254 7.943 A 6.141 6.141 0 0 0 74.512 3.906 A 5.408 5.408 0 0 0 73.846 3.325 Q 72.863 2.599 71.531 2.303 A 9.217 9.217 0 0 0 69.531 2.1 A 11.115 11.115 0 0 0 69.219 2.104 Q 68.14 2.134 67.236 2.377 A 5.614 5.614 0 0 0 64.575 3.906 A 6.014 6.014 0 0 0 63.195 6.169 Z" vector-effect="non-scaling-stroke"/></g></svg>