<?xml version="1.0" encoding="UTF-8"?><svg id="Layer_2" xmlns="http://www.w3.org/2000/svg" viewBox="0 0 1045.38 1045.38"><defs><style>.cls-1{fill:#d8bf95;}.cls-2{fill:#e7eef4;}.cls-3{fill:#182a3a;}.cls-4{fill:#87a9c7;}.cls-5{fill:#18385e;}.cls-6{fill:#a47c34;}</style></defs><g id="Baclground"><circle class="cls-5" cx="523.69" cy="522.69" r="465"/></g><g id="Landscape"><path class="cls-3" d="m975.15,634.71c-50.15,203.27-233.71,354-452.46,354-196.25,0-364.15-121.29-432.84-293l199.38-127.31c11.07-6.23,54.76-5.49,65.1,1.9l181.55,119.39,237.07-230.55c12.61-11.78,32.21-11.75,44.79.08l157.41,175.49Z"/><path class="cls-5" d="m920,718.2c-72.2,146.45-222.99,247.21-397.31,247.21s-316.41-95.03-390.88-234.66l45.51-92.11,45.97,98.36h-17.44l20.01,45.63,44.44-123.67,36.12,123.67,35.84-138.2,17.62,137.26,17-22-13-4,35.03-103.13,39.7,104.85-15.47,7,23.91,36.65,29.83-52.37,32,50h59l65-142,54.5,136.39,49.92-154.44,32.64,150.05,30.02-61,19.38,47.51,48.98-143.56,51.68,86.56Z"/></g><g id="Ring"><path class="cls-2" d="m522.69,0C234,0,0,234,0,522.69s234,522.69,522.69,522.69,522.69-234,522.69-522.69S811.35,0,522.69,0Zm0,988.71c-257.4,0-466.02-208.65-466.02-466.02S265.29,56.67,522.69,56.67s466.02,208.65,466.02,466.02-208.65,466.02-466.02,466.02Z"/></g><g id="Stars"><circle class="cls-6" cx="470.13" cy="165.16" r="2.5"/><circle class="cls-6" cx="653.41" cy="446.18" r="2.5"/><circle class="cls-6" cx="346.62" cy="513.13" r="2.5"/><circle class="cls-6" cx="193.55" cy="461.46" r="2.5"/><circle class="cls-6" cx="457.65" cy="346.78" r="2.5"/><circle class="cls-6" cx="724.5" cy="282.03" r="2.5"/><circle class="cls-6" cx="525.9" cy="312.98" r="2.5"/><circle class="cls-6" cx="907.52" cy="332.05" r="2.5"/><circle class="cls-6" cx="501.44" cy="414.48" r="2.5"/><circle class="cls-6" cx="677.42" cy="154.42" r="2.5"/><circle class="cls-6" cx="319.61" cy="204.14" r="2.5"/><circle class="cls-6" cx="543.88" cy="211.69" r="5"/><circle class="cls-6" cx="193.88" cy="351.69" r="5"/><circle class="cls-6" cx="533.88" cy="471.69" r="5"/><circle class="cls-6" cx="923.88" cy="441.69" r="5"/><circle class="cls-6" cx="203.88" cy="541.69" r="5"/><circle class="cls-5" cx="573.88" cy="121.69" r="5"/><path class="cls-6" d="m388.88,141.69c0,2.76-2.24,5-5,5-55,16-134,62.76-134,60s92-55,134-70c2.76,0,5,2.24,5,5Z"/><path class="cls-1" d="m372.88,145.69c0,1.38,10.12-1,11.5-1s2.5-1.12,2.5-2.5-1.12-2.5-2.5-2.5-11.5,4.62-11.5,6Z"/><path class="cls-6" d="m926.76,445.56c-2.3,1.53-5.4.91-6.93-1.39-43.79-36.93-73.24-42.94-70.94-44.47s43.51,12.27,79.27,38.93c1.53,2.3.91,5.4-1.39,6.93Z"/><path class="cls-1" d="m914.57,434.45c-1.15.76,6.44,7.87,7.2,9.02s2.32,1.46,3.47.7,1.46-2.32.7-3.47-10.22-7.02-11.37-6.25Z"/><path class="cls-6" d="m404.15,445.59c-.33,2.74-2.82,4.7-5.56,4.37-56.52,9.31-126.54,40.29-126.21,37.55s83.91-37.61,127.41-47.48c2.74.33,4.7,2.82,4.37,5.56Z"/><path class="cls-1" d="m387.78,447.65c-.17,1.37,10.17.22,11.54.38s2.62-.81,2.78-2.18-.81-2.62-2.18-2.78-11.97,3.21-12.13,4.58Z"/></g><g id="Layer_10"><circle class="cls-2" cx="366.24" cy="334.23" r="74.75"/><ellipse class="cls-4" cx="371.38" cy="313.69" rx="5.5" ry="6"/><ellipse class="cls-4" cx="403.88" cy="294.69" rx="7" ry="5"/><ellipse class="cls-4" cx="335.38" cy="307.69" rx="16.5" ry="11" transform="translate(-105.55 194.85) rotate(-28.18)"/><ellipse class="cls-4" cx="371.38" cy="286.69" rx="15.5" ry="11"/><ellipse class="cls-4" cx="404.38" cy="374.69" rx="15.5" ry="11" transform="translate(-142.13 302.3) rotate(-35.27)"/><circle class="cls-4" cx="365.88" cy="372.69" r="17"/><circle class="cls-4" cx="418.88" cy="333.69" r="6"/></g><g id="_23"><path class="cls-2" d="m514.08,266.18l3.59,8.83c.46,1.13,1.8,1.64,3.02,1.16,8.36-3.28,37.94-13.73,39.86,1.91,1.62,13.18-21.5,17.04-29.56,17.99-1.44.17-2.46,1.5-2.19,2.83l1.98,9.53c.27,1.31,1.69,2.04,3.05,1.56,7.76-2.77,30.9-9.69,33.76,5.28,3.8,19.86-26.96,20.67-35.83,20.5-1.3-.03-2.45.95-2.57,2.2l-1.27,12.81c-.14,1.4,1.06,2.52,2.53,2.33,11.68-1.46,56.03-8.52,56.38-31.8.45-30.14-20.55-26.75-20.55-26.75,0,0,15.63-3.91,10.62-23.89-6.37-25.41-50.48-11.4-61.31-7.54-1.31.47-2,1.87-1.51,3.06Z"/><path class="cls-2" d="m439.96,290.67l7.68,7.92c2.35,2.42,6.51,2.23,8.92-.42,5.5-6.06,15.58-14.57,25.39-9.37,22.74,12.03-12.28,59.94-27,78.39-2.06,2.58.13,6.04,3.4,5.37l56.56-11.57c2.53-.52,4.53-2.49,4.99-4.9l1.74-9.15c.75-3.97-2.86-7.19-6.99-6.22l-24.66,5.81s44.97-62.36,2.4-78.63c-19.44-7.44-41.75,6.93-51.51,14.42-2.8,2.15-3.21,6-.92,8.37Z"/><path class="cls-2" d="m312.48,401.44c1.76,1.3,1.16,4.07-.99,4.52l-83.14,17.58c-3.27.67-5.46-2.78-3.4-5.37,14.71-18.45,49.73-66.36,27-78.38-9.82-5.2-19.89,3.31-25.39,9.37-2.41,2.65-6.57,2.84-8.92.42l-7.69-7.92c-2.29-2.37-1.88-6.22.92-8.37,9.77-7.49,32.07-21.85,51.51-14.42,42.57,16.28-2.4,78.64-2.4,78.64l34.89-8c2.34-.53,4.77.23,6.41,1.98,3.42,3.64,7.17,6.97,11.19,9.94Z"/></g><g id="Deer"><path class="cls-2" d="m735.43,449.17c3.12-.78,6.04,1.82,5.62,5.01l-9.53,73.22v.02l-3.71,28.49-22.81,175.42c-.4,3.05-2.99,5.33-6.07,5.33h-33.1c-3.76,0-6.63-3.35-6.05-7.06l21.06-150.92-66.15,20.77-46.53,134.69c-.8,2.55-3.17,4.28-5.84,4.28l-33.96,10c-4.22,0-7.17-4.16-5.77-8.14l42.34-120.76,9.61-27.41,31.88-90.92c.97-2.78,2.8-5.18,5.21-6.87l27.86-9.3c2.57-1.8,5.96.69,5.02,3.68l-25.1,83.17,65.87-21.47,16.5-82.89c.8-4.41,4.11-7.95,8.46-9.03l25.17-9.29Z"/><path class="cls-4" d="m584.45,514.52l-50.14,140.6c-4.43,16.57-55.43,26.57-70.83,23.54,33.4-36.97,85.4-105.97,35.34-142.6.39-.99,1.12-1.82,2.06-2.31l77.25-24.45c3.49-1.85,7.48,1.44,6.32,5.22Z"/><path class="cls-2" d="m380.91,586.34c-1.35.93-.24,3.03,1.29,2.46l18.9-7.26-53.28,132.12c-2.52,6.24,2.91,12.75,9.48,11.43,29.73-6.06,96.45-28.56,133.92-110.64,57.96-126.93-110.31-28.11-110.31-28.11Zm75.15,28.11c-5.61,30.09-28.98,42.87-41.79,47.7-3.54,1.32-7.08-1.95-5.97-5.58l20.16-65.25c.51-1.74,2.04-3,3.84-3.18,7.95-.81,28.74-.45,23.76,26.31Z"/><path class="cls-4" d="m500.82,688.49c10.6-.5,20.41-5.32,26.32-8.9,1.87-1.13,4.12.72,3.4,2.78l-23.84,69.44c-.44,4.84,3.12,9.12,7.96,9.56l46.43-9.68c2.69.25,4.3,3.06,3.21,5.53-15.19,34.42-31.79,79.7-31.77,115.49,0,2.32-1.97,4.14-4.27,3.93l-41.89-2.01c-1.81-.17-3.29-1.56-3.55-3.36-7.55-53.5-2.01-124.49,15.98-180.45.33-1.02,1.06-1.86,2.03-2.33h0Z"/><path class="cls-4" d="m639.88,714.44c6.95-4.32,15.74,1.46,14.56,9.53l-2.89,19.81c0,4.86,3.94,8.8,8.8,8.8h34.49c2.7,0,4.56,2.66,3.7,5.22-11.98,35.67-14.34,71.31-11.05,106.95.21,2.31-1.58,4.3-3.9,4.3h-41.98c-1.82,0-3.42-1.25-3.84-3.03-11.49-48.73-10.94-98.47.36-149.1.23-1.02.85-1.93,1.74-2.48Z"/><path class="cls-4" d="m337.15,756.62s66.73-18.93,119.05-70.54c6.03-5.95,16.38,2.34,15.75,10.79-1.31,17.62-47.88,68.1-86.27,96.51-39.54,29.26-52.41,75.63-56.12,94.28-.95,4.76-5.13,8.17-9.98,8.17h-17.23c-6.45,0-11.28-5.93-9.97-12.25l9.98-48.18-2.2-5.13c-2.9-6.77-1.17-14.63,4.3-19.56l14.35-12.92,7.07-28.28c1.46-5.85,5.66-10.65,11.26-12.88Z"/><path class="cls-4" d="m794.64,358.94l-6.03-18.12c-1.11-3.27-4.77-4.89-7.89-3.48l-15.3,6.78s-39.96-14.1-89.31,7.05c-30.57-21.15-49.38-9.78-49.38-9.78,0,0-2.34,47.4,47.01,35.64,2.28-.54-27.59,166.89-27.59,166.89l34.06-16.44,14.81-77.58-2.47-47.01,49.35.39,50.7-37.83c2.01-1.5,2.85-4.14,2.04-6.51Zm-154.35-8.22s24.12,2.01,24.06,11.49l-24.06-11.49Zm55.86,5.73s22.14-9.45,22.14-2.73c0,12-22.14,2.73-22.14,2.73Z"/><polygon class="cls-4" points="744.26 325.32 786.57 299.47 774.82 252.46 730.16 212.5 772.47 240.7 763.07 198.4 741.91 171.25 772.47 196.04 794.94 268.61 812.43 245.41 824.18 212.5 824.18 251.77 798.32 280.66 805.38 304.17 770.12 332.37 744.26 325.32"/><polygon class="cls-4" points="694.9 327.67 654.94 304.17 666.7 257.16 711.36 217.2 669.05 245.41 678.45 203.1 699.6 175.95 669.05 200.75 646.57 273.31 629.09 250.11 617.33 217.2 617.33 256.48 643.19 285.36 636.14 308.87 671.4 337.08 694.9 327.67"/><path class="cls-4" d="m433.24,772.83c-10.72,13.43-29.06,30.04-43.32,37.27-.76.91-1.2,2.06-1.2,3.24-.14,31.23,19.57,44.03,37.46,68.96,1.2,1.68,3.34,2.42,5.34,1.91l23.43-5.25c2.69-.7,4.31-3.44,3.61-6.13-4.21-16.18-17.17-59.32-16.45-96.7.09-4.73-5.82-6.92-8.87-3.31Z"/><path class="cls-4" d="m248.88,630.87s39.57-48.18,78-48.18c31.16,0,54,22,54,22l-12,31-40-16-31.27,15.5v-11.56l-48.73,7.24Z"/></g></svg>