<svg width="409" height="215" viewBox="0 0 409 215" fill="none" xmlns="http://www.w3.org/2000/svg">
<g clip-path="url(#clip0_692_39895)">
<path d="M105.848 107.436L167.085 71.9993C181.384 63.6063 186.358 45.2662 177.965 30.9671C169.572 16.668 151.232 11.6945 136.932 20.0874L31.2441 81.014L105.848 107.436Z" fill="#EA4335"/>
<path d="M151.854 198.204C162.112 198.204 172.37 192.92 177.965 183.283C186.358 168.984 181.385 150.644 167.085 142.251L61.3972 81.3247C47.0982 72.9317 28.7572 77.9053 20.3642 92.2044C11.9722 106.504 16.9452 124.844 31.2442 133.237L136.933 194.163C141.596 196.961 146.88 198.204 151.854 198.204Z" fill="#4285F4"/>
<path d="M256.921 198.204C261.894 198.204 267.179 196.961 271.841 194.163L377.53 133.237L303.859 106.193L241.689 141.94C227.39 150.333 222.416 168.674 230.809 182.973C236.405 192.92 246.663 198.204 256.921 198.204Z" fill="#FBBC04"/>
<path d="M362.611 137.278C372.869 137.278 383.127 131.993 388.722 122.357C397.115 108.058 392.142 89.7174 377.843 81.3244L272.154 20.3979C257.855 12.005 239.515 16.9787 231.122 31.2777C222.729 45.5768 227.702 63.9168 242.001 72.3097L347.69 133.237C352.353 136.034 357.637 137.278 362.611 137.278Z" fill="#34A853"/>
</g>
<defs>
<clipPath id="clip0_692_39895">
<rect width="377" height="183" fill="white" transform="translate(16 16)"/>
</clipPath>
</defs>
</svg>
