<svg width="107" height="113" viewBox="0 0 107 113" fill="none" xmlns="http://www.w3.org/2000/svg">
<path d="M57.1372 25.29L72.4372 34.12C72.9872 34.43 73.0072 35.29 72.4372 35.6L54.2572 46.1C53.7072 46.42 53.0572 46.4 52.5472 46.1L34.3672 35.6C33.8072 35.3 33.7972 34.42 34.3672 34.12L49.6572 25.29V8L10.6172 30.54V75.62L25.5872 66.98V49.32C25.5772 48.69 26.3172 48.24 26.8672 48.58L45.0472 59.08C45.5972 59.4 45.9072 59.97 45.9072 60.56V81.55C45.9172 82.18 45.1772 82.63 44.6272 82.29L29.3272 73.46L14.3572 82.1L53.3972 104.64L92.4372 82.1L77.4672 73.46L62.1672 82.29C61.6272 82.62 60.8672 82.19 60.8872 81.55V60.56C60.8872 59.93 61.2372 59.37 61.7472 59.08L79.9272 48.58C80.4672 48.25 81.2272 48.67 81.2072 49.32V66.98L96.1772 75.62V30.54L57.1372 8V25.29Z" fill="black"/>
</svg>
