<?xml version="1.0" encoding="UTF-8"?><svg id="Layer_2" xmlns="http://www.w3.org/2000/svg" viewBox="0 0 850.09 1070.65"><defs><style>.cls-1{fill:#e7eef4;}.cls-2{fill:#87a9c7;}</style></defs><g id="Layer_1-2"><path class="cls-1" d="m718.94,410.67c4.6-1.15,8.92,2.69,8.31,7.4l-14.08,108.19v.03l-5.49,42.1-33.71,259.22c-.59,4.51-4.42,7.88-8.97,7.88h-48.91c-5.55,0-9.79-4.95-8.93-10.44l31.12-223-97.74,30.69-68.76,199.02c-1.19,3.76-4.68,6.32-8.62,6.32l-50.19,14.78c-6.23,0-10.59-6.15-8.53-12.03l62.57-178.44,14.21-40.5,47.11-134.35c1.44-4.11,4.13-7.66,7.7-10.16l41.17-13.74c3.8-2.66,8.81,1.02,7.42,5.44l-37.09,122.89,97.33-31.73,24.38-122.48c1.18-6.52,6.07-11.74,12.5-13.35l37.2-13.73Z"/><path class="cls-2" d="m495.84,507.23l-74.08,207.76c-6.54,24.48-81.9,39.26-104.66,34.78,49.36-54.63,126.19-156.59,52.22-210.71.57-1.47,1.65-2.68,3.04-3.42l114.14-36.13c5.16-2.74,11.06,2.13,9.34,7.72Z"/><path class="cls-1" d="m195.09,613.36c-1.99,1.37-.35,4.48,1.91,3.63l27.93-10.73-78.73,195.23c-3.72,9.22,4.3,18.84,14.01,16.89,43.93-8.95,142.52-42.2,197.89-163.49,85.64-187.56-163-41.54-163-41.54Zm111.05,41.54c-8.29,44.46-42.82,63.35-61.75,70.48-5.23,1.95-10.46-2.88-8.82-8.25l29.79-96.42c.75-2.57,3.01-4.43,5.67-4.7,11.75-1.2,42.47-.67,35.11,38.88Z"/><path class="cls-2" d="m372.28,764.29c15.67-.73,30.16-7.86,38.89-13.15,2.76-1.67,6.09,1.06,5.02,4.1l-35.23,102.61c-.66,7.15,4.61,13.48,11.76,14.13l68.61-14.3c3.98.36,6.35,4.52,4.74,8.18-22.44,50.87-46.98,117.78-46.94,170.65,0,3.42-2.9,6.12-6.31,5.8l-61.89-2.97c-2.68-.25-4.87-2.3-5.24-4.97-11.15-79.05-2.97-183.95,23.61-266.65.49-1.51,1.57-2.75,2.99-3.45h0Z"/><path class="cls-2" d="m577.75,802.64c10.27-6.38,23.26,2.16,21.52,14.08l-4.27,29.27c0,7.18,5.82,13,13,13h50.97c3.99,0,6.74,3.92,5.47,7.71-17.7,52.7-21.19,105.37-16.32,158.03.32,3.41-2.33,6.36-5.76,6.36h-62.03c-2.69,0-5.06-1.85-5.67-4.47-16.98-72.01-16.16-145.5.53-220.31.34-1.51,1.26-2.85,2.57-3.67Z"/><path class="cls-2" d="m130.43,864.96s98.61-27.97,175.92-104.23c8.91-8.79,24.21,3.46,23.28,15.94-1.93,26.03-70.75,100.63-127.47,142.61-58.43,43.24-77.44,111.76-82.93,139.31-1.4,7.03-7.58,12.07-14.74,12.07h-25.46c-9.54,0-16.67-8.76-14.73-18.1l14.74-71.2-3.25-7.59c-4.29-10-1.73-21.62,6.36-28.9l21.21-19.09,10.45-41.79c2.16-8.65,8.36-15.73,16.64-19.03Z"/><path class="cls-2" d="m806.44,277.34l-8.91-26.78c-1.64-4.83-7.05-7.23-11.66-5.14l-22.61,10.02s-59.05-20.84-131.97,10.42c-45.17-31.25-72.97-14.45-72.97-14.45,0,0-3.46,70.04,69.46,52.66,3.37-.8-40.77,246.6-40.77,246.6l50.33-24.29,21.88-114.64-3.65-69.46,72.92.58,74.92-55.9c2.97-2.22,4.21-6.12,3.01-9.62Zm-228.07-12.15s35.64,2.97,35.55,16.98l-35.55-16.98Zm82.54,8.47s32.72-13.96,32.72-4.03c0,17.73-32.72,4.03-32.72,4.03Z"/><polygon class="cls-2" points="732 227.67 794.51 189.46 777.15 119.99 711.16 60.95 773.67 102.63 759.78 40.11 728.52 0 773.67 36.64 806.88 143.86 832.72 109.58 850.09 60.95 850.09 118.99 811.88 161.67 822.3 196.41 770.2 238.09 732 227.67"/><polygon class="cls-2" points="659.06 231.14 600.01 196.41 617.38 126.94 683.37 67.9 620.85 109.58 634.74 47.06 666 6.95 620.85 43.58 587.64 150.81 561.81 116.52 544.44 67.9 544.44 125.93 582.65 168.62 572.23 203.35 624.33 245.03 659.06 231.14"/><path class="cls-2" d="m272.41,888.93c-15.85,19.84-42.94,44.39-64.01,55.07-1.13,1.34-1.77,3.04-1.77,4.79-.2,46.15,28.91,65.06,55.36,101.9,1.78,2.48,4.93,3.58,7.89,2.82l34.62-7.75c3.98-1.03,6.36-5.08,5.33-9.06-6.21-23.91-25.38-87.65-24.31-142.88.14-6.98-8.6-10.23-13.1-4.88Z"/><path class="cls-2" d="m0,679.16s58.47-71.2,115.26-71.2c46.05,0,79.79,32.51,79.79,32.51l-17.73,45.81-59.11-23.64-46.21,22.91v-17.09L0,679.16Z"/></g></svg>