<svg width="192" height="157" viewBox="0 0 192 157" fill="none" xmlns="http://www.w3.org/2000/svg">
<path d="M125.5 145H90V156H125.5V145Z" fill="white" stroke="white" class="svg-elem-1"></path>
<path d="M115.5 46.5H90C82.1516 44.4752 78.4578 41.7773 75.8116 35.9314C74.3751 32.7578 74 29.2289 74 25.7453V1H80V21.5601C80 27.1072 80.4773 33.4922 85.0029 36.6999C86.7301 37.9241 88.7442 38.4051 91.5 38.5C90.1863 36.1804 89.47 34.5672 88.9802 32.5435C88.5748 30.8682 88.5 29.1346 88.5 27.411V1H95L94.6467 21.4906C94.5503 27.0821 95.0118 33.5781 99.7307 36.5791C101.483 37.6932 103.489 38.1892 106 38.5L104.995 35.6535C103.675 31.9117 103 27.9727 103 24.0048V1H109L108.671 20.4315C108.559 27.0002 109.66 35.0417 115.746 37.5165C117.964 38.4186 120.207 38.5212 122.602 38.5632L141.434 38.8936C145.428 38.9636 149.422 38.783 152.03 35.7577C154.732 32.6241 155.5 27.8473 155.5 23.7096V1H162V25.5596C162 28.5081 161.761 31.4952 160.657 34.2293C160.083 35.6513 159.417 36.9044 158.5 38.5C160.725 38.2675 162.456 37.8151 163.946 36.9873C169.307 34.0081 170 26.7717 170 20.6384V1H176.5V24.0048C176.5 27.9727 175.825 31.9117 174.505 35.6535L173.5 38.5C175.482 38.2105 177.042 37.7687 178.344 37.1458C184.192 34.347 185 26.5665 185 20.0825V1H191V26.1511C191 28.7093 190.785 31.2818 190.024 33.7241C188.216 39.5214 185.566 42.6357 180.472 44.7618C176.951 46.231 173.071 46.5 169.256 46.5H147V156H137V110.5H125.5V133.5H90V110.5H78.5V156H68V110.5C68 110.5 58 110 38 110.5C18 111 2.0161 131.459 15 156H1V132.464C1 126.844 1.50233 121.167 3.52093 115.922C7.52594 105.515 13.009 101.281 22.1861 98.7916C26.0082 97.7547 29.9926 97.5 33.9529 97.5H101.067C103.668 97.5 106.285 97.112 108.63 95.9865C114.656 93.0945 116.897 89.5354 118 82C118.23 74.5286 117.512 70.9321 114.344 69.3427C112.573 68.4542 110.505 68.5 108.524 68.5H88.5V62.3063C88.5 60.4467 88.6375 58.5176 89.5887 56.9196C90.0533 56.1392 90.6045 55.5537 91.3283 55.0877C92.9445 54.0471 94.9736 54 96.8959 54H101.181C103.054 54 104.935 53.8237 106.721 53.2588C110.944 51.9228 113.076 50.1522 115.5 46.5Z" fill="white" stroke="white" class="svg-elem-2"></path>
<path d="M56.4998 122V156H36.4998C22.0566 156 14.5597 132.121 32.2143 123.607C34.9476 122.288 38.0388 122 41.0733 122H56.4998Z" fill="white" stroke="white" class="svg-elem-3"></path>
</svg>
