<svg id="Layer_1" data-name="Layer 1" xmlns="http://www.w3.org/2000/svg" xmlns:xlink="http://www.w3.org/1999/xlink" viewBox="0 0 124.27 108.36"><defs><style>.cls-1{fill:#b0bdd3;}.cls-2{fill:#b0bdd3;}.cls-3{fill:#b0bdd3;}.cls-4{fill:#b0bdd3;}.cls-5{fill:#b0bdd3;}.cls-6{fill:#b0bdd3;}.cls-7{fill:#b0bdd3;}.cls-8{fill:#b0bdd3;}.cls-9{fill:#b0bdd3;}</style><linearGradient id="New_Gradient_Swatch" x1="26.38" x2="26.38" y2="70.95" gradientUnits="userSpaceOnUse"><stop offset="0" stop-color="#876eb1"/><stop offset="0.06" stop-color="#8875b5"/><stop offset="0.7" stop-color="#97bee5"/><stop offset="1" stop-color="#9ddbf8"/></linearGradient><linearGradient id="New_Gradient_Swatch-2" x1="97.89" x2="97.89" y2="70.95" xlink:href="#New_Gradient_Swatch"/><linearGradient id="New_Gradient_Swatch-3" x1="32.3" y1="108.36" x2="32.3" y2="73.09" xlink:href="#New_Gradient_Swatch"/><linearGradient id="New_Gradient_Swatch-4" x1="50.9" y1="103.97" x2="50.9" y2="77.49" xlink:href="#New_Gradient_Swatch"/><linearGradient id="New_Gradient_Swatch-5" x1="52.52" y1="108.36" x2="52.52" y2="73.09" xlink:href="#New_Gradient_Swatch"/><linearGradient id="New_Gradient_Swatch-6" x1="72.74" y1="108.36" x2="72.74" y2="73.09" xlink:href="#New_Gradient_Swatch"/><linearGradient id="New_Gradient_Swatch-7" x1="92.96" y1="108.36" x2="92.96" y2="73.09" xlink:href="#New_Gradient_Swatch"/></defs><polygon class="cls-1" points="17.12 84.65 17.12 84.65 17.11 84.65 17.12 84.65"/><polygon class="cls-2" points="49.13 40.69 49.13 28.63 46.13 25.08 46.13 39 36.38 44.92 22.11 37.58 22.11 26.62 19.11 23.08 19.11 39.41 49.77 55.18 49.77 66.37 45.45 64.15 45.45 57.03 14.64 41.34 14.64 9.54 11.64 5.99 11.64 27.09 3 22.69 3 3.54 0 0 0 24.53 11.64 30.46 11.64 43.18 42.45 58.87 42.45 65.98 49.77 69.75 49.77 70.95 52.77 70.95 52.77 53.35 39.51 46.53 49.13 40.69"/><polygon class="cls-3" points="75.15 40.69 75.15 28.63 78.15 25.08 78.15 39 87.89 44.92 102.16 37.58 102.16 26.62 105.16 23.08 105.16 39.41 74.5 55.18 74.5 66.37 78.83 64.15 78.83 57.03 109.63 41.34 109.63 9.54 112.63 5.99 112.63 27.09 121.27 22.69 121.27 3.54 124.27 0 124.27 24.53 112.63 30.46 112.63 43.18 81.83 58.87 81.83 65.98 74.5 69.75 74.5 70.95 71.5 70.95 71.5 53.35 84.76 46.53 75.15 40.69"/><polygon class="cls-4" points="38.23 73.09 37.15 73.09 37.15 73.11 32.3 77.97 27.44 73.11 27.44 73.09 26.36 73.09 25.29 73.09 24.21 73.09 24.21 108.36 25.29 108.36 26.36 108.36 27.44 108.36 27.44 86.82 32.3 91.67 32.3 87.1 27.44 82.25 27.44 77.69 30.01 80.25 32.3 82.54 34.58 80.25 37.15 77.69 37.15 108.36 38.23 108.36 39.31 108.36 40.38 108.36 40.38 73.09 39.31 73.09 38.23 73.09"/><polygon class="cls-5" points="49.28 77.5 49.28 103.97 50.36 103.97 51.44 103.97 52.52 103.97 52.52 77.5 51.44 77.5 50.36 77.5 49.28 77.5"/><polygon class="cls-6" points="71.72 99.54 69.5 99.54 69.5 101.01 69.5 102.48 69.5 103.95 71.1 103.95 71.72 103.95 72.18 103.95 73.26 103.95 74.34 103.95 74.34 101.73 73.26 101.73 72.18 101.73 71.72 101.73 71.72 101.01 71.72 99.54"/><polygon class="cls-6" points="91.94 99.54 89.73 99.54 89.73 101.01 89.73 102.48 89.73 103.95 91.32 103.95 91.94 103.95 92.4 103.95 93.48 103.95 94.56 103.95 94.56 101.73 93.48 101.73 92.4 101.73 91.94 101.73 91.94 101.01 91.94 99.54"/><polygon class="cls-7" points="58.45 73.1 57.37 73.1 57.37 73.09 47.67 73.09 46.59 73.09 45.51 73.09 44.43 73.09 44.43 108.36 45.51 108.36 46.59 108.36 47.67 108.36 57.37 108.36 58.45 108.36 59.53 108.36 60.61 108.36 60.61 99.58 59.53 99.58 58.45 99.58 57.37 99.58 57.37 105.12 47.67 105.12 47.67 76.32 57.37 76.32 57.37 81.87 58.45 81.87 59.53 81.87 60.61 81.87 60.61 73.1 59.53 73.1 58.45 73.1"/><polygon class="cls-8" points="78.67 73.09 77.59 73.09 77.59 73.09 67.89 73.09 66.81 73.09 65.73 73.09 64.65 73.09 64.65 89 64.65 90.08 64.65 90.73 64.65 91.15 64.65 92.23 77.59 92.23 77.59 105.12 67.89 105.12 67.89 99.58 66.81 99.58 65.73 99.58 64.65 99.58 64.65 108.36 65.73 108.36 66.81 108.36 67.89 108.36 77.59 108.36 78.67 108.36 79.75 108.36 80.83 108.36 80.83 89 79.75 89 78.67 89 77.59 89 67.89 89 67.89 76.32 77.59 76.32 77.59 81.86 78.67 81.86 79.75 81.86 80.83 81.86 80.83 73.09 79.75 73.09 78.67 73.09"/><polygon class="cls-9" points="98.89 81.86 99.97 81.86 101.05 81.86 101.05 73.09 99.97 73.09 98.89 73.09 97.82 73.09 97.82 73.09 88.11 73.09 87.03 73.09 85.95 73.09 84.87 73.09 84.87 89 84.87 90.08 84.87 90.73 84.87 91.15 84.87 92.23 97.82 92.23 97.82 105.12 88.11 105.12 88.11 99.58 87.03 99.58 85.95 99.58 84.87 99.58 84.87 108.36 85.95 108.36 87.03 108.36 88.11 108.36 97.82 108.36 98.89 108.36 99.97 108.36 101.05 108.36 101.05 89 99.97 89 98.89 89 97.82 89 88.11 89 88.11 76.32 97.82 76.32 97.82 81.86 98.89 81.86"/></svg>