<svg xmlns="http://www.w3.org/2000/svg" xmlns:xlink="http://www.w3.org/1999/xlink" style="margin:auto;background:rgba(255, 255, 255, 0);display:block;z-index:1;position:relative" width="2560" height="1336" preserveAspectRatio="xMidYMid" viewBox="0 0 2560 1336">
<g transform="translate(1280,668) scale(1,1) translate(-1280,-668)"><path id="path0" d="M 2079.7155661960874 893.2971162136314
c 0 32.85982034020602 -8.040168806646154 9.438459033888964 -17.47862784053512 9.438459033888964
S 2044.7583105150172 926.1569365538375 2044.7583105150172 893.2971162136314
s 8.040168806646154 -9.438459033888964 17.47862784053512 -9.438459033888964
S 2079.7155661960874 860.4372958734253 2079.7155661960874 893.2971162136314
z" fill="none" stroke="none"></path>
<circle cx="0" cy="0" r="3.973171260523454" fill="#a8a4b9">
  <animateMotion begin="-4.166708065614491s" dur="10s" repeatCount="indefinite">
    <mpath xlink:href="#path0"></mpath>
  </animateMotion>
</circle><path id="path1" d="M 425.30839831921224 839.0244716918236
c 0 20.071828843785852 -4.911192163905048 5.765312540236361 -10.67650470414141 5.765312540236361
S 403.95538891092946 859.0963005356094 403.95538891092946 839.0244716918236
s 4.911192163905048 -5.765312540236361 10.67650470414141 -5.765312540236361
S 425.30839831921224 818.9526428480377 425.30839831921224 839.0244716918236
z" fill="none" stroke="none"></path>
<circle cx="0" cy="0" r="2.514389995923259" fill="#c9c5d5">
  <animateMotion begin="-5.953642212669683s" dur="10s" repeatCount="indefinite">
    <mpath xlink:href="#path1"></mpath>
  </animateMotion>
</circle><path id="path2" d="M 767.7843866505079 942.7360021519897
c 0 25.670525991071113 -6.281086146751441 7.373448954882128 -13.65453510163357 7.373448954882128
S 740.4753164472409 968.4065281430609 740.4753164472409 942.7360021519897
s 6.281086146751441 -7.373448954882128 13.65453510163357 -7.373448954882128
S 767.7843866505079 917.0654761609186 767.7843866505079 942.7360021519897
z" fill="none" stroke="none"></path>
<circle cx="0" cy="0" r="4.89863311294063" fill="#c9c5d5">
  <animateMotion begin="-7.436834873444338s" dur="10s" repeatCount="indefinite">
    <mpath xlink:href="#path2"></mpath>
  </animateMotion>
</circle><path id="path3" d="M 1096.2401777782345 1076.3267276061413
c 0 27.85337645940546 -6.815187857088569 8.000437919190931 -14.8156257762795 8.000437919190931
S 1066.6089262256753 1104.1801040655466 1066.6089262256753 1076.3267276061413
s 6.815187857088569 -8.000437919190931 14.8156257762795 -8.000437919190931
S 1096.2401777782345 1048.473351146736 1096.2401777782345 1076.3267276061413
z" fill="none" stroke="none"></path>
<circle cx="0" cy="0" r="4.294451834339626" fill="#a8a4b9">
  <animateMotion begin="-2.712887413212679s" dur="10s" repeatCount="indefinite">
    <mpath xlink:href="#path3"></mpath>
  </animateMotion>
</circle><path id="path4" d="M 2250.0048537181965 758.1519170452692
c 0 35.524247042241136 -8.6921029996973 10.203773086601178 -18.89587608629848 10.203773086601178
S 2212.2131015456 793.6761640875103 2212.2131015456 758.1519170452692
s 8.6921029996973 -10.203773086601178 18.89587608629848 -10.203773086601178
S 2250.0048537181965 722.6276700030281 2250.0048537181965 758.1519170452692
z" fill="none" stroke="none"></path>
<circle cx="0" cy="0" r="4.85715389818114" fill="#a8a4b9">
  <animateMotion begin="-8.593188030134073s" dur="10s" repeatCount="indefinite">
    <mpath xlink:href="#path4"></mpath>
  </animateMotion>
</circle><path id="path5" d="M 837.467290009216 621.1678742063206
c 0 37.17068183096425 -9.094954065023167 10.676685206766328 -19.771639271789493 10.676685206766328
S 797.924011465637 658.3385560372848 797.924011465637 621.1678742063206
s 9.094954065023167 -10.676685206766328 19.771639271789493 -10.676685206766328
S 837.467290009216 583.9971923753563 837.467290009216 621.1678742063206
z" fill="none" stroke="none"></path>
<circle cx="0" cy="0" r="2.509149724998789" fill="#c9c5d5">
  <animateMotion begin="-0.1974751165464883s" dur="10s" repeatCount="indefinite">
    <mpath xlink:href="#path5"></mpath>
  </animateMotion>
</circle><path id="path6" d="M 1396.4560701080034 871.7335666578045
c 0 30.418333993939893 -7.442783849581036 8.737181040812523 -16.17996489039356 8.737181040812523
S 1364.096140327216 902.1519006517444 1364.096140327216 871.7335666578045
s 7.442783849581036 -8.737181040812523 16.17996489039356 -8.737181040812523
S 1396.4560701080034 841.3152326638647 1396.4560701080034 871.7335666578045
z" fill="none" stroke="none"></path>
<circle cx="0" cy="0" r="4.359989641746172" fill="#31395a">
  <animateMotion begin="-8.055984203534303s" dur="10s" repeatCount="indefinite">
    <mpath xlink:href="#path6"></mpath>
  </animateMotion>
</circle><path id="path7" d="M 1076.2690631111666 958.2710351183878
c 0 33.611755893554964 -8.224153037784724 9.654440522616852 -17.878593560401576 9.654440522616852
S 1040.5118759903633 991.8827910119427 1040.5118759903633 958.2710351183878
s 8.224153037784724 -9.654440522616852 17.878593560401576 -9.654440522616852
S 1076.2690631111666 924.6592792248329 1076.2690631111666 958.2710351183878
z" fill="none" stroke="none"></path>
<circle cx="0" cy="0" r="4.119408169442719" fill="#a8a4b9">
  <animateMotion begin="-1.7281507796502993s" dur="10s" repeatCount="indefinite">
    <mpath xlink:href="#path7"></mpath>
  </animateMotion>
</circle><path id="path8" d="M 2494.6995623995385 337.97655328059153
c 0 22.09404338248317 -5.405989338267158 6.346161397096231 -11.75215073536339 6.346161397096231
S 2471.1952609288114 360.0705966630747 2471.1952609288114 337.97655328059153
s 5.405989338267158 -6.346161397096231 11.75215073536339 -6.346161397096231
S 2494.6995623995385 315.88250989810837 2494.6995623995385 337.97655328059153
z" fill="none" stroke="none"></path>
<circle cx="0" cy="0" r="3.8337409224732077" fill="#31395a">
  <animateMotion begin="-5.515021336851406s" dur="10s" repeatCount="indefinite">
    <mpath xlink:href="#path8"></mpath>
  </animateMotion>
</circle><path id="path9" d="M 2118.6769246516906 1221.7545235145308
c 0 34.410936685958305 -8.41969727422384 9.883992452349727 -18.303689726573566 9.883992452349727
S 2082.069545198543 1256.1654602004892 2082.069545198543 1221.7545235145308
s 8.41969727422384 -9.883992452349727 18.303689726573566 -9.883992452349727
S 2118.6769246516906 1187.3435868285724 2118.6769246516906 1221.7545235145308
z" fill="none" stroke="none"></path>
<circle cx="0" cy="0" r="4.6031146627224375" fill="#c9c5d5">
  <animateMotion begin="-6.486535810456983s" dur="10s" repeatCount="indefinite">
    <mpath xlink:href="#path9"></mpath>
  </animateMotion>
</circle><path id="path10" d="M 659.9535506844926 508.50890805565905
c 0 37.59512571073554 -9.19880735475444 10.798599938189994 -19.997407292944434 10.798599938189994
S 619.9587360986037 546.1040337663945 619.9587360986037 508.50890805565905
s 9.19880735475444 -10.798599938189994 19.997407292944434 -10.798599938189994
S 659.9535506844926 470.9137823449235 659.9535506844926 508.50890805565905
z" fill="none" stroke="none"></path>
<circle cx="0" cy="0" r="4.330083378581826" fill="#31395a">
  <animateMotion begin="-7.963751056906512s" dur="10s" repeatCount="indefinite">
    <mpath xlink:href="#path10"></mpath>
  </animateMotion>
</circle><path id="path11" d="M 274.15425377179514 571.9029651306638
c 0 30.299739138248462 -7.413765959358665 8.703116560986262 -16.116882520344927 8.703116560986262
S 241.9204887311053 602.2027042689123 241.9204887311053 571.9029651306638
s 7.413765959358665 -8.703116560986262 16.116882520344927 -8.703116560986262
S 274.15425377179514 541.6032259924153 274.15425377179514 571.9029651306638
z" fill="none" stroke="none"></path>
<circle cx="0" cy="0" r="4.985338190775767" fill="#c9c5d5">
  <animateMotion begin="-6.803762736834678s" dur="10s" repeatCount="indefinite">
    <mpath xlink:href="#path11"></mpath>
  </animateMotion>
</circle><path id="path12" d="M 1523.4865453738917 1148.209704353258
c 0 32.005167738188504 -7.8310516806205905 9.192973712032869 -17.02402539265346 9.192973712032869
S 1489.438494588585 1180.2148720914465 1489.438494588585 1148.209704353258
s 7.8310516806205905 -9.192973712032869 17.02402539265346 -9.192973712032869
S 1523.4865453738917 1116.2045366150696 1523.4865453738917 1148.209704353258
z" fill="none" stroke="none"></path>
<circle cx="0" cy="0" r="4.507436926105735" fill="#a8a4b9">
  <animateMotion begin="-6.250800984432232s" dur="10s" repeatCount="indefinite">
    <mpath xlink:href="#path12"></mpath>
  </animateMotion>
</circle><path id="path13" d="M 1322.0790985371948 1238.8762836574772
c 0 21.092007444207752 -5.160810332093385 6.058342563761801 -11.219152895855187 6.058342563761801
S 1299.6407927454845 1259.9682911016848 1299.6407927454845 1238.8762836574772
s 5.160810332093385 -6.058342563761801 11.219152895855187 -6.058342563761801
S 1322.0790985371948 1217.7842762132695 1322.0790985371948 1238.8762836574772
z" fill="none" stroke="none"></path>
<circle cx="0" cy="0" r="4.454013676662153" fill="#31395a">
  <animateMotion begin="-8.736949799006721s" dur="10s" repeatCount="indefinite">
    <mpath xlink:href="#path13"></mpath>
  </animateMotion>
</circle><path id="path14" d="M 741.346490417496 926.0439123766222
c 0 30.01610164371289 -7.344365295802089 8.621646216811149 -15.966011512613239 8.621646216811149
S 709.4144673922696 956.0600140203351 709.4144673922696 926.0439123766222
s 7.344365295802089 -8.621646216811149 15.966011512613239 -8.621646216811149
S 741.346490417496 896.0278107329093 741.346490417496 926.0439123766222
z" fill="none" stroke="none"></path>
<circle cx="0" cy="0" r="3.7891643604770446" fill="#a8a4b9">
  <animateMotion begin="-1.8474565012513833s" dur="10s" repeatCount="indefinite">
    <mpath xlink:href="#path14"></mpath>
  </animateMotion>
</circle><path id="path15" d="M 609.7677618294462 386.4119987654291
c 0 31.592476372173227 -7.7300740059572774 9.074434702645501 -16.80450870860278 9.074434702645501
S 576.1587444122407 418.0044751376023 576.1587444122407 386.4119987654291
s 7.7300740059572774 -9.074434702645501 16.80450870860278 -9.074434702645501
S 609.7677618294462 354.81952239325585 609.7677618294462 386.4119987654291
z" fill="none" stroke="none"></path>
<circle cx="0" cy="0" r="4.520309810887897" fill="#31395a">
  <animateMotion begin="-0.9238152440053793s" dur="10s" repeatCount="indefinite">
    <mpath xlink:href="#path15"></mpath>
  </animateMotion>
</circle><path id="path16" d="M 1526.9136122766263 1174.0402728884912
c 0 32.761347650145886 -8.016074425035693 9.410174325041904 -17.426248750077598 9.410174325041904
S 1492.0611147764712 1206.801620538637 1492.0611147764712 1174.0402728884912
s 8.016074425035693 -9.410174325041904 17.426248750077598 -9.410174325041904
S 1526.9136122766263 1141.2789252383454 1526.9136122766263 1174.0402728884912
z" fill="none" stroke="none"></path>
<circle cx="0" cy="0" r="3.010599535917117" fill="#c9c5d5">
  <animateMotion begin="-6.10455264399052s" dur="10s" repeatCount="indefinite">
    <mpath xlink:href="#path16"></mpath>
  </animateMotion>
</circle><path id="path17" d="M 1331.5244751998346 584.3697307342379
c 0 26.452273324016513 -6.472364749493401 7.597993401579211 -14.070358151072613 7.597993401579211
S 1303.3837588976892 610.8220040582544 1303.3837588976892 584.3697307342379
s 6.472364749493401 -7.597993401579211 14.070358151072613 -7.597993401579211
S 1331.5244751998346 557.9174574102215 1331.5244751998346 584.3697307342379
z" fill="none" stroke="none"></path>
<circle cx="0" cy="0" r="3.2183015746994514" fill="#c9c5d5">
  <animateMotion begin="-4.254179600625811s" dur="10s" repeatCount="indefinite">
    <mpath xlink:href="#path17"></mpath>
  </animateMotion>
</circle><path id="path19" d="M 2421.128086897929 1134.659106118543
c 0 35.476322487682715 -8.68037677890109 10.190007523057801 -18.870384301958893 10.190007523057801
S 2383.387318294011 1170.1354286062256 2383.387318294011 1134.659106118543
s 8.68037677890109 -10.190007523057801 18.870384301958893 -10.190007523057801
S 2421.128086897929 1099.1827836308603 2421.128086897929 1134.659106118543
z" fill="none" stroke="none"></path>
<circle cx="0" cy="0" r="3.965193769163726" fill="#a8a4b9">
  <animateMotion begin="-0.6376710217625137s" dur="10s" repeatCount="indefinite">
    <mpath xlink:href="#path19"></mpath>
  </animateMotion>
</circle></g>
</svg>