<svg xmlns="http://www.w3.org/2000/svg" xmlns:xlink="http://www.w3.org/1999/xlink" style="margin:auto;background:rgba(255, 255, 255, 0);display:block;z-index:1;position:relative" width="2560" height="1336" preserveAspectRatio="xMidYMid" viewBox="0 0 2560 1336">
<g transform="translate(1280,668) scale(1,1) translate(-1280,-668)"><path id="path0" d="M 2060.206373678578 100.37056699557242
c 0 31.987214937237106 -7.826658974004824 9.187817056440446 -17.01447603044527 9.187817056440446
S 2026.1774216176877 132.35778193280953 2026.1774216176877 100.37056699557242
s 7.826658974004824 -9.187817056440446 17.01447603044527 -9.187817056440446
S 2060.206373678578 68.3833520583353 2060.206373678578 100.37056699557242
z" fill="none" stroke="none"></path>
<circle cx="0" cy="0" r="3.396786759031465" fill="#a8a4b9">
  <animateMotion begin="-1.4264344921112992s" dur="10s" repeatCount="indefinite">
    <mpath xlink:href="#path0"></mpath>
  </animateMotion>
</circle><path id="path1" d="M 726.3722721778821 1275.0021173309387
c 0 18.886736142775888 -4.621222673232397 5.424913572924989 -10.046136246157387 5.424913572924989
S 706.2799996855673 1293.8888534737146 706.2799996855673 1275.0021173309387
s 4.621222673232397 -5.424913572924989 10.046136246157387 -5.424913572924989
S 726.3722721778821 1256.115381188163 726.3722721778821 1275.0021173309387
z" fill="none" stroke="none"></path>
<circle cx="0" cy="0" r="4.106026135298347" fill="#a8a4b9">
  <animateMotion begin="-4.604602789415484s" dur="10s" repeatCount="indefinite">
    <mpath xlink:href="#path1"></mpath>
  </animateMotion>
</circle><path id="path2" d="M 1080.7556888789527 852.7151795729328
c 0 26.581438536497686 -6.503969003611135 7.635094047717421 -14.139063051328556 7.635094047717421
S 1052.4775627762956 879.2966181094305 1052.4775627762956 852.7151795729328
s 6.503969003611135 -7.635094047717421 14.139063051328556 -7.635094047717421
S 1080.7556888789527 826.1337410364351 1080.7556888789527 852.7151795729328
z" fill="none" stroke="none"></path>
<circle cx="0" cy="0" r="2.7617801868721106" fill="#31395a">
  <animateMotion begin="-9.451133277718323s" dur="10s" repeatCount="indefinite">
    <mpath xlink:href="#path2"></mpath>
  </animateMotion>
</circle><path id="path3" d="M 1495.8938927134554 724.490012135422
c 0 27.041556139322417 -6.61655097025974 7.767255486826652 -14.383806457086392 7.767255486826652
S 1467.1262797992827 751.5315682747445 1467.1262797992827 724.490012135422
s 6.61655097025974 -7.767255486826652 14.383806457086392 -7.767255486826652
S 1495.8938927134554 697.4484559960996 1495.8938927134554 724.490012135422
z" fill="none" stroke="none"></path>
<circle cx="0" cy="0" r="3.9754089258621366" fill="#a8a4b9">
  <animateMotion begin="-5.469874827291481s" dur="10s" repeatCount="indefinite">
    <mpath xlink:href="#path3"></mpath>
  </animateMotion>
</circle><path id="path4" d="M 609.1970958932425 1248.1306601956076
c 0 21.034414083437948 -5.146718339564604 6.041799789923666 -11.18851812948827 6.041799789923666
S 586.820059634266 1269.1650742790455 586.820059634266 1248.1306601956076
s 5.146718339564604 -6.041799789923666 11.18851812948827 -6.041799789923666
S 609.1970958932425 1227.0962461121696 609.1970958932425 1248.1306601956076
z" fill="none" stroke="none"></path>
<circle cx="0" cy="0" r="3.2037715990264553" fill="#31395a">
  <animateMotion begin="-0.9139380020137744s" dur="10s" repeatCount="indefinite">
    <mpath xlink:href="#path4"></mpath>
  </animateMotion>
</circle><path id="path5" d="M 2557.3462870883873 1306.8077973049208
c 0 32.93398954207845 -8.058316590083024 9.459762953575725 -17.51807954365875 9.459762953575725
S 2522.31012800107 1339.7417868469993 2522.31012800107 1306.8077973049208
s 8.058316590083024 -9.459762953575725 17.51807954365875 -9.459762953575725
S 2557.3462870883873 1273.8738077628423 2557.3462870883873 1306.8077973049208
z" fill="none" stroke="none"></path>
<circle cx="0" cy="0" r="3.859560443716559" fill="#c9c5d5">
  <animateMotion begin="-0.07229926346392856s" dur="10s" repeatCount="indefinite">
    <mpath xlink:href="#path5"></mpath>
  </animateMotion>
</circle><path id="path6" d="M 2264.8163766072603 1044.1929446456365
c 0 22.12240837725215 -5.412929709327653 6.354308789210724 -11.767238498538378 6.354308789210724
S 2241.2818996101832 1066.3153530228888 2241.2818996101832 1044.1929446456365
s 5.412929709327653 -6.354308789210724 11.767238498538378 -6.354308789210724
S 2264.8163766072603 1022.0705362683844 2264.8163766072603 1044.1929446456365
z" fill="none" stroke="none"></path>
<circle cx="0" cy="0" r="2.680352977192953" fill="#31395a">
  <animateMotion begin="-3.9121404931353454s" dur="10s" repeatCount="indefinite">
    <mpath xlink:href="#path6"></mpath>
  </animateMotion>
</circle><path id="path7" d="M 2391.2967986586905 528.1675757656375
c 0 23.893500916463722 -5.84628213913474 6.86302685898426 -12.709308998118999 6.86302685898426
S 2365.8781806624525 552.0610766821012 2365.8781806624525 528.1675757656375
s 5.84628213913474 -6.86302685898426 12.709308998118999 -6.86302685898426
S 2391.2967986586905 504.27407484917376 2391.2967986586905 528.1675757656375
z" fill="none" stroke="none"></path>
<circle cx="0" cy="0" r="3.8084512857275277" fill="#31395a">
  <animateMotion begin="-3.1987069303035764s" dur="10s" repeatCount="indefinite">
    <mpath xlink:href="#path7"></mpath>
  </animateMotion>
</circle><path id="path8" d="M 1317.9321739898896 429.504340288019
c 0 28.784668944942638 -7.043057295039155 8.267936824611184 -15.310994119650339 8.267936824611184
S 1287.310185750589 458.2890092329617 1287.310185750589 429.504340288019
s 7.043057295039155 -8.267936824611184 15.310994119650339 -8.267936824611184
S 1317.9321739898896 400.71967134307636 1317.9321739898896 429.504340288019
z" fill="none" stroke="none"></path>
<circle cx="0" cy="0" r="3.9293610661646303" fill="#a8a4b9">
  <animateMotion begin="-1.0428056630378202s" dur="10s" repeatCount="indefinite">
    <mpath xlink:href="#path8"></mpath>
  </animateMotion>
</circle><path id="path9" d="M 400.594848073089 300.5901288951605
c 0 22.027537061275176 -5.389716514992862 6.3270585176003165 -11.716775032593178 6.3270585176003165
S 377.1612980079026 322.61766595643564 377.1612980079026 300.5901288951605
s 5.389716514992862 -6.3270585176003165 11.716775032593178 -6.3270585176003165
S 400.594848073089 278.56259183388534 400.594848073089 300.5901288951605
z" fill="none" stroke="none"></path>
<circle cx="0" cy="0" r="2.6605051155894817" fill="#31395a">
  <animateMotion begin="-3.0815485911804874s" dur="10s" repeatCount="indefinite">
    <mpath xlink:href="#path9"></mpath>
  </animateMotion>
</circle><path id="path10" d="M 718.0925764213225 756.8189260695019
c 0 19.565639694819627 -4.787337372136717 5.619917784682234 -10.407255156818952 5.619917784682234
S 697.2780661076847 776.3845657643216 697.2780661076847 756.8189260695019
s 4.787337372136717 -5.619917784682234 10.407255156818952 -5.619917784682234
S 718.0925764213225 737.2532863746823 718.0925764213225 756.8189260695019
z" fill="none" stroke="none"></path>
<circle cx="0" cy="0" r="3.6507891092999296" fill="#c9c5d5">
  <animateMotion begin="-7.786747295492424s" dur="10s" repeatCount="indefinite">
    <mpath xlink:href="#path10"></mpath>
  </animateMotion>
</circle><path id="path11" d="M 2241.579913366412 671.1628823589443
c 0 28.63478684654656 -7.00638401564437 8.224885583582523 -15.231269599226893 8.224885583582523
S 2211.117374167958 699.7976692054909 2211.117374167958 671.1628823589443
s 7.00638401564437 -8.224885583582523 15.231269599226893 -8.224885583582523
S 2241.579913366412 642.5280955123977 2241.579913366412 671.1628823589443
z" fill="none" stroke="none"></path>
<circle cx="0" cy="0" r="4.097717709627771" fill="#a8a4b9">
  <animateMotion begin="-1.6203587832443778s" dur="10s" repeatCount="indefinite">
    <mpath xlink:href="#path11"></mpath>
  </animateMotion>
</circle><path id="path12" d="M 1965.0163079886465 792.0153104796016
c 0 21.16023537990437 -5.177504401465962 6.077939949547 -11.255444351012962 6.077939949547
S 1942.5054192866205 813.175545859506 1942.5054192866205 792.0153104796016
s 5.177504401465962 -6.077939949547 11.255444351012962 -6.077939949547
S 1965.0163079886465 770.8550750996972 1965.0163079886465 792.0153104796016
z" fill="none" stroke="none"></path>
<circle cx="0" cy="0" r="4.8476300972359345" fill="#c9c5d5">
  <animateMotion begin="-8.5969561727523s" dur="10s" repeatCount="indefinite">
    <mpath xlink:href="#path12"></mpath>
  </animateMotion>
</circle><path id="path13" d="M 2491.4774139937526 557.9886598827027
c 0 27.008553176110922 -6.608475777133523 7.7577759122871806 -14.366251689420704 7.7577759122871806
S 2462.7449106149115 584.9972130588136 2462.7449106149115 557.9886598827027
s 6.608475777133523 -7.7577759122871806 14.366251689420704 -7.7577759122871806
S 2491.4774139937526 530.9801067065918 2491.4774139937526 557.9886598827027
z" fill="none" stroke="none"></path>
<circle cx="0" cy="0" r="4.63535280406965" fill="#31395a">
  <animateMotion begin="-1.4684125383708535s" dur="10s" repeatCount="indefinite">
    <mpath xlink:href="#path13"></mpath>
  </animateMotion>
</circle><path id="path14" d="M 1061.6354715472387 100.12810856159757
c 0 34.03035592782481 -8.326576450425218 9.774676702673082 -18.1012531530983 9.774676702673082
S 1025.4329652410422 134.15846448942239 1025.4329652410422 100.12810856159757
s 8.326576450425218 -9.774676702673082 18.1012531530983 -9.774676702673082
S 1061.6354715472387 66.09775263377276 1061.6354715472387 100.12810856159757
z" fill="none" stroke="none"></path>
<circle cx="0" cy="0" r="3.683797193464036" fill="#31395a">
  <animateMotion begin="-4.4847619909591785s" dur="10s" repeatCount="indefinite">
    <mpath xlink:href="#path14"></mpath>
  </animateMotion>
</circle><path id="path15" d="M 1563.3423237651386 484.44450257126005
c 0 26.73491030435087 -6.541520606383722 7.679176364015675 -14.220696970399398 7.679176364015675
S 1534.90092982434 511.1794128756109 1534.90092982434 484.44450257126005
s 6.541520606383722 -7.679176364015675 14.220696970399398 -7.679176364015675
S 1563.3423237651386 457.70959226690917 1563.3423237651386 484.44450257126005
z" fill="none" stroke="none"></path>
<circle cx="0" cy="0" r="3.922934327343838" fill="#31395a">
  <animateMotion begin="-4.525137793817848s" dur="10s" repeatCount="indefinite">
    <mpath xlink:href="#path15"></mpath>
  </animateMotion>
</circle><path id="path16" d="M 425.4003541678491 580.107284456509
c 0 34.1611092570829 -8.358569286307517 9.812233510013174 -18.17080279632069 9.812233510013174
S 389.05874857520774 614.2683937135919 389.05874857520774 580.107284456509
s 8.358569286307517 -9.812233510013174 18.17080279632069 -9.812233510013174
S 425.4003541678491 545.9461751994261 425.4003541678491 580.107284456509
z" fill="none" stroke="none"></path>
<circle cx="0" cy="0" r="3.6073202616621405" fill="#a8a4b9">
  <animateMotion begin="-4.817107004231915s" dur="10s" repeatCount="indefinite">
    <mpath xlink:href="#path16"></mpath>
  </animateMotion>
</circle><path id="path17" d="M 944.6311986832322 86.04369227892226
c 0 34.0771531495849 -8.3380268344729 9.788118457859493 -18.126145292332396 9.788118457859493
S 908.3789080985675 120.12084542850717 908.3789080985675 86.04369227892226
s 8.3380268344729 -9.788118457859493 18.126145292332396 -9.788118457859493
S 944.6311986832322 51.96653912933736 944.6311986832322 86.04369227892226
z" fill="none" stroke="none"></path>
<circle cx="0" cy="0" r="3.5009214918831555" fill="#31395a">
  <animateMotion begin="-3.274188045075166s" dur="10s" repeatCount="indefinite">
    <mpath xlink:href="#path17"></mpath>
  </animateMotion>
</circle><path id="path18" d="M 2371.4878468619672 1088.9641181681463
c 0 19.444201926529747 -4.757623875640257 5.585036723577693 -10.34266059921795 5.585036723577693
S 2350.802525663531 1108.4083200946761 2350.802525663531 1088.9641181681463
s 4.757623875640257 -5.585036723577693 10.34266059921795 -5.585036723577693
S 2371.4878468619672 1069.5199162416166 2371.4878468619672 1088.9641181681463
z" fill="none" stroke="none"></path>
<circle cx="0" cy="0" r="3.3965887754750286" fill="#c9c5d5">
  <animateMotion begin="-3.365512394186989s" dur="10s" repeatCount="indefinite">
    <mpath xlink:href="#path18"></mpath>
  </animateMotion>
</circle><path id="path19" d="M 1188.6746701674938 880.5579825619557
c 0 31.483066689216532 -7.70330355161681 9.043008517115387 -16.746312068732195 9.043008517115387
S 1155.1820460300296 912.0410492511722 1155.1820460300296 880.5579825619557
s 7.70330355161681 -9.043008517115387 16.746312068732195 -9.043008517115387
S 1188.6746701674938 849.0749158727391 1188.6746701674938 880.5579825619557
z" fill="none" stroke="none"></path>
<circle cx="0" cy="0" r="3.7366854071656923" fill="#c9c5d5">
  <animateMotion begin="-9.683715301715367s" dur="10s" repeatCount="indefinite">
    <mpath xlink:href="#path19"></mpath>
  </animateMotion>
</circle></g>
</svg>