<svg xmlns="http://www.w3.org/2000/svg" xmlns:xlink="http://www.w3.org/1999/xlink" style="margin:auto;background:rgba(255, 255, 255, 0);display:block;z-index:1;position:relative" width="2560" height="1336" preserveAspectRatio="xMidYMid" viewBox="0 0 2560 1336">
<g transform="translate(1280,668) scale(1,1) translate(-1280,-668)"><path id="path0" d="M 1980.409315195954 227.73447492875067
c 0 35.293091132085365 -8.63554357487195 10.137377240067073 -18.772920814939024 10.137377240067073
S 1942.863473566076 263.027566060836 1942.863473566076 227.73447492875067
s 8.63554357487195 -10.137377240067073 18.772920814939024 -10.137377240067073
S 1980.409315195954 192.44138379666532 1980.409315195954 227.73447492875067
z" fill="none" stroke="none"></path>
<circle cx="0" cy="0" r="2.7855345500779407" fill="#a8a4b9">
  <animateMotion begin="-2.1564195686932797s" dur="10s" repeatCount="indefinite">
    <mpath xlink:href="#path0"></mpath>
  </animateMotion>
</circle><path id="path1" d="M 2222.2552849991916 1234.9159620330963
c 0 36.91010865707476 -9.031196799071482 10.601839720649133 -19.633036519720616 10.601839720649133
S 2182.9892119597507 1271.826070690171 2182.9892119597507 1234.9159620330963
s 9.031196799071482 -10.601839720649133 19.633036519720616 -10.601839720649133
S 2222.2552849991916 1198.0058533760216 2222.2552849991916 1234.9159620330963
z" fill="none" stroke="none"></path>
<circle cx="0" cy="0" r="3.388176916924116" fill="#a8a4b9">
  <animateMotion begin="-8.066060542246804s" dur="10s" repeatCount="indefinite">
    <mpath xlink:href="#path1"></mpath>
  </animateMotion>
</circle><path id="path2" d="M 557.1605981451276 814.8228497591995
c 0 24.931874932249205 -6.100352377039699 7.161283225220517 -13.261635602260215 7.161283225220517
S 530.6373269406072 839.7547246914487 530.6373269406072 814.8228497591995
s 6.100352377039699 -7.161283225220517 13.261635602260215 -7.161283225220517
S 557.1605981451276 789.8909748269502 557.1605981451276 814.8228497591995
z" fill="none" stroke="none"></path>
<circle cx="0" cy="0" r="3.465132736614174" fill="#c9c5d5">
  <animateMotion begin="-6.321414763282565s" dur="10s" repeatCount="indefinite">
    <mpath xlink:href="#path2"></mpath>
  </animateMotion>
</circle><path id="path3" d="M 2408.6769992980767 993.3086442549433
c 0 33.55932366716349 -8.211323876008086 9.639380202270363 -17.85070407827845 9.639380202270363
S 2372.97559114152 1026.8679679221068 2372.97559114152 993.3086442549433
s 8.211323876008086 -9.639380202270363 17.85070407827845 -9.639380202270363
S 2408.6769992980767 959.7493205877797 2408.6769992980767 993.3086442549433
z" fill="none" stroke="none"></path>
<circle cx="0" cy="0" r="4.228479360480609" fill="#31395a">
  <animateMotion begin="-5.320210279797424s" dur="10s" repeatCount="indefinite">
    <mpath xlink:href="#path3"></mpath>
  </animateMotion>
</circle><path id="path4" d="M 1647.0942470647997 1154.8361123023003
c 0 26.306431421657337 -6.436680028703391 7.556102642390938 -13.992782671094329 7.556102642390938
S 1619.108681722611 1181.1425437239577 1619.108681722611 1154.8361123023003
s 6.436680028703391 -7.556102642390938 13.992782671094329 -7.556102642390938
S 1647.0942470647997 1128.529680880643 1647.0942470647997 1154.8361123023003
z" fill="none" stroke="none"></path>
<circle cx="0" cy="0" r="3.629541054479403" fill="#31395a">
  <animateMotion begin="-5.275140971236903s" dur="10s" repeatCount="indefinite">
    <mpath xlink:href="#path4"></mpath>
  </animateMotion>
</circle><path id="path5" d="M 122.88612536338316 292.7427050607257
c 0 23.275294129815844 -5.695018776444302 6.685456824521573 -12.380475600965875 6.685456824521573
S 98.1251741614514 316.01799919054156 98.1251741614514 292.7427050607257
s 5.695018776444302 -6.685456824521573 12.380475600965875 -6.685456824521573
S 122.88612536338316 269.46741093090986 122.88612536338316 292.7427050607257
z" fill="none" stroke="none"></path>
<circle cx="0" cy="0" r="4.661207059232011" fill="#c9c5d5">
  <animateMotion begin="-4.7415378895572236s" dur="10s" repeatCount="indefinite">
    <mpath xlink:href="#path5"></mpath>
  </animateMotion>
</circle><path id="path6" d="M 1794.972105635965 796.3026396086474
c 0 31.133911706160827 -7.617872013209563 8.942719319854707 -16.56059133306427 8.942719319854707
S 1761.8509229698366 827.4365513148082 1761.8509229698366 796.3026396086474
s 7.617872013209563 -8.942719319854707 16.56059133306427 -8.942719319854707
S 1794.972105635965 765.1687279024866 1794.972105635965 796.3026396086474
z" fill="none" stroke="none"></path>
<circle cx="0" cy="0" r="4.321289184895056" fill="#a8a4b9">
  <animateMotion begin="-2.0259333838664872s" dur="10s" repeatCount="indefinite">
    <mpath xlink:href="#path6"></mpath>
  </animateMotion>
</circle><path id="path7" d="M 1271.3523929865628 271.0763256377099
c 0 29.84239977114633 -7.301863773791123 8.571753125754796 -15.873616899545919 8.571753125754796
S 1239.6051591874711 300.91872540885623 1239.6051591874711 271.0763256377099
s 7.301863773791123 -8.571753125754796 15.873616899545919 -8.571753125754796
S 1271.3523929865628 241.23392586656357 1271.3523929865628 271.0763256377099
z" fill="none" stroke="none"></path>
<circle cx="0" cy="0" r="4.818774529602154" fill="#31395a">
  <animateMotion begin="-2.801281257350201s" dur="10s" repeatCount="indefinite">
    <mpath xlink:href="#path7"></mpath>
  </animateMotion>
</circle><path id="path8" d="M 1399.541969367541 993.4130758345142
c 0 24.22898336714033 -5.928368270683271 6.9593888394977546 -12.887757110181026 6.9593888394977546
S 1373.7664551471792 1017.6420592016545 1373.7664551471792 993.4130758345142
s 5.928368270683271 -6.9593888394977546 12.887757110181026 -6.9593888394977546
S 1399.541969367541 969.1840924673738 1399.541969367541 993.4130758345142
z" fill="none" stroke="none"></path>
<circle cx="0" cy="0" r="4.796165325920262" fill="#a8a4b9">
  <animateMotion begin="-0.24952554191217224s" dur="10s" repeatCount="indefinite">
    <mpath xlink:href="#path8"></mpath>
  </animateMotion>
</circle><path id="path9" d="M 997.9285081431298 1148.825290926722
c 0 37.09141396760629 -9.07555873675473 10.653916777929467 -19.729475514684196 10.653916777929467
S 958.4695571137614 1185.9167048943282 958.4695571137614 1148.825290926722
s 9.07555873675473 -10.653916777929467 19.729475514684196 -10.653916777929467
S 997.9285081431298 1111.7338769591156 997.9285081431298 1148.825290926722
z" fill="none" stroke="none"></path>
<circle cx="0" cy="0" r="3.8557006999706367" fill="#31395a">
  <animateMotion begin="-3.6807249633492s" dur="10s" repeatCount="indefinite">
    <mpath xlink:href="#path9"></mpath>
  </animateMotion>
</circle><path id="path10" d="M 873.7734104262697 367.27232020419007
c 0 32.60345630296609 -7.9774414358321275 9.364822555107281 -17.342263990939408 9.364822555107281
S 839.088882444391 399.87577650715616 839.088882444391 367.27232020419007
s 7.9774414358321275 -9.364822555107281 17.342263990939408 -9.364822555107281
S 873.7734104262697 334.668863901224 873.7734104262697 367.27232020419007
z" fill="none" stroke="none"></path>
<circle cx="0" cy="0" r="3.1615267701633516" fill="#a8a4b9">
  <animateMotion begin="-5.725569133704456s" dur="10s" repeatCount="indefinite">
    <mpath xlink:href="#path10"></mpath>
  </animateMotion>
</circle><path id="path11" d="M 1740.3036033196088 438.7768444804138
c 0 26.776201597698904 -6.551623795181646 7.691036629126281 -14.242660424307926 7.691036629126281
S 1711.8182824709932 465.5530460781127 1711.8182824709932 438.7768444804138
s 6.551623795181646 -7.691036629126281 14.242660424307926 -7.691036629126281
S 1740.3036033196088 412.0006428827149 1740.3036033196088 438.7768444804138
z" fill="none" stroke="none"></path>
<circle cx="0" cy="0" r="3.2797746880607055" fill="#31395a">
  <animateMotion begin="-6.69213453405354s" dur="10s" repeatCount="indefinite">
    <mpath xlink:href="#path11"></mpath>
  </animateMotion>
</circle><path id="path12" d="M 446.6626682344137 886.5670249702484
c 0 28.866808420503155 -7.063155251825239 8.29153007822963 -15.354685330054869 8.29153007822963
S 415.953297574304 915.4338333907516 415.953297574304 886.5670249702484
s 7.063155251825239 -8.29153007822963 15.354685330054869 -8.29153007822963
S 446.6626682344137 857.7002165497453 446.6626682344137 886.5670249702484
z" fill="none" stroke="none"></path>
<circle cx="0" cy="0" r="2.8718781584801008" fill="#a8a4b9">
  <animateMotion begin="-4.0554033554194335s" dur="10s" repeatCount="indefinite">
    <mpath xlink:href="#path12"></mpath>
  </animateMotion>
</circle><path id="path13" d="M 1725.0788166115096 592.881524076956
c 0 30.316843556464775 -7.417951082964785 8.708029532176052 -16.12598061514084 8.708029532176052
S 1692.826855381228 623.1983676334207 1692.826855381228 592.881524076956
s 7.417951082964785 -8.708029532176052 16.12598061514084 -8.708029532176052
S 1725.0788166115096 562.5646805204913 1725.0788166115096 592.881524076956
z" fill="none" stroke="none"></path>
<circle cx="0" cy="0" r="3.8250891849962465" fill="#c9c5d5">
  <animateMotion begin="-5.78529752138111s" dur="10s" repeatCount="indefinite">
    <mpath xlink:href="#path13"></mpath>
  </animateMotion>
</circle><path id="path14" d="M 1910.9476044319822 658.355434461269
c 0 26.932276897543378 -6.5898124323776335 7.7358667684433104 -14.325679200820945 7.7358667684433104
S 1882.2962460303402 685.2877113588124 1882.2962460303402 658.355434461269
s 6.5898124323776335 -7.7358667684433104 14.325679200820945 -7.7358667684433104
S 1910.9476044319822 631.4231575637257 1910.9476044319822 658.355434461269
z" fill="none" stroke="none"></path>
<circle cx="0" cy="0" r="4.266779682459147" fill="#31395a">
  <animateMotion begin="-5.785921284360782s" dur="10s" repeatCount="indefinite">
    <mpath xlink:href="#path14"></mpath>
  </animateMotion>
</circle><path id="path15" d="M 763.708362616044 826.2079098264745
c 0 37.53603368623556 -9.1843486679087 10.781626697110214 -19.965975365018917 10.781626697110214
S 723.7764118860061 863.7439435127101 723.7764118860061 826.2079098264745
s 9.1843486679087 -10.781626697110214 19.965975365018917 -10.781626697110214
S 763.708362616044 788.671876140239 763.708362616044 826.2079098264745
z" fill="none" stroke="none"></path>
<circle cx="0" cy="0" r="4.865699653924335" fill="#31395a">
  <animateMotion begin="-9.209293422185276s" dur="10s" repeatCount="indefinite">
    <mpath xlink:href="#path15"></mpath>
  </animateMotion>
</circle><path id="path16" d="M 1079.5828545726497 224.54798554032212
c 0 35.91316538771076 -8.787263871461144 10.315483675193517 -19.102747546654662 10.315483675193517
S 1041.3773594793404 260.4611509280329 1041.3773594793404 224.54798554032212
s 8.787263871461144 -10.315483675193517 19.102747546654662 -10.315483675193517
S 1079.5828545726497 188.63482015261135 1079.5828545726497 224.54798554032212
z" fill="none" stroke="none"></path>
<circle cx="0" cy="0" r="3.289632399537064" fill="#a8a4b9">
  <animateMotion begin="-4.1730954204546045s" dur="10s" repeatCount="indefinite">
    <mpath xlink:href="#path16"></mpath>
  </animateMotion>
</circle><path id="path17" d="M 1526.6305256324665 120.35508705228297
c 0 34.698326115822226 -8.490015964509693 9.966540480076597 -18.45655644458629 9.966540480076597
S 1489.7174127432938 155.05341316810518 1489.7174127432938 120.35508705228297
s 8.490015964509693 -9.966540480076597 18.45655644458629 -9.966540480076597
S 1526.6305256324665 85.65676093646074 1526.6305256324665 120.35508705228297
z" fill="none" stroke="none"></path>
<circle cx="0" cy="0" r="4.2882963399426925" fill="#c9c5d5">
  <animateMotion begin="-5.101201543908454s" dur="10s" repeatCount="indefinite">
    <mpath xlink:href="#path17"></mpath>
  </animateMotion>
</circle><path id="path18" d="M 1881.049282870684 383.7121731558438
c 0 31.404360084874234 -7.684045552681993 9.020401300974514 -16.704446853656506 9.020401300974514
S 1847.640389163371 415.116533240718 1847.640389163371 383.7121731558438
s 7.684045552681993 -9.020401300974514 16.704446853656506 -9.020401300974514
S 1881.049282870684 352.3078130709696 1881.049282870684 383.7121731558438
z" fill="none" stroke="none"></path>
<circle cx="0" cy="0" r="4.8119028965919854" fill="#a8a4b9">
  <animateMotion begin="-6.705755405935623s" dur="10s" repeatCount="indefinite">
    <mpath xlink:href="#path18"></mpath>
  </animateMotion>
</circle><path id="path19" d="M 1484.285500007972 903.5542024043548
c 0 31.25841051724141 -7.648334488261194 8.978479616654447 -16.626814104915642 8.978479616654447
S 1451.0318717981406 934.8126129215962 1451.0318717981406 903.5542024043548
s 7.648334488261194 -8.978479616654447 16.626814104915642 -8.978479616654447
S 1484.285500007972 872.2957918871134 1484.285500007972 903.5542024043548
z" fill="none" stroke="none"></path>
<circle cx="0" cy="0" r="4.75920764064996" fill="#31395a">
  <animateMotion begin="-0.5665542982906091s" dur="10s" repeatCount="indefinite">
    <mpath xlink:href="#path19"></mpath>
  </animateMotion>
</circle></g>
</svg>