<svg xmlns="http://www.w3.org/2000/svg" xmlns:xlink="http://www.w3.org/1999/xlink" style="margin:auto;background:rgba(255, 255, 255, 0);display:block;z-index:1;position:relative" width="2560" height="1336" preserveAspectRatio="xMidYMid" viewBox="0 0 2560 1336">
<g transform="translate(1280,668) scale(1,1) translate(-1280,-668)"><path id="path0" d="M 219.0724599968877 443.27860279572707
c 0 24.36735739019652 -5.9622257444097855 6.999134569524532 -12.961360313934318 6.999134569524532
S 193.14973936901907 467.64596018592357 193.14973936901907 443.27860279572707
s 5.9622257444097855 -6.999134569524532 12.961360313934318 -6.999134569524532
S 219.0724599968877 418.91124540553056 219.0724599968877 443.27860279572707
z" fill="none" stroke="none"></path>
<circle cx="0" cy="0" r="4.513516798935086" fill="#c9c5d5">
  <animateMotion begin="-9.253832905004572s" dur="10s" repeatCount="indefinite">
    <mpath xlink:href="#path0"></mpath>
  </animateMotion>
</circle><path id="path1" d="M 1066.6676209848322 1280.9041713996614
c 0 20.69045875401853 -5.06255905683432 5.943004110196812 -11.00556316703113 5.943004110196812
S 1044.65649465077 1301.5946301536799 1044.65649465077 1280.9041713996614
s 5.06255905683432 -5.943004110196812 11.00556316703113 -5.943004110196812
S 1066.6676209848322 1260.213712645643 1066.6676209848322 1280.9041713996614
z" fill="none" stroke="none"></path>
<circle cx="0" cy="0" r="3.4076051845734687" fill="#a8a4b9">
  <animateMotion begin="-9.281307990083205s" dur="10s" repeatCount="indefinite">
    <mpath xlink:href="#path1"></mpath>
  </animateMotion>
</circle><path id="path2" d="M 1037.2491964102373 69.80220084908247
c 0 22.474847491584224 -5.499164811770608 6.455541300774192 -11.9547061125448 6.455541300774192
S 1013.3397841851478 92.2770483406667 1013.3397841851478 69.80220084908247
s 5.499164811770608 -6.455541300774192 11.9547061125448 -6.455541300774192
S 1037.2491964102373 47.32735335749824 1037.2491964102373 69.80220084908247
z" fill="none" stroke="none"></path>
<circle cx="0" cy="0" r="3.1663889210531626" fill="#c9c5d5">
  <animateMotion begin="-5.062913798018702s" dur="10s" repeatCount="indefinite">
    <mpath xlink:href="#path2"></mpath>
  </animateMotion>
</circle><path id="path3" d="M 1955.5347467395432 156.4905920202107
c 0 36.98583278507103 -9.049725043155677 10.623590268052318 -19.673315311207993 10.623590268052318
S 1916.1881161171273 193.47642480528174 1916.1881161171273 156.4905920202107
s 9.049725043155677 -10.623590268052318 19.673315311207993 -10.623590268052318
S 1955.5347467395432 119.50475923513966 1955.5347467395432 156.4905920202107
z" fill="none" stroke="none"></path>
<circle cx="0" cy="0" r="3.346730026523642" fill="#c9c5d5">
  <animateMotion begin="-0.10240539041218133s" dur="10s" repeatCount="indefinite">
    <mpath xlink:href="#path3"></mpath>
  </animateMotion>
</circle><path id="path4" d="M 297.9917554308401 655.0539872021492
c 0 28.677667062948352 -7.0168759834873615 8.237202241485166 -15.254078224972528 8.237202241485166
S 267.483598980895 683.7316542650975 267.483598980895 655.0539872021492
s 7.0168759834873615 -8.237202241485166 15.254078224972528 -8.237202241485166
S 297.9917554308401 626.3763201392009 297.9917554308401 655.0539872021492
z" fill="none" stroke="none"></path>
<circle cx="0" cy="0" r="4.730913606089149" fill="#a8a4b9">
  <animateMotion begin="-3.305003880460926s" dur="10s" repeatCount="indefinite">
    <mpath xlink:href="#path4"></mpath>
  </animateMotion>
</circle><path id="path5" d="M 242.48339780648527 634.8195460350228
c 0 22.11028487907415 -5.40996332147559 6.35082650781917 -11.76078982929476 6.35082650781917
S 218.96181814789574 656.9298309140969 218.96181814789574 634.8195460350228
s 5.40996332147559 -6.35082650781917 11.76078982929476 -6.35082650781917
S 242.48339780648527 612.7092611559486 242.48339780648527 634.8195460350228
z" fill="none" stroke="none"></path>
<circle cx="0" cy="0" r="2.854272187127341" fill="#a8a4b9">
  <animateMotion begin="-7.763913467255681s" dur="10s" repeatCount="indefinite">
    <mpath xlink:href="#path5"></mpath>
  </animateMotion>
</circle><path id="path6" d="M 1881.2438653288107 324.49884703599054
c 0 26.442417894885352 -6.4699533147059896 7.5951625868287715 -14.065115901534762 7.5951625868287715
S 1853.1136335257413 350.9412649308759 1853.1136335257413 324.49884703599054
s 6.4699533147059896 -7.5951625868287715 14.065115901534762 -7.5951625868287715
S 1881.2438653288107 298.0564291411052 1881.2438653288107 324.49884703599054
z" fill="none" stroke="none"></path>
<circle cx="0" cy="0" r="2.5066048919152295" fill="#c9c5d5">
  <animateMotion begin="-7.214381990695371s" dur="10s" repeatCount="indefinite">
    <mpath xlink:href="#path6"></mpath>
  </animateMotion>
</circle><path id="path7" d="M 1760.7546851220511 941.9194510529525
c 0 32.54764683042448 -7.963785926593224 9.348792174696396 -17.31257810128962 9.348792174696396
S 1726.129528919472 974.4670978833769 1726.129528919472 941.9194510529525
s 7.963785926593224 -9.348792174696396 17.31257810128962 -9.348792174696396
S 1760.7546851220511 909.371804222528 1760.7546851220511 941.9194510529525
z" fill="none" stroke="none"></path>
<circle cx="0" cy="0" r="3.336225614779553" fill="#c9c5d5">
  <animateMotion begin="-1.0520064847013644s" dur="10s" repeatCount="indefinite">
    <mpath xlink:href="#path7"></mpath>
  </animateMotion>
</circle><path id="path8" d="M 2027.8551746514024 1070.2989348676263
c 0 33.53153731539239 -8.204525087808776 9.631399016123348 -17.835924103932122 9.631399016123348
S 1992.1833264435384 1103.8304721830186 1992.1833264435384 1070.2989348676263
s 8.204525087808776 -9.631399016123348 17.835924103932122 -9.631399016123348
S 2027.8551746514024 1036.767397552234 2027.8551746514024 1070.2989348676263
z" fill="none" stroke="none"></path>
<circle cx="0" cy="0" r="3.965424468444225" fill="#a8a4b9">
  <animateMotion begin="-2.2852280652801205s" dur="10s" repeatCount="indefinite">
    <mpath xlink:href="#path8"></mpath>
  </animateMotion>
</circle><path id="path9" d="M 1332.1173863435113 138.3200171233668
c 0 20.913916928829323 -5.117234993224195 6.007188905089274 -11.12442389831347 6.007188905089274
S 1309.868538546884 159.2339340521961 1309.868538546884 138.3200171233668
s 5.117234993224195 -6.007188905089274 11.12442389831347 -6.007188905089274
S 1332.1173863435113 117.40610019453747 1332.1173863435113 138.3200171233668
z" fill="none" stroke="none"></path>
<circle cx="0" cy="0" r="3.857525626111013" fill="#c9c5d5">
  <animateMotion begin="-9.18501670858047s" dur="10s" repeatCount="indefinite">
    <mpath xlink:href="#path9"></mpath>
  </animateMotion>
</circle><path id="path10" d="M 2022.1005201545715 26.9285551736761
c 0 26.19121381892738 -6.40848848760989 7.523008224585524 -13.931496712195415 7.523008224585524
S 1994.2375267301807 53.11976899260348 1994.2375267301807 26.9285551736761
s 6.40848848760989 -7.523008224585524 13.931496712195415 -7.523008224585524
S 2022.1005201545715 0.7373413547487182 2022.1005201545715 26.9285551736761
z" fill="none" stroke="none"></path>
<circle cx="0" cy="0" r="3.1659422984509122" fill="#a8a4b9">
  <animateMotion begin="-7.252572131228085s" dur="10s" repeatCount="indefinite">
    <mpath xlink:href="#path10"></mpath>
  </animateMotion>
</circle><path id="path11" d="M 2394.9938576669797 449.46415071352686
c 0 31.68566118847279 -7.752874546115681 9.1012005541358 -16.85407510025148 9.1012005541358
S 2361.2857074664767 481.14981190199967 2361.2857074664767 449.46415071352686
s 7.752874546115681 -9.1012005541358 16.85407510025148 -9.1012005541358
S 2394.9938576669797 417.77848952505406 2394.9938576669797 449.46415071352686
z" fill="none" stroke="none"></path>
<circle cx="0" cy="0" r="2.546510332323325" fill="#a8a4b9">
  <animateMotion begin="-0.48366274509112905s" dur="10s" repeatCount="indefinite">
    <mpath xlink:href="#path11"></mpath>
  </animateMotion>
</circle><path id="path12" d="M 1959.606045583957 1006.1705478354494
c 0 34.303620661246676 -8.393439097964611 9.853167636741066 -18.246606734705676 9.853167636741066
S 1923.1128321145457 1040.4741684966962 1923.1128321145457 1006.1705478354494
s 8.393439097964611 -9.853167636741066 18.246606734705676 -9.853167636741066
S 1959.606045583957 971.8669271742027 1959.606045583957 1006.1705478354494
z" fill="none" stroke="none"></path>
<circle cx="0" cy="0" r="3.360515123449227" fill="#a8a4b9">
  <animateMotion begin="-3.9849357559529297s" dur="10s" repeatCount="indefinite">
    <mpath xlink:href="#path12"></mpath>
  </animateMotion>
</circle><path id="path13" d="M 2127.69317539207 904.2109378536998
c 0 37.25359844677529 -9.115242173147145 10.700501681520564 -19.81574385466771 10.700501681520564
S 2088.0616876827344 941.4645363004751 2088.0616876827344 904.2109378536998
s 9.115242173147145 -10.700501681520564 19.81574385466771 -10.700501681520564
S 2127.69317539207 866.9573394069245 2127.69317539207 904.2109378536998
z" fill="none" stroke="none"></path>
<circle cx="0" cy="0" r="3.0767456469845933" fill="#c9c5d5">
  <animateMotion begin="-5.761396796329505s" dur="10s" repeatCount="indefinite">
    <mpath xlink:href="#path13"></mpath>
  </animateMotion>
</circle><path id="path14" d="M 1152.7306420262237 623.7968023549662
c 0 34.32306628801598 -8.398197070471994 9.858753082727995 -18.256950153199988 9.858753082727995
S 1116.2167417198236 658.1198686429822 1116.2167417198236 623.7968023549662
s 8.398197070471994 -9.858753082727995 18.256950153199988 -9.858753082727995
S 1152.7306420262237 589.4737360669502 1152.7306420262237 623.7968023549662
z" fill="none" stroke="none"></path>
<circle cx="0" cy="0" r="3.9905577034102406" fill="#c9c5d5">
  <animateMotion begin="-8.337443859418816s" dur="10s" repeatCount="indefinite">
    <mpath xlink:href="#path14"></mpath>
  </animateMotion>
</circle><path id="path15" d="M 2318.0679243480863 275.09779565016964
c 0 31.121304464766624 -7.614787262655662 8.939098090943604 -16.553885353599266 8.939098090943604
S 2284.960153640888 306.2191001149363 2284.960153640888 275.09779565016964
s 7.614787262655662 -8.939098090943604 16.553885353599266 -8.939098090943604
S 2318.0679243480863 243.976491185403 2318.0679243480863 275.09779565016964
z" fill="none" stroke="none"></path>
<circle cx="0" cy="0" r="4.302514682354174" fill="#a8a4b9">
  <animateMotion begin="-5.105164428059954s" dur="10s" repeatCount="indefinite">
    <mpath xlink:href="#path15"></mpath>
  </animateMotion>
</circle><path id="path16" d="M 724.7951650115331 909.4126178626623
c 0 20.444673168171473 -5.002420030510041 5.872406122772657 -10.874826153282697 5.872406122772657
S 703.0455127049677 929.8572910308337 703.0455127049677 909.4126178626623
s 5.002420030510041 -5.872406122772657 10.874826153282697 -5.872406122772657
S 724.7951650115331 888.9679446944908 724.7951650115331 909.4126178626623
z" fill="none" stroke="none"></path>
<circle cx="0" cy="0" r="4.192690454803241" fill="#c9c5d5">
  <animateMotion begin="-6.806780435020158s" dur="10s" repeatCount="indefinite">
    <mpath xlink:href="#path16"></mpath>
  </animateMotion>
</circle><path id="path17" d="M 1555.4458409859442 1252.1428365190009
c 0 23.214315429688572 -5.680098456200395 6.667941665974378 -12.348040122174773 6.667941665974378
S 1530.7497607415946 1275.3571519486895 1530.7497607415946 1252.1428365190009
s 5.680098456200395 -6.667941665974378 12.348040122174773 -6.667941665974378
S 1555.4458409859442 1228.9285210893122 1555.4458409859442 1252.1428365190009
z" fill="none" stroke="none"></path>
<circle cx="0" cy="0" r="4.136802950222887" fill="#c9c5d5">
  <animateMotion begin="-3.4455969321613322s" dur="10s" repeatCount="indefinite">
    <mpath xlink:href="#path17"></mpath>
  </animateMotion>
</circle><path id="path18" d="M 1476.710096860813 487.3369430295106
c 0 20.370549023585987 -4.9842832717284855 5.851115145072571 -10.835398416801056 5.851115145072571
S 1455.0393000272109 507.7074920530966 1455.0393000272109 487.3369430295106
s 4.9842832717284855 -5.851115145072571 10.835398416801056 -5.851115145072571
S 1476.710096860813 466.96639400592466 1476.710096860813 487.3369430295106
z" fill="none" stroke="none"></path>
<circle cx="0" cy="0" r="4.136778469068104" fill="#31395a">
  <animateMotion begin="-7.9995596561425275s" dur="10s" repeatCount="indefinite">
    <mpath xlink:href="#path18"></mpath>
  </animateMotion>
</circle><path id="path19" d="M 2030.1524524703843 457.76565959441393
c 0 33.234573848690786 -8.131863814041361 9.546100999092035 -17.677964813133396 9.546100999092035
S 1994.7965228441174 491.0002334431047 1994.7965228441174 457.76565959441393
s 8.131863814041361 -9.546100999092035 17.677964813133396 -9.546100999092035
S 2030.1524524703843 424.53108574572315 2030.1524524703843 457.76565959441393
z" fill="none" stroke="none"></path>
<circle cx="0" cy="0" r="3.606762073952572" fill="#a8a4b9">
  <animateMotion begin="-8.82040679349781s" dur="10s" repeatCount="indefinite">
    <mpath xlink:href="#path19"></mpath>
  </animateMotion>
</circle></g>
</svg>