<svg width="1140" height="180" viewBox="0 0 1140 180" fill="none" xmlns="http://www.w3.org/2000/svg">
<path d="M1066.93 19.0004C1078.09 18.6981 1088.57 19.9587 1099.08 21.7781C1117.83 25.0275 1128.83 36.5746 1133.45 54.1621C1140.28 80.1576 1140.11 106.343 1132.34 132.168C1126.32 152.146 1112.84 163.756 1091.93 167.085C1079.84 169.009 1067.78 168.982 1055.65 168.997C1043.82 169.011 1031.98 169.047 1020.15 168.983C1010.57 168.932 1008.89 167.175 1008.88 157.647C1008.88 114.342 1008.88 71.0375 1008.89 27.7327C1008.89 20.5132 1009.42 20.4136 1016.53 19.9232C1033.16 18.777 1049.79 19.0464 1066.93 19.0004Z" fill="#002D64"/>
<path d="M942.796 56.438C941.116 43.4141 931.823 41.0438 922.778 39.8849C911.121 38.3913 899.561 39.7253 887.981 40.1226C880.736 40.3711 873.525 41.7489 866.312 42.712C864.263 42.9855 862.394 43.2245 860.802 41.4549C859.206 39.68 860.163 37.9625 860.825 36.3392C864.681 26.874 872.065 21.8972 881.861 20.036C896.691 17.2185 911.69 17.8774 926.637 18.1314C932.044 18.2233 937.525 19.2867 942.806 20.5809C958.62 24.4559 964.736 36.0508 965.787 51.0706C966.648 63.3737 964.328 75.1321 958.462 86.1183C956.96 88.9332 957.956 91.5517 959.809 93.9609C967.442 103.883 970.368 115.232 969.846 127.584C968.774 152.889 956.662 166.242 931.372 169.076C916.729 170.717 902.089 169.897 887.46 169.832C880.577 169.801 873.579 168.554 867.053 165.921C860.546 163.297 856.989 157.896 854.963 151.58C853.881 148.208 855.184 145.555 859.49 146.013C866.406 146.75 873.299 147.807 880.232 148.251C891.277 148.959 902.255 151.118 913.443 149.222C918.303 148.398 923.36 148.946 928.311 148.037C936.585 146.517 943.043 143.279 944.988 134.108C946.324 127.807 946.509 121.436 945.292 115.313C943.375 105.675 937.674 102.058 926.118 102.018C907.773 101.953 889.428 102.01 871.083 101.993C864.653 101.987 862.955 99.0077 865.7 93.1239C869.291 85.4265 874.736 81.5352 883.685 81.8714C897.008 82.372 910.379 81.5917 923.7 82.1175C936.644 82.6284 941.072 77.4874 942.786 63.3744C943.045 61.2403 942.816 59.0471 942.796 56.438Z" fill="#002D64"/>
<path d="M680.498 76.4943C682.677 105.035 681.155 133.184 681.579 161.309C681.681 168.052 680.631 168.993 673.735 169.042C671.066 169.061 668.378 169.215 665.732 168.965C660.138 168.438 658.589 166.634 658.584 160.973C658.569 139.806 658.652 118.639 658.528 97.473C658.495 91.8454 657.673 86.2687 655.71 80.902C654.211 76.8038 651.266 74.2411 647.262 73.1479C632.95 69.24 618.585 71.3537 604.292 73.3433C600.198 73.9132 599.664 77.7511 599.58 81.1337C599.423 87.4632 599.527 93.7992 599.526 100.133C599.524 120.799 599.537 141.466 599.516 162.132C599.511 167.69 598.337 168.916 592.848 169.033C573.411 169.449 576.564 168.288 576.538 153.426C576.454 106.26 576.504 59.0929 576.509 11.9264C576.51 4.01084 577.509 2.9984 585.379 3.00699C601.083 3.02413 599.498 1.48796 599.523 17.2527C599.539 27.7526 599.6 38.2534 599.491 48.7522C599.446 53.1551 600.628 54.9164 605.649 54.1758C615.63 52.7034 625.716 51.4924 635.788 51.2023C645.03 50.936 654.543 51.2101 663.304 54.4831C673.033 58.1181 678.652 65.7543 680.498 76.4943Z" fill="#002D64"/>
<path d="M373.435 170C363.669 169.441 354.517 168.36 345.661 165.189C335.086 161.403 328.451 153.827 325.401 143.488C319.459 123.342 319.359 102.993 324.923 82.6593C329.556 65.7261 340.46 55.7882 357.757 52.7173C372.133 50.165 386.451 50.024 400.742 53.2687C414.155 56.3137 421.268 65.4348 424.164 78.1724C426.444 88.1999 427.47 98.4383 427.361 108.749C427.282 116.222 426.452 116.997 418.965 116.998C398.292 117.002 377.618 116.996 356.945 117.001C344.107 117.005 342.497 119.107 345.674 131.671C348.288 142.008 354.965 147.705 365.604 148.985C382.055 150.965 398.378 150.222 414.652 147.242C416.996 146.813 419.98 145.941 421.659 148.3C423.355 150.681 422.046 153.32 421.003 155.853C417.083 165.381 408.845 167.726 399.812 168.995C391.206 170.204 382.562 169.974 373.435 170Z" fill="#002D64"/>
<path d="M814.438 61.2285C823.537 69.542 825.742 80.607 827.484 91.5316C829.821 106.197 829.195 120.925 825.669 135.447C820.608 156.294 809.512 166.699 788.224 169.835C774.858 171.804 761.41 171.994 748.148 168.895C731.623 165.034 721.104 155.221 717.43 138.197C713.586 120.383 713.363 102.678 717.824 85.0346C722.775 65.4521 734.935 54.8851 755.591 52.0945C770.492 50.0813 785.377 50.0581 800.071 53.9085C805.276 55.2722 809.916 57.7493 814.438 61.2285Z" fill="#002D64"/>
<path d="M534.231 167.983C516.452 170.958 499.037 171.608 481.972 166.82C466.653 162.521 458.593 151.131 455.631 136.051C452.334 119.267 452.27 102.452 456.422 85.7302C461.382 65.7574 475.247 54.0216 495.712 51.9109C508.513 50.5907 521.238 50.6328 534 52.0184C543.133 53.01 549.776 59.8212 549.512 67.7611C549.372 71.9931 547.086 73.5793 543.356 72.8797C531.828 70.7174 520.197 71.0274 508.567 70.98C503.367 70.9588 498.29 71.8992 493.362 73.2588C485.831 75.3366 481.444 80.8137 479.29 88.1188C474.812 103.305 475.267 118.659 478.663 133.889C480.607 142.606 489.499 147.823 500.424 149.092C515.268 150.815 529.882 149.843 544.486 147.195C548.57 146.455 550.38 148.43 549.291 152.828C547.363 160.618 543.133 166.395 534.231 167.983Z" fill="#002D64"/>
<path d="M1096.08 143.3C1089.52 146.389 1082.93 147.92 1076.06 147.96C1070.08 147.994 1064.22 149.3 1058.19 149.097C1051.22 148.861 1044.34 147.565 1037.32 147.88C1033.61 148.046 1031.83 145.912 1031.84 141.859C1031.96 109.903 1031.95 77.947 1031.86 45.9912C1031.85 41.5613 1033.55 40.3252 1038.02 39.8075C1048.49 38.5938 1058.95 39.0459 1069.4 39.0883C1076.5 39.1172 1083.56 40.0719 1090.54 41.6847C1098.03 43.4167 1103.28 47.6266 1106.73 54.4114C1110.08 61.0121 1112.17 68.036 1112.5 75.3291C1113.34 94.1916 1114.88 113.216 1106.47 131.088C1104.19 135.935 1101.29 140.38 1096.08 143.3Z" fill="white"/>
<path d="M379.332 100.001C369.513 100 360.191 99.8673 350.876 100.062C346.903 100.144 344.942 99.0013 345.275 94.712C346.654 76.9272 353.593 70.9158 369.709 69.1846C375.723 68.5385 381.916 68.4848 388.046 69.8814C398.136 72.1803 402.096 76.183 403.025 86.9703C404.216 100.808 405.003 100.05 391.814 100.003C387.82 99.9891 383.826 100.001 379.332 100.001Z" fill="white"/>
<path d="M805.707 116.882C805.846 124.624 804.214 131.64 801.374 138.158C797.488 147.076 789.318 150.34 780.325 150.817C772.907 151.209 765.425 151.553 757.943 150.156C749.559 148.591 743.24 144.887 740.833 136.352C736.045 119.373 735.561 102.368 741.477 85.5293C745.193 74.9507 754.199 71.4154 764.097 70.276C771.81 69.3883 779.67 69.5751 787.416 71.3347C796.649 73.432 801.214 79.6493 803.771 88.1751C806.56 97.4707 805.464 106.966 805.707 116.882Z" fill="white"/>
<path d="M47.5 43.9999C12.6044 56.5623 3 89 3 109C3 117 5 138.5 21 153.5C24.4123 156.154 27.3787 157.299 32 158C57 155 71.121 143.693 82.5 106C90.5 79.5 99.6667 56.7355 104 48.3532C91.3265 41.9867 70.3768 35.7643 47.5 43.9999Z" fill="url(#paint0_linear_307_20898)"/>
<path d="M102 97.4997C102.383 95.9658 114 60.4998 116.5 56.9998C116.821 56.551 112.101 52.4226 104 48.353C99.6667 56.7353 90.5 79.4999 82.5 106C71.121 143.693 57 155 32 158C39.5676 159.147 49.0505 158.621 53.5 158C65 157 76.9 148 84.5 138.5C93 127.875 101.5 99.4997 102 97.4997Z" fill="url(#paint1_linear_307_20898)"/>
<path d="M102 97.4994C102.383 95.9654 114 60.4994 116.5 56.9994C165.5 -39.0003 284.5 1.99998 290.5 83.9995C292.951 117.5 278 171 236.5 177C220.595 179.299 107.5 178.395 74 177C45.2 175.8 26.6667 160.833 21 153.5C24.4123 156.154 27.3787 157.299 32 157.999C39.5676 159.147 49.0505 158.62 53.5 157.999C65 156.999 76.9 147.999 84.5 138.499C93 127.874 101.5 99.4994 102 97.4994Z" fill="#11BBFC"/>
<defs>
<linearGradient id="paint0_linear_307_20898" x1="59.7577" y1="40.0508" x2="59.7577" y2="158.864" gradientUnits="userSpaceOnUse">
<stop stop-color="#00B4F8"/>
<stop offset="0.765625" stop-color="#0091DF"/>
</linearGradient>
<linearGradient id="paint1_linear_307_20898" x1="59.7577" y1="40.0508" x2="59.7577" y2="158.864" gradientUnits="userSpaceOnUse">
<stop stop-color="#126DA5"/>
<stop offset="1" stop-color="#12609B"/>
</linearGradient>
</defs>
</svg>
