<svg width="840" height="212" viewBox="0 0 840 212" fill="none" xmlns="http://www.w3.org/2000/svg">
<path d="M820 97.8701V83.8009H802.529V61.9286L801.941 62.1097L785.531 67.1307L785.207 67.229V83.8017H759.306V74.5692C759.306 70.2703 760.267 66.9805 762.162 64.7866C764.043 62.6189 766.734 61.5169 770.166 61.5169C772.633 61.5169 775.188 62.0981 777.758 63.2442L778.403 63.5321V48.7153L778.1 48.6039C775.702 47.7418 772.44 47.3076 768.396 47.3076C763.3 47.3076 758.67 48.4166 754.632 50.6144C750.591 52.8154 747.413 55.9573 745.186 59.9521C742.968 63.9423 741.842 68.5507 741.842 73.6506V83.8009H729.676V97.8701H741.842V157.141H759.306V97.8701H785.207V135.536C785.207 151.048 792.524 158.91 806.955 158.91C809.326 158.91 811.822 158.632 814.37 158.088C816.964 157.529 818.731 156.971 819.771 156.375L820.001 156.239V142.04L819.291 142.509C818.343 143.141 817.162 143.657 815.779 144.041C814.389 144.432 813.228 144.627 812.329 144.627C808.948 144.627 806.447 143.717 804.896 141.919C803.326 140.105 802.53 136.933 802.53 132.495V97.8701H820ZM690.676 144.63C684.337 144.63 679.339 142.528 675.817 138.388C672.273 134.226 670.478 128.294 670.478 120.756C670.478 112.979 672.273 106.893 675.819 102.658C679.343 98.4513 684.293 96.3162 690.533 96.3162C696.589 96.3162 701.409 98.3554 704.862 102.38C708.333 106.426 710.094 112.464 710.094 120.331C710.094 128.295 708.438 134.413 705.172 138.505C701.929 142.567 697.052 144.63 690.676 144.63ZM691.452 82.0341C679.358 82.0341 669.753 85.5778 662.904 92.5667C656.06 99.5564 652.59 109.229 652.59 121.319C652.59 132.802 655.977 142.038 662.659 148.767C669.34 155.498 678.434 158.908 689.683 158.908C701.406 158.908 710.821 155.315 717.666 148.229C724.511 141.151 727.979 131.57 727.979 119.763C727.979 108.1 724.725 98.7949 718.304 92.1109C711.88 85.4238 702.844 82.0341 691.452 82.0341ZM624.432 82.0341C616.205 82.0341 609.401 84.1383 604.202 88.2871C598.973 92.4607 596.32 97.9344 596.32 104.558C596.32 108.001 596.892 111.059 598.019 113.654C599.153 116.256 600.907 118.548 603.238 120.471C605.551 122.378 609.122 124.376 613.854 126.409C617.831 128.046 620.798 129.431 622.682 130.522C624.524 131.591 625.831 132.666 626.569 133.713C627.287 134.738 627.65 136.14 627.65 137.871C627.65 142.798 623.961 145.195 616.368 145.195C613.552 145.195 610.339 144.607 606.821 143.448C603.327 142.306 600.029 140.634 597.043 138.491L596.318 137.971V154.785L596.584 154.909C599.055 156.049 602.171 157.011 605.843 157.768C609.508 158.526 612.838 158.911 615.731 158.911C624.658 158.911 631.846 156.797 637.092 152.623C642.37 148.421 645.046 142.818 645.046 135.965C645.046 131.022 643.606 126.782 640.767 123.363C637.948 119.972 633.054 116.859 626.23 114.107C620.792 111.925 617.309 110.113 615.872 108.722C614.487 107.379 613.783 105.479 613.783 103.073C613.783 100.94 614.651 99.2314 616.434 97.8477C618.23 96.457 620.73 95.7497 623.866 95.7497C626.776 95.7497 629.753 96.2094 632.714 97.1102C635.672 98.011 638.271 99.2175 640.44 100.693L641.154 101.181V85.2311L640.88 85.1134C638.879 84.2552 636.24 83.5208 633.034 82.9249C629.844 82.3329 626.949 82.0341 624.432 82.0341ZM550.791 144.63C544.454 144.63 539.455 142.528 535.933 138.388C532.389 134.226 530.597 128.295 530.597 120.756C530.597 112.979 532.391 106.893 535.937 102.658C539.459 98.4513 544.408 96.3162 550.651 96.3162C556.705 96.3162 561.525 98.3554 564.979 102.38C568.45 106.426 570.21 112.464 570.21 120.331C570.21 128.295 568.554 134.413 565.288 138.505C562.044 142.567 557.17 144.63 550.791 144.63ZM551.57 82.0341C539.473 82.0341 529.867 85.5778 523.022 92.5667C516.178 99.5564 512.705 109.229 512.705 121.319C512.705 132.806 516.095 142.038 522.777 148.767C529.458 155.498 538.551 158.908 549.801 158.908C561.522 158.908 570.939 155.315 577.784 148.229C584.628 141.151 588.097 131.57 588.097 119.763C588.097 108.1 584.842 98.7949 578.42 92.1109C571.994 85.4238 562.96 82.0341 551.57 82.0341ZM486.195 96.5019V83.8009H468.944V157.14H486.195V119.624C486.195 113.245 487.642 108.004 490.496 104.046C493.313 100.135 497.068 98.1526 501.653 98.1526C503.207 98.1526 504.951 98.4088 506.84 98.9157C508.71 99.4195 510.064 99.9666 510.863 100.542L511.588 101.068V83.6755L511.308 83.5556C509.702 82.873 507.429 82.5286 504.553 82.5286C500.218 82.5286 496.338 83.9216 493.015 86.6643C490.099 89.0749 487.991 92.3802 486.379 96.5019H486.195ZM438.049 82.0341C430.135 82.0341 423.076 83.7313 417.071 87.0768C411.054 90.43 406.401 95.2173 403.235 101.305C400.083 107.377 398.482 114.471 398.482 122.381C398.482 129.311 400.034 135.67 403.101 141.274C406.169 146.888 410.512 151.28 416.01 154.326C421.5 157.368 427.845 158.91 434.87 158.91C443.069 158.91 450.069 157.271 455.681 154.039L455.908 153.909V138.104L455.183 138.633C452.64 140.485 449.799 141.963 446.743 143.028C443.693 144.092 440.914 144.63 438.476 144.63C431.707 144.63 426.273 142.512 422.328 138.336C418.375 134.154 416.371 128.283 416.371 120.895C416.371 113.46 418.461 107.438 422.58 102.994C426.687 98.5635 432.132 96.3162 438.761 96.3162C444.431 96.3162 449.956 98.2362 455.184 102.028L455.908 102.554V85.9005L455.674 85.7689C453.707 84.6677 451.024 83.7583 447.693 83.0688C444.376 82.3808 441.132 82.0341 438.049 82.0341ZM386.601 83.8017H369.349V157.14H386.601V83.8017ZM378.152 52.5592C375.312 52.5592 372.836 53.5258 370.801 55.4411C368.758 57.3619 367.722 59.7803 367.722 62.6344C367.722 65.4436 368.746 67.8179 370.77 69.6876C372.78 71.5519 375.264 72.4968 378.152 72.4968C381.04 72.4968 383.533 71.5519 385.568 69.6907C387.615 67.8179 388.654 65.4444 388.654 62.6344C388.654 59.8801 387.643 57.4865 385.652 55.5185C383.662 53.5544 381.138 52.5592 378.152 52.5592ZM335.108 78.3907V157.14H352.714V54.8042H328.347L297.374 130.816L267.317 54.8042H241.958V157.139H258.503V78.3829H259.071L290.81 157.14H303.296L334.54 78.3907H335.108Z" fill="#706D6E"/>
<path d="M101.156 101.763H20V20.6074H101.156V101.763Z" fill="#F1511B"/>
<path d="M190.761 101.763H109.606V20.6074H190.761V101.763Z" fill="#80CC28"/>
<path d="M101.153 191.4H20V110.245H101.153V191.4Z" fill="#00ADEF"/>
<path d="M190.761 191.4H109.606V110.245H190.761V191.4Z" fill="#FBBC09"/>
</svg>
