<svg width="387.207" height="75.979" viewBox="0 0 387.207 75.979" xmlns="http://www.w3.org/2000/svg"><g id="svgGroup" stroke-linecap="round" fill-rule="evenodd" font-size="9pt" stroke="#000" stroke-width="0.25mm" fill="#000" style="stroke:#000;stroke-width:0.25mm;fill:#000"><path d="M 312.354 22.168 L 323.535 22.168 L 323.877 27.686 A 18.25 18.25 0 0 1 336.049 21.366 A 26.026 26.026 0 0 1 339.111 21.191 Q 349.707 21.191 353.613 29.297 A 18.342 18.342 0 0 1 366.94 21.356 A 24.574 24.574 0 0 1 369.824 21.191 Q 375.921 21.191 379.843 23.543 A 12.647 12.647 0 0 1 382.837 26.025 Q 386.197 29.827 386.975 36.466 A 36.037 36.037 0 0 1 387.207 40.283 L 387.207 75 L 375.342 75 L 375.342 40.625 Q 375.342 37.629 374.562 35.586 A 7.03 7.03 0 0 0 373.145 33.252 A 6.471 6.471 0 0 0 370.724 31.671 Q 369.684 31.266 368.378 31.076 A 17.482 17.482 0 0 0 365.869 30.908 A 12.354 12.354 0 0 0 362.93 31.24 A 8.845 8.845 0 0 0 359.253 33.081 A 11.23 11.23 0 0 0 355.947 37.905 A 13.871 13.871 0 0 0 355.664 38.77 L 355.713 75 L 343.848 75 L 343.848 40.234 A 13.565 13.565 0 0 0 343.273 36.487 Q 341.945 32.303 337.576 31.257 A 13.977 13.977 0 0 0 334.326 30.908 A 13.585 13.585 0 0 0 330.276 31.476 A 9.966 9.966 0 0 0 324.219 36.719 L 324.219 75 L 312.354 75 L 312.354 22.168 Z M 201.025 22.168 L 212.207 22.168 L 212.549 28.271 A 18.764 18.764 0 0 1 226.177 21.254 A 24.301 24.301 0 0 1 227.93 21.191 A 20.551 20.551 0 0 1 234.973 22.3 Q 244.505 25.768 244.727 40.088 L 244.727 75 L 232.861 75 L 232.861 40.771 A 18.489 18.489 0 0 0 232.675 38.049 Q 232.225 35.034 230.688 33.325 A 6.501 6.501 0 0 0 228.099 31.611 Q 226.242 30.908 223.584 30.908 A 12.422 12.422 0 0 0 218.625 31.86 Q 215.73 33.106 213.755 35.985 A 15.784 15.784 0 0 0 212.891 37.402 L 212.891 75 L 201.025 75 L 201.025 22.168 Z M 289.111 75 L 288.818 69.824 A 16.997 16.997 0 0 1 278.642 75.568 A 25.396 25.396 0 0 1 273.975 75.977 Q 267.196 75.977 263.015 72.847 A 13.474 13.474 0 0 1 260.962 70.947 A 16.23 16.23 0 0 1 257.754 65.133 Q 256.969 62.7 256.693 59.749 A 36.027 36.027 0 0 1 256.543 56.396 L 256.543 22.168 L 268.408 22.168 L 268.408 56.25 A 17.703 17.703 0 0 0 268.766 59.984 Q 269.944 65.419 274.998 66.183 A 11.766 11.766 0 0 0 276.758 66.309 Q 285.4 66.309 288.428 60.107 L 288.428 22.168 L 300.293 22.168 L 300.293 75 L 289.111 75 Z M 131.982 75 L 119.873 75 Q 119.229 73.752 118.718 71.209 A 40.514 40.514 0 0 1 118.506 70.068 A 18.423 18.423 0 0 1 105.149 75.971 A 22.455 22.455 0 0 1 104.639 75.977 A 22.778 22.778 0 0 1 98.761 75.256 A 16.956 16.956 0 0 1 91.65 71.436 A 15.096 15.096 0 0 1 87.735 66.027 A 14.978 14.978 0 0 1 86.621 60.205 A 18.076 18.076 0 0 1 87.467 54.532 A 14.345 14.345 0 0 1 92.896 47.241 Q 99.17 42.725 110.84 42.725 L 118.115 42.725 L 118.115 39.258 Q 118.115 35.156 115.82 32.69 A 7.165 7.165 0 0 0 112.762 30.785 Q 111.6 30.4 110.181 30.279 A 15.907 15.907 0 0 0 108.838 30.225 A 13.271 13.271 0 0 0 105.909 30.531 A 9.232 9.232 0 0 0 102.197 32.251 A 7.054 7.054 0 0 0 100.498 34.117 A 6.173 6.173 0 0 0 99.609 37.402 L 87.744 37.402 A 12.876 12.876 0 0 1 89.93 30.257 A 16.331 16.331 0 0 1 90.625 29.272 A 18.192 18.192 0 0 1 95.975 24.597 A 22.974 22.974 0 0 1 98.462 23.34 A 26.106 26.106 0 0 1 106.179 21.361 A 32.142 32.142 0 0 1 109.521 21.191 A 29.922 29.922 0 0 1 115.673 21.787 Q 119.496 22.59 122.447 24.477 A 17.484 17.484 0 0 1 124.316 25.854 A 15.565 15.565 0 0 1 129.617 35.213 A 22.671 22.671 0 0 1 129.98 38.965 L 129.98 62.793 A 41.459 41.459 0 0 0 130.196 67.161 Q 130.427 69.336 130.906 71.154 A 17.54 17.54 0 0 0 131.982 74.17 L 131.982 75 Z M 27.051 48.584 L 12.354 48.584 L 12.354 75 L 0 75 L 0 3.906 L 27.197 3.906 A 37.052 37.052 0 0 1 35.047 4.69 Q 40.168 5.8 44.045 8.482 A 22.096 22.096 0 0 1 46.118 10.107 A 20.436 20.436 0 0 1 53.063 24.635 A 28.167 28.167 0 0 1 53.125 26.514 A 25.509 25.509 0 0 1 52.239 33.425 A 18.538 18.538 0 0 1 46.265 42.773 A 22.749 22.749 0 0 1 38.031 47.131 Q 34.729 48.13 30.777 48.442 A 47.349 47.349 0 0 1 27.051 48.584 Z M 145.41 9.326 L 157.275 9.326 L 157.275 22.168 L 166.602 22.168 L 166.602 30.957 L 157.275 30.957 L 157.275 60.449 Q 157.275 63.477 158.472 64.819 A 3.36 3.36 0 0 0 159.693 65.663 Q 160.87 66.162 162.744 66.162 A 18.278 18.278 0 0 0 166.895 65.674 L 166.895 74.854 A 31.041 31.041 0 0 1 161.762 75.838 A 26.344 26.344 0 0 1 159.082 75.977 Q 145.41 75.977 145.41 60.889 L 145.41 30.957 L 136.719 30.957 L 136.719 22.168 L 145.41 22.168 L 145.41 9.326 Z M 75.391 0 L 75.391 75 L 63.525 75 L 63.525 0 L 75.391 0 Z M 188.281 22.168 L 188.281 75 L 176.416 75 L 176.416 22.168 L 188.281 22.168 Z M 12.354 13.867 L 12.354 38.672 L 27.197 38.672 A 22.471 22.471 0 0 0 31.012 38.369 Q 34.872 37.703 37.256 35.571 A 10.007 10.007 0 0 0 40.294 30.39 Q 40.696 28.779 40.721 26.867 A 19.499 19.499 0 0 0 40.723 26.611 A 15.318 15.318 0 0 0 40.228 22.616 A 11.243 11.243 0 0 0 37.207 17.407 Q 33.774 14.046 27.826 13.874 A 22.037 22.037 0 0 0 27.539 13.867 L 12.354 13.867 Z M 118.115 60.156 L 118.115 50.195 L 111.719 50.195 A 30.591 30.591 0 0 0 108.27 50.377 Q 104.417 50.815 102.074 52.313 A 8.876 8.876 0 0 0 101.807 52.49 A 7.285 7.285 0 0 0 98.567 57.719 A 9.599 9.599 0 0 0 98.486 58.984 A 8.304 8.304 0 0 0 98.833 61.442 A 6.506 6.506 0 0 0 100.757 64.429 A 7.71 7.71 0 0 0 104.171 66.164 Q 105.316 66.437 106.656 66.454 A 14.113 14.113 0 0 0 106.836 66.455 A 13.497 13.497 0 0 0 113.452 64.746 Q 116.553 63.037 118.115 60.156 Z M 176.036 6.169 A 7.081 7.081 0 0 0 175.684 8.447 A 8.007 8.007 0 0 0 175.694 8.861 A 6.063 6.063 0 0 0 177.417 12.915 A 5.28 5.28 0 0 0 178.254 13.614 Q 179.184 14.241 180.419 14.505 A 9.347 9.347 0 0 0 182.373 14.697 A 11.243 11.243 0 0 0 182.71 14.692 Q 185.689 14.603 187.354 12.915 A 5.917 5.917 0 0 0 188.732 10.749 A 6.738 6.738 0 0 0 189.111 8.447 A 8.12 8.12 0 0 0 189.096 7.943 A 6.141 6.141 0 0 0 187.354 3.906 A 5.408 5.408 0 0 0 186.688 3.325 Q 185.705 2.599 184.373 2.303 A 9.217 9.217 0 0 0 182.373 2.1 A 11.115 11.115 0 0 0 182.061 2.104 Q 180.982 2.134 180.077 2.377 A 5.614 5.614 0 0 0 177.417 3.906 A 6.014 6.014 0 0 0 176.036 6.169 Z" vector-effect="non-scaling-stroke"/></g></svg>