<?xml version="1.0" standalone="no"?>
<!DOCTYPE svg PUBLIC "-//W3C//DTD SVG 20010904//EN"
 "http://www.w3.org/TR/2001/REC-SVG-20010904/DTD/svg10.dtd">
<svg version="1.0" xmlns="http://www.w3.org/2000/svg"
 width="512.000000pt" height="512.000000pt" viewBox="0 0 512.000000 512.000000"
 preserveAspectRatio="xMidYMid meet">

<g transform="translate(0.000000,512.000000) scale(0.100000,-0.100000)"
fill="#1d1d1d" stroke="none">
<path d="M2115 4611 c-106 -48 -177 -191 -204 -411 -23 -185 -8 -277 48 -295
27 -8 28 -51 2 -64 -32 -18 -37 -58 -29 -245 5 -136 11 -184 23 -202 20 -31
11 -84 -21 -121 l-24 -28 2 -263 c1 -165 -2 -266 -9 -273 -5 -5 -23 -11 -38
-12 -50 -4 -69 48 -109 292 -20 119 -42 224 -51 237 -8 13 -26 26 -40 30 -27
7 -27 9 -45 199 -5 61 -17 157 -27 215 -15 95 -19 108 -48 136 -49 46 -52 68
-16 110 17 19 31 45 32 57 4 103 -24 255 -66 362 -59 147 -131 218 -251 245
-164 37 -276 -157 -261 -450 7 -135 23 -226 44 -258 8 -13 30 -30 48 -38 42
-17 53 -55 29 -103 -16 -32 -15 -37 11 -140 41 -153 82 -272 104 -295 25 -29
44 -111 31 -136 -8 -15 1 -55 39 -177 28 -87 57 -178 65 -202 21 -57 20 -64
-3 -51 -33 17 -98 11 -177 -15 -205 -69 -273 -137 -274 -272 0 -47 -4 -63 -14
-63 -23 0 -167 -99 -229 -158 -118 -113 -138 -210 -77 -372 17 -47 47 -142 65
-212 18 -70 42 -140 53 -155 11 -16 48 -94 82 -173 170 -399 358 -662 535
-750 69 -34 73 -35 225 -40 101 -3 163 -10 178 -18 27 -16 108 -8 404 38 204
32 248 48 295 104 38 46 251 446 302 567 45 106 49 133 24 161 -15 17 -15 23
7 86 77 225 72 214 94 207 213 -68 412 -93 597 -75 331 32 611 159 846 383
124 119 209 234 283 382 101 204 137 346 147 575 7 181 -12 325 -66 489 -68
208 -168 374 -320 534 -202 212 -481 361 -771 413 -126 23 -353 22 -480 0
-182 -33 -389 -116 -541 -218 l-66 -44 -6 105 c-10 198 -75 335 -186 393 -62
33 -109 35 -166 9z m150 -65 c50 -30 87 -81 116 -161 18 -49 23 -89 26 -221 4
-113 2 -168 -6 -183 -19 -34 -52 -42 -107 -25 -57 17 -148 18 -225 2 -44 -9
-64 -9 -83 0 -25 11 -26 14 -26 110 0 175 38 335 101 421 59 82 128 101 204
57z m-979 -40 c89 -41 147 -132 188 -296 36 -143 42 -221 19 -249 -17 -20 -28
-22 -128 -24 -97 -2 -117 -6 -172 -31 -67 -30 -105 -30 -122 2 -29 55 -41 334
-18 433 26 109 92 189 156 189 14 0 49 -11 77 -24z m1004 -611 c40 -20 31 -50
-13 -41 -16 3 -76 6 -133 6 -83 0 -104 3 -104 14 0 13 25 24 85 40 34 8 134
-3 165 -19z m-842 -47 c3 -26 0 -28 -30 -28 -30 -1 -129 -17 -216 -36 -32 -7
-33 -6 -30 22 3 25 11 32 58 51 44 18 71 22 135 20 79 -2 80 -2 83 -29z m877
-57 l30 -7 -2 -104 c-2 -94 -15 -216 -30 -277 -5 -22 -10 -23 -98 -23 -106 0
-193 14 -214 35 -10 10 -17 58 -23 177 -5 90 -6 173 -3 186 5 22 8 22 158 21
83 -1 166 -4 182 -8z m-806 -44 c13 -34 53 -322 49 -354 -3 -24 -9 -30 -53
-40 -64 -17 -205 -28 -238 -19 -23 5 -30 19 -60 114 -61 191 -74 252 -57 262
29 18 232 57 308 59 36 1 44 -3 51 -22z m1033 -431 c3 -148 14 -176 68 -176
54 0 65 28 68 176 l4 134 39 0 39 0 0 -132 c0 -151 -11 -187 -69 -225 -45 -30
-122 -31 -169 -3 -51 32 -62 70 -62 225 l0 135 39 0 39 0 4 -134z m548 99 l0
-35 -50 0 -50 0 0 -155 0 -155 -40 0 -40 0 0 155 0 155 -50 0 -50 0 0 35 0 35
140 0 140 0 0 -35z m209 -77 c17 -62 31 -120 32 -128 0 -8 16 38 35 104 19 65
37 122 40 127 3 5 29 9 59 9 l53 0 6 -67 c3 -38 8 -123 12 -190 l6 -123 -40 0
c-50 0 -52 5 -52 170 l-1 125 -35 -115 c-19 -63 -37 -127 -40 -142 -6 -25 -11
-28 -45 -28 -22 0 -39 2 -39 4 0 2 -15 63 -34 135 l-33 132 -8 -141 -7 -140
-40 0 -41 0 6 83 c4 45 9 130 13 190 l7 107 57 0 58 0 31 -112z m-1133 -15
c110 -6 114 -7 114 -29 0 -13 -3 -25 -7 -27 -10 -5 -184 9 -224 18 -23 5 -29
12 -29 32 0 19 4 24 16 19 9 -3 67 -9 130 -13z m-594 -47 c4 -22 0 -26 -36
-35 -50 -12 -225 -35 -231 -30 -2 2 -6 16 -10 30 -6 26 -6 26 72 33 43 4 103
13 133 20 64 15 66 14 72 -18z m523 -56 c39 -5 102 -10 140 -10 39 0 76 -4 84
-9 26 -17 -3 -342 -38 -434 -6 -15 -23 -32 -38 -38 -35 -14 -151 -5 -219 15
l-51 16 -7 52 c-8 72 -8 413 1 422 4 4 19 4 33 1 14 -3 57 -9 95 -15z m-447
-32 c6 -7 20 -74 32 -148 12 -74 28 -171 35 -215 12 -73 12 -81 -3 -93 -34
-26 -119 -43 -199 -40 l-78 3 -72 220 c-40 120 -69 223 -65 227 5 5 46 13 93
19 46 5 111 16 144 23 80 18 101 18 113 4z m1542 -279 l0 -80 22 15 c31 22 90
20 120 -4 36 -28 51 -72 46 -132 -5 -44 -11 -57 -42 -85 -41 -37 -95 -45 -134
-17 -20 14 -22 14 -22 0 0 -12 -11 -16 -41 -16 -33 0 -40 3 -35 16 3 9 6 99 6
200 l0 184 40 0 40 0 0 -81z m834 55 c31 -30 13 -74 -30 -74 -12 0 -27 7 -34
15 -16 19 -5 62 18 68 29 8 30 8 46 -9z m-1344 -12 c60 -30 71 -121 20 -164
-20 -16 -20 -19 -5 -41 8 -13 24 -54 34 -91 l18 -66 -42 0 c-46 0 -53 10 -70
85 -9 40 -33 65 -62 65 -22 0 -23 -3 -23 -75 l0 -75 -40 0 -40 0 0 190 0 190
88 0 c63 0 97 -5 122 -18z m1170 -52 c0 -38 2 -40 30 -40 27 0 30 -3 30 -30 0
-27 -3 -30 -30 -30 -30 0 -30 -1 -30 -54 0 -70 7 -86 36 -86 21 0 24 -5 24
-35 0 -35 0 -35 -45 -35 -35 0 -52 6 -70 25 -22 21 -25 33 -25 100 0 68 -2 77
-20 82 -14 4 -20 14 -20 34 0 22 5 29 20 29 16 0 20 7 20 30 0 25 5 31 33 39
17 5 35 10 40 10 4 1 7 -17 7 -39z m-853 -60 c62 -37 82 -124 43 -188 -38 -62
-138 -81 -201 -39 -41 28 -59 60 -59 110 0 80 58 137 140 137 27 0 58 -8 77
-20z m640 0 c62 -37 82 -124 43 -188 -38 -62 -138 -81 -201 -39 -41 28 -59 60
-59 110 0 80 58 137 140 137 27 0 58 -8 77 -20z m403 -115 l0 -135 -40 0 -40
0 0 135 0 135 40 0 40 0 0 -135z m263 127 c3 -4 3 -19 0 -35 -5 -24 -10 -27
-46 -27 -51 0 -77 -22 -77 -66 0 -45 22 -64 75 -64 39 0 43 -3 48 -27 7 -35
-5 -43 -69 -43 -112 0 -173 91 -130 195 19 45 75 74 143 75 28 0 54 -3 56 -8z
m222 -4 c3 -3 3 -17 0 -30 -5 -21 -12 -24 -48 -24 -55 1 -59 -14 -11 -38 57
-27 74 -45 74 -81 0 -47 -37 -77 -102 -83 -29 -2 -65 1 -80 7 -23 9 -26 14
-19 38 6 21 13 27 27 24 10 -3 35 -5 54 -5 46 -1 47 25 2 38 -96 27 -109 124
-22 159 17 7 117 3 125 -5z m-2765 -176 c-8 -2 -79 -33 -158 -69 -78 -37 -144
-64 -146 -62 -2 2 -6 22 -8 45 l-6 41 97 6 c70 3 113 12 156 29 33 14 64 22
70 19 5 -2 2 -7 -5 -9z m-433 -7 c1 -5 -31 -30 -73 -54 -77 -44 -175 -127
-197 -165 -6 -11 -14 -46 -17 -76 -6 -54 -6 -55 -20 -28 -7 15 -26 33 -42 40
-26 12 -28 17 -28 68 0 97 48 143 210 202 75 27 160 34 167 13z m950 -41 c-3
-3 -35 3 -73 13 l-68 18 69 10 c69 10 70 10 73 -13 2 -13 1 -26 -1 -28z m-275
16 c13 -5 172 -57 353 -116 182 -58 333 -109 338 -113 4 -4 3 -20 -3 -37 l-10
-29 -103 0 c-97 0 -106 -2 -177 -36 -41 -20 -96 -55 -122 -78 -25 -22 -55 -41
-67 -41 -35 0 -149 47 -208 87 -139 92 -221 311 -135 358 31 16 100 19 134 5z
m-225 -51 c-9 -33 12 -128 41 -187 36 -74 90 -133 167 -181 67 -43 195 -91
239 -91 63 0 -10 -86 -92 -110 -21 -5 -100 -1 -244 16 -117 13 -242 24 -277
24 l-63 0 6 44 c11 72 -23 229 -78 356 -5 12 24 31 130 83 148 72 180 81 171
46z m-377 -101 c109 -232 128 -394 55 -472 -30 -32 -80 -34 -144 -5 -69 31
-123 81 -185 170 -52 77 -55 84 -40 101 12 13 15 29 11 60 -7 49 7 79 55 124
43 41 168 124 186 124 7 0 35 -45 62 -102z m1387 -166 l30 -37 -38 3 c-32 3
-42 0 -61 -23 -89 -107 -91 -109 -132 -95 -46 15 -97 6 -154 -26 l-43 -25 -41
32 -41 33 24 19 c13 11 53 34 89 51 59 28 74 31 155 30 50 -1 99 -3 109 -5 15
-3 26 7 44 39 13 23 25 42 26 42 1 0 16 -17 33 -38z m-1832 4 c18 -13 15 -18
-54 -92 -139 -149 -197 -262 -174 -341 5 -21 13 -45 17 -55 12 -26 -29 -33
-67 -11 -80 47 -110 195 -55 278 45 69 145 154 243 205 66 35 65 34 90 16z
m101 -221 c142 -304 119 -523 -50 -485 -55 12 -120 55 -169 111 -39 44 -44 55
-35 74 7 16 5 32 -6 60 -38 89 -3 168 148 333 38 41 39 42 53 22 8 -12 35 -63
59 -115z m1810 103 l75 -21 -7 -31 c-3 -17 -31 -94 -61 -171 -30 -77 -77 -198
-105 -270 -28 -71 -54 -134 -58 -138 -9 -10 -150 29 -167 46 -6 7 -31 113 -54
236 -41 216 -42 224 -24 237 30 22 83 28 125 14 48 -16 67 -5 132 70 24 27 49
50 56 50 8 0 47 -10 88 -22z m-521 -128 l22 -21 -46 -225 c-45 -217 -48 -226
-78 -249 l-31 -25 -44 20 c-60 27 -93 25 -221 -16 -286 -93 -507 -238 -625
-411 -52 -77 -72 -126 -72 -177 0 -72 39 -117 217 -257 56 -44 111 -93 122
-108 l20 -28 -79 -6 c-137 -11 -225 26 -341 144 -119 121 -252 341 -363 602
-48 114 -54 137 -33 137 21 0 151 65 166 83 10 13 30 17 75 17 110 0 162 58
173 193 6 70 7 72 64 130 53 55 60 59 90 53 41 -8 108 10 136 36 40 37 108 40
333 13 113 -14 230 -25 261 -25 75 0 151 38 192 97 17 23 33 43 36 43 2 0 14
-9 26 -20z m-1087 -119 c1 -4 -14 -22 -33 -41 -26 -26 -35 -30 -35 -17 0 10
-11 49 -24 87 l-24 69 56 -46 c31 -25 58 -49 60 -52z m1192 -201 c17 -90 36
-170 42 -177 6 -7 49 -25 97 -40 47 -14 90 -29 94 -33 10 -9 -14 -100 -26
-100 -13 0 -278 137 -305 158 l-23 18 38 187 c24 117 41 181 45 170 4 -10 21
-92 38 -183z m-1642 -80 c37 -36 78 -73 91 -81 25 -16 25 -16 -48 -52 -80 -40
-102 -44 -120 -23 -10 12 -61 200 -61 225 0 6 15 7 36 4 27 -4 52 -23 102 -73z
m1326 -146 c26 -10 19 -19 -39 -58 -52 -34 -59 -36 -140 -36 -97 0 -164 -19
-253 -72 -71 -42 -219 -182 -267 -252 -32 -47 -38 -65 -43 -124 -4 -56 0 -78
17 -117 12 -26 20 -50 18 -52 -2 -2 -29 24 -60 56 -51 53 -57 64 -57 102 0 56
45 134 134 226 117 124 284 223 495 294 112 37 162 46 195 33z m223 -36 c38
-23 128 -70 201 -105 72 -35 132 -69 132 -74 0 -36 -240 -510 -312 -617 -16
-23 -46 -51 -66 -61 -38 -19 -263 -58 -476 -83 l-109 -12 -57 61 c-87 95 -208
274 -219 325 -19 84 18 156 141 274 133 128 239 178 378 179 95 0 116 9 240
104 36 27 68 50 72 50 4 1 38 -18 75 -41z"/>
<path d="M3210 2771 c-26 -50 -4 -111 39 -111 36 0 55 23 55 65 0 18 -6 40
-13 49 -19 23 -68 21 -81 -3z"/>
<path d="M2567 2904 c-4 -4 -7 -29 -7 -56 0 -47 1 -48 30 -48 52 0 91 60 57
89 -18 14 -70 25 -80 15z"/>
<path d="M2896 2778 c-32 -45 -9 -128 34 -128 25 0 50 37 50 75 0 38 -25 75
-50 75 -10 0 -26 -10 -34 -22z"/>
<path d="M3536 2778 c-32 -45 -9 -128 34 -128 25 0 50 37 50 75 0 38 -25 75
-50 75 -10 0 -26 -10 -34 -22z"/>
</g>
</svg>
