<svg xmlns="http://www.w3.org/2000/svg" xmlns:xlink="http://www.w3.org/1999/xlink" version="1.1" id="Layer_1" x="0px" y="0px" width="100%" viewBox="0 0 2456 952" enable-background="new 0 0 2456 952" xml:space="preserve">
<path fill="#030303" opacity="1.000000" stroke="none" d=" M215.904602,692.160522   C211.778214,680.264832 207.739609,668.751465 203.593307,656.931091   C203.593307,700.458374 203.593307,743.501953 203.593307,786.777100   C195.968170,786.777100 188.023117,786.777100 179.815948,786.777100   C179.815948,733.500671 179.815948,680.242615 179.815948,626.268066   C188.546585,626.268066 197.135834,626.268127 205.725082,626.268127   C217.129089,626.268127 217.167328,626.254761 220.931290,637.086548   C233.845123,674.249512 246.729095,711.422791 259.628052,748.590942   C260.109009,749.976746 260.627228,751.349609 261.528534,753.830994   C266.650116,739.496460 271.378082,726.219788 276.136688,712.954102   C285.948853,685.600403 295.853058,658.279297 305.508026,630.870300   C306.783600,627.249023 308.485352,626.082214 312.260315,626.176147   C322.876373,626.440308 333.503296,626.268372 344.406281,626.268372   C344.406281,680.036560 344.406281,733.264343 344.406281,786.749451   C336.091766,786.749451 327.838715,786.749451 319.551941,786.749451   C319.551941,743.449280 319.551941,700.127625 319.551941,655.973022   C303.758057,700.029724 288.212952,743.392456 272.643768,786.822327   C264.544495,786.822327 256.580170,786.822327 248.510513,786.822327   C237.640961,755.308411 226.816666,723.925659 215.904602,692.160522  z"/>
<path fill="#030303" opacity="1.000000" stroke="none" d=" M611.950623,292.000000   C611.950623,263.955292 611.950623,236.410583 611.950623,209.245972   C596.604614,252.044312 581.062134,295.390625 565.488281,338.824341   C557.459961,338.824341 549.656372,338.824341 541.381531,338.824341   C526.518799,295.791321 511.602173,252.602188 496.428040,208.667496   C496.428040,252.527969 496.428040,295.486450 496.428040,338.726318   C488.836548,338.726318 480.905701,338.726318 472.642303,338.726318   C472.642303,285.519897 472.642303,232.284088 472.642303,178.268723   C478.850922,178.268723 484.942261,178.188919 491.030518,178.290833   C497.308746,178.395920 505.187958,176.456970 509.410126,179.506226   C513.643860,182.563812 514.332703,190.638519 516.394592,196.576996   C528.594055,231.712540 540.739624,266.866821 552.913818,302.011139   C553.226807,302.914551 553.660645,303.776093 554.431702,305.575806   C558.476135,294.359741 562.230652,284.003510 565.946228,273.633331   C576.756531,243.461304 587.611023,213.304764 598.275879,183.081345   C599.595520,179.341766 601.375854,178.027969 605.416138,178.156998   C615.876648,178.491089 626.354919,178.269043 637.147217,178.269043   C637.147217,231.896866 637.147217,285.139191 637.147217,338.694122   C628.983398,338.694122 620.756226,338.694122 611.950623,338.694122   C611.950623,323.351776 611.950623,307.925903 611.950623,292.000000  z"/>
<path fill="#020202" opacity="1.000000" stroke="none" d=" M1230.502686,682.496765   C1244.687256,705.444031 1258.651001,728.100525 1272.626221,750.749878   C1272.777222,750.994629 1273.079712,751.145996 1272.642944,750.778381   C1272.642944,730.645142 1272.643066,709.967590 1272.643066,689.290039   C1272.643066,668.491638 1272.642944,647.693298 1272.642944,626.584961   C1280.969238,626.584961 1288.858032,626.584961 1297.047852,626.584961   C1297.047852,680.026489 1297.047852,733.279480 1297.047852,787.002380   C1286.688354,787.002380 1276.404297,787.095703 1266.126953,786.878113   C1264.913940,786.852417 1263.348389,785.361694 1262.600098,784.147156   C1240.962891,749.027100 1219.412476,713.853577 1197.838745,678.694336   C1194.280762,672.895752 1190.679077,667.123840 1187.024902,661.222107   C1187.024902,703.097168 1187.024902,744.703674 1187.024902,786.657837   C1179.607788,786.657837 1171.567017,786.657837 1163.192261,786.657837   C1163.109863,784.930115 1162.965210,783.308594 1162.964844,781.687134   C1162.952881,731.694214 1163.015503,681.701111 1162.851074,631.708740   C1162.836426,627.238586 1164.072144,625.973328 1168.454346,626.174500   C1176.103882,626.525452 1183.786621,626.442932 1191.443970,626.191101   C1194.678589,626.084656 1196.493774,627.087158 1198.188232,629.891235   C1208.768555,647.400452 1219.560547,664.781799 1230.502686,682.496765  z"/>
<path fill="#030303" opacity="1.000000" stroke="none" d=" M379.744232,726.325806   C377.261200,706.551270 377.617004,687.404419 384.223999,668.793823   C393.191528,643.534119 411.312561,629.137207 437.541901,625.192627   C455.357880,622.513245 473.029907,623.313477 489.732544,631.158142   C507.419281,639.465027 518.423462,653.727234 523.731689,672.044922   C530.839905,696.573792 530.932068,721.298035 522.109314,745.548218   C512.597046,771.693604 489.927429,787.646545 462.083740,788.998718   C447.634705,789.700439 433.504974,788.916260 420.031342,783.313293   C397.793884,774.066101 386.420319,756.161255 381.084412,733.609741   C380.550354,731.352539 380.257172,729.038452 379.744232,726.325806  M463.512787,765.179138   C480.557465,762.649475 490.706879,752.205933 495.878174,736.445129   C501.015869,720.786804 501.422455,704.649048 498.780212,688.563843   C494.809601,664.392090 483.180450,649.649841 460.395233,647.440796   C437.329285,645.204407 418.500183,653.941895 411.054810,676.887207   C405.318542,694.565308 405.072266,712.664246 409.360199,730.518005   C416.351807,759.629150 436.721466,768.844482 463.512787,765.179138  z"/>
<path fill="#030303" opacity="1.000000" stroke="none" d=" M1755.172119,249.259827   C1756.431885,236.694061 1758.549805,224.817856 1763.792480,213.698761   C1772.251953,195.757721 1786.086792,184.079071 1805.205811,179.098709   C1822.372314,174.626938 1839.683105,174.530960 1856.827881,179.570145   C1879.917358,186.356567 1894.085083,202.231583 1900.625610,224.736206   C1907.603027,248.745163 1907.358276,272.938049 1899.167358,296.783936   C1890.532104,321.922821 1867.666992,339.133423 1841.118774,340.878510   C1826.044556,341.869415 1811.189697,341.301361 1797.029907,335.455444   C1774.980347,326.352295 1762.763794,308.921967 1758.234619,286.338776   C1755.842163,274.410400 1756.098389,261.950867 1755.172119,249.259827  M1784.073364,272.092865   C1784.376343,273.894989 1784.646362,275.703369 1784.987549,277.498230   C1787.167847,288.965607 1790.953491,299.660034 1799.907349,307.776733   C1809.576782,316.542419 1821.315430,318.579254 1833.808228,318.000854   C1850.942017,317.207581 1863.913696,309.648804 1870.575562,293.558685   C1878.451416,274.536011 1878.733154,254.766785 1874.256470,234.847824   C1869.714233,214.637390 1858.414551,201.370270 1836.750610,199.380051   C1813.994995,197.289505 1794.967651,205.776718 1787.487305,229.709915   C1783.248779,243.270660 1782.731689,257.157349 1784.073364,272.092865  z"/>
<path fill="#030303" opacity="1.000000" stroke="none" d=" M593.000000,626.270447   C609.131653,626.293823 624.777100,625.975952 640.113831,629.936584   C668.132141,637.171997 686.841553,658.111694 691.179077,686.761841   C694.279724,707.242493 693.318115,727.252136 684.699036,746.335571   C676.048706,765.488098 660.741455,777.379089 640.794922,782.456116   C629.652161,785.292358 617.892700,786.256897 606.349792,786.831482   C591.893555,787.550964 577.374207,787.004517 562.237366,787.004517   C562.148560,785.131104 561.994080,783.386475 561.993652,781.641846   C561.980713,731.655701 562.044983,681.669434 561.877930,631.683838   C561.862854,627.175293 563.168457,625.998962 567.510925,626.173401   C575.828491,626.507568 584.169006,626.270508 593.000000,626.270447  M645.825012,658.584656   C628.478516,646.667114 608.866943,649.287109 589.668457,648.980774   C589.668457,687.864746 589.668457,725.907104 589.668457,764.869385   C601.682312,764.110107 613.441345,764.341309 624.841553,762.431213   C644.834412,759.081482 657.973877,746.946838 661.922058,726.935242   C663.987000,716.468811 664.369934,705.421692 663.756775,694.737610   C662.955322,680.772217 657.950073,668.124146 645.825012,658.584656  z"/>
<path fill="#020202" opacity="1.000000" stroke="none" d=" M1375.388428,631.333984   C1394.160889,623.927124 1413.223389,622.307983 1432.593384,625.687134   C1442.489502,627.413513 1452.176025,630.341614 1462.897095,632.955688   C1459.365723,641.336609 1456.318481,648.568665 1453.139160,656.114197   C1447.565796,654.218140 1442.359253,652.150269 1436.989624,650.678101   C1423.148193,646.883484 1409.157471,645.675659 1395.206543,650.034119   C1378.341431,655.303040 1367.570312,666.934387 1362.383179,683.512573   C1356.960815,700.843018 1357.526489,718.391479 1363.383301,735.491699   C1370.100952,755.104675 1384.094604,764.145447 1402.714355,765.862366   C1414.121826,766.914368 1425.616089,766.328491 1436.795410,762.882629   C1436.795410,749.618347 1436.795410,736.503967 1436.795410,723.020874   C1425.709839,723.020874 1414.779907,723.020874 1403.393921,723.020874   C1403.393921,715.141907 1403.393921,707.615295 1403.393921,699.801880   C1423.188843,699.801880 1442.963501,699.801880 1463.116699,699.801880   C1463.116699,726.575012 1463.116699,753.313904 1463.116699,781.131165   C1454.030762,783.163452 1444.630615,785.762268 1435.059937,787.295959   C1418.736328,789.911682 1402.312378,790.567200 1385.959229,787.125916   C1360.361206,781.739136 1343.622681,766.230286 1335.907349,741.576294   C1329.434082,720.891357 1328.875366,699.738831 1334.648804,678.652222   C1340.688110,656.594910 1354.096558,640.808533 1375.388428,631.333984  z"/>
<path fill="#020202" opacity="1.000000" stroke="none" d=" M1938.783447,314.999847   C1938.783447,269.372955 1938.783447,224.246124 1938.783447,179.397507   C1939.383179,178.910339 1939.635742,178.525513 1939.888550,178.525284   C1963.153931,178.504700 1986.535767,176.533371 2009.585449,180.964630   C2026.584717,184.232712 2040.019897,192.976715 2043.821289,210.944733   C2048.990723,235.378265 2043.544189,254.872040 2017.151367,267.010956   C2016.567627,267.279480 2016.031860,267.651917 2014.905273,268.305786   C2029.912964,291.710968 2044.822632,314.963104 2060.234863,338.998871   C2050.040527,338.998871 2040.643921,339.125092 2031.258911,338.852997   C2029.958740,338.815308 2028.334106,337.042084 2027.503540,335.679779   C2016.078735,316.940796 2004.688232,298.179352 1993.506592,279.294800   C1991.697632,276.239441 1989.910278,274.773254 1986.200684,274.971100   C1979.735718,275.315979 1973.239014,275.067139 1966.240723,275.067139   C1966.240723,296.296844 1966.240723,317.350250 1966.240723,338.700684   C1956.988403,338.700684 1948.245117,338.700684 1938.783447,338.700684   C1938.783447,331.001923 1938.783447,323.250916 1938.783447,314.999847  M2002.493042,203.918701   C1990.660278,200.220169 1978.536987,201.506424 1966.330322,201.324402   C1966.330322,218.556229 1966.330322,235.293289 1966.330322,253.185318   C1977.506104,252.393845 1988.530029,252.425430 1999.248901,250.633026   C2010.718994,248.715057 2016.846313,240.466537 2017.947754,228.471832   C2019.032593,216.656311 2014.396729,208.948059 2002.493042,203.918701  z"/>
<path fill="#020202" opacity="1.000000" stroke="none" d=" M305.856567,179.480148   C305.974854,214.429184 306.135803,248.926346 305.947144,283.421600   C305.765625,316.617798 282.793243,339.671875 249.613708,340.997070   C236.852707,341.506744 224.324677,341.226044 212.309189,336.511261   C192.636230,328.791718 182.194305,313.777161 179.131729,293.324585   C178.323257,287.925385 178.213821,282.385681 178.198975,276.909332   C178.115387,246.079391 178.158646,215.249084 178.158646,184.418900   C178.158646,182.615921 178.158646,180.812958 178.158646,178.641907   C187.248230,178.641907 195.971649,178.641907 205.255859,178.641907   C205.255859,180.638947 205.255814,182.425598 205.255859,184.212250   C205.256683,215.709030 205.135178,247.206726 205.367188,278.701813   C205.410721,284.612946 206.118607,290.739075 207.816696,296.375305   C212.210846,310.960175 222.329620,316.327332 236.987732,317.898407   C241.414749,318.372864 246.024185,318.248138 250.432968,317.600586   C270.548370,314.646088 278.397461,301.774109 278.762360,282.601135   C279.383789,249.949570 278.938232,217.277725 278.940918,184.614395   C278.941071,182.793365 278.940948,180.972321 278.940948,179.027451   C288.071472,179.027451 296.908936,179.027451 305.856567,179.480148  z"/>
<path fill="#040404" opacity="1.000000" stroke="none" d=" M787.000122,691.811829   C795.977905,691.811829 804.455688,691.811829 813.285400,691.811829   C813.285400,699.533875 813.285400,706.902161 813.285400,714.637817   C793.448792,714.637817 773.856262,714.637817 753.864258,714.637817   C753.864258,731.195740 753.864258,747.396362 753.864258,763.976562   C774.842041,763.976562 795.944458,763.976562 817.451782,763.976562   C817.451782,771.708130 817.451782,779.077820 817.451782,786.731689   C787.276917,786.731689 757.053223,786.731689 726.168152,786.731689   C726.168152,784.886902 726.168091,783.109863 726.168091,781.332886   C726.168091,731.532654 726.234741,681.732239 726.059326,631.932617   C726.042786,627.239624 727.399841,626.127258 731.933594,626.162476   C758.747498,626.370728 785.563782,626.261292 812.379272,626.274475   C814.008850,626.275269 815.638367,626.411011 817.554626,626.496765   C817.554626,634.074951 817.554626,641.325317 817.554626,649.239685   C796.430969,649.239685 775.249084,649.239685 753.768433,649.239685   C753.768433,663.644775 753.768433,677.393494 753.768433,691.811829   C764.677490,691.811829 775.588745,691.811829 787.000122,691.811829  z"/>
<path fill="#050505" opacity="1.000000" stroke="none" d=" M1324.377075,499.324554   C1336.926147,468.167297 1349.369629,437.382782 1361.602661,406.514893   C1362.942017,403.135437 1364.656250,402.138733 1368.155396,402.179352   C1380.890381,402.327301 1380.891724,402.199615 1380.891724,414.959259   C1380.891724,462.110504 1380.891724,509.261719 1380.891724,556.412964   C1380.891724,558.386108 1380.891846,560.359314 1380.891846,562.669617   C1376.800903,562.669617 1373.096313,562.669617 1369.161865,562.669617   C1369.161865,514.848145 1369.161865,467.099396 1369.161865,419.350647   C1368.895264,419.262085 1368.628784,419.173553 1368.362183,419.084991   C1349.190430,467.029083 1330.018555,514.973206 1310.906738,562.767456   C1301.272827,563.410034 1301.220703,563.430786 1297.817749,554.888123   C1280.487915,511.384674 1263.188477,467.869171 1245.873413,424.359894   C1245.215210,422.705597 1244.506348,421.071503 1243.286133,418.145050   C1243.286133,467.126526 1243.286133,514.740173 1243.286133,562.681519   C1239.541748,562.681519 1235.976196,562.681519 1232.050781,562.681519   C1232.050781,509.562805 1232.050781,456.357483 1232.050781,402.332153   C1237.404785,402.332153 1242.822388,402.144775 1248.204834,402.496979   C1249.228394,402.563965 1250.461060,404.626770 1251.010010,406.002930   C1268.418823,449.651154 1285.752686,493.329285 1303.110107,536.998047   C1304.016724,539.278870 1305.031982,541.516541 1306.332886,544.561218   C1312.502930,529.068542 1318.356567,514.370728 1324.377075,499.324554  z"/>
<path fill="#030303" opacity="1.000000" stroke="none" d=" M1678.004883,250.660645   C1695.616333,250.660660 1712.729004,250.660660 1730.038086,250.660660   C1730.038086,258.353333 1730.038086,265.594940 1730.038086,273.195984   C1710.020142,273.195984 1690.256958,273.195984 1670.184082,273.195984   C1670.184082,295.145996 1670.184082,316.739868 1670.184082,338.669464   C1661.173340,338.669464 1652.469971,338.669464 1643.423218,338.669464   C1643.336548,336.966827 1643.182007,335.343231 1643.181641,333.719574   C1643.168823,283.742584 1643.225220,233.765411 1643.075317,183.788864   C1643.062256,179.457764 1644.083130,178.124695 1648.584473,178.160828   C1675.570312,178.377457 1702.558838,178.265015 1729.546387,178.276672   C1731.016357,178.277313 1732.486328,178.402115 1734.327759,178.486038   C1734.327759,186.094666 1734.327759,193.460907 1734.327759,201.240021   C1712.915527,201.240021 1691.662354,201.240021 1670.211914,201.240021   C1670.211914,217.763962 1670.211914,233.880936 1670.211914,250.660629   C1672.674072,250.660629 1675.090210,250.660629 1678.004883,250.660645  z"/>
<path fill="#040404" opacity="1.000000" stroke="none" d=" M408.000183,178.265060   C421.778259,178.265060 435.056366,178.265060 448.582031,178.265060   C448.582031,186.226822 448.582031,193.628952 448.582031,201.508575   C433.176849,201.508575 417.927887,201.508575 402.173035,201.508575   C402.173035,247.506760 402.173035,293.032806 402.173035,338.781555   C392.926819,338.781555 384.190826,338.781555 375.143127,338.781555   C375.143127,293.220490 375.143127,247.823624 375.143127,201.840515   C359.482483,201.840515 344.114166,201.840515 328.373901,201.840515   C328.373901,193.874908 328.373901,186.482971 328.373901,178.265060   C354.692596,178.265060 381.096375,178.265060 408.000183,178.265060  z"/>
<path fill="#030303" opacity="1.000000" stroke="none" d=" M878.422485,679.000488   C878.422485,707.468201 878.422485,735.435913 878.422485,763.841003   C900.910095,763.841003 923.145691,763.841003 945.756714,763.841003   C945.756714,771.646118 945.756714,779.028748 945.756714,786.711304   C914.493042,786.711304 883.122192,786.711304 851.118530,786.711304   C851.118530,784.831543 851.118530,783.052490 851.118530,781.273376   C851.118530,731.480530 851.189026,681.687500 851.005005,631.895325   C850.987305,627.123840 852.455505,625.950378 856.929871,626.176514   C863.873230,626.527466 870.847412,626.269287 878.422546,626.269287   C878.422546,643.961182 878.422546,661.230774 878.422485,679.000488  z"/>
<path fill="#020202" opacity="1.000000" stroke="none" d=" M1000.219299,738.000122   C1000.219299,746.801636 1000.219299,755.103149 1000.219299,764.114929   C1011.643005,764.114929 1022.733826,764.114929 1033.824707,764.114929   C1044.977661,764.114929 1056.130493,764.114929 1067.630859,764.114929   C1067.630859,771.611206 1067.630859,779.005188 1067.630859,786.702881   C1036.377197,786.702881 1004.985168,786.702881 973.238525,786.702881   C973.238525,733.471008 973.238525,680.252441 973.238525,626.653564   C982.030945,626.653564 990.763123,626.653564 1000.219299,626.653564   C1000.219299,663.671753 1000.219299,700.585938 1000.219299,738.000122  z"/>
<path fill="#060606" opacity="1.000000" stroke="none" d=" M588.513428,516.458496   C582.638428,495.487671 582.044373,474.689636 587.200500,453.986481   C595.935181,418.914520 620.339905,400.194611 656.491455,400.011536   C676.287170,399.911316 693.904297,405.236603 707.797974,420.090454   C717.915344,430.906982 723.181030,444.155426 725.731995,458.403351   C729.444702,479.140472 728.890930,499.777374 722.059265,519.954712   C712.908264,546.982117 691.387573,563.217896 662.927673,564.992920   C646.466125,566.019531 630.780090,563.974976 616.496521,555.086853   C602.051147,546.098145 593.553711,532.777893 588.513428,516.458496  M714.942444,476.578796   C713.948242,469.032410 713.660706,461.308380 711.817688,453.975342   C707.544006,436.971619 698.807617,423.005859 681.952209,415.707153   C669.809814,410.449219 657.085266,409.976501 644.217712,412.078125   C625.765930,415.091797 612.279724,425.107635 604.680176,442.124390   C594.043030,465.942780 594.183960,490.547180 601.408875,515.211670   C605.695374,529.845154 614.360168,541.323059 628.139465,548.498169   C639.513123,554.420593 651.836853,555.052795 664.165283,553.995544   C680.802856,552.568726 694.393799,545.239563 703.436646,530.752808   C713.624634,514.431335 715.624939,496.267365 714.942444,476.578796  z"/>
<path fill="#060606" opacity="1.000000" stroke="none" d=" M896.670898,180.688538   C916.309143,173.947372 935.680908,173.925552 954.574585,181.299438   C973.899902,188.841797 985.519043,203.987503 991.142944,223.476669   C998.129272,247.687012 998.288635,272.105499 990.094299,296.132874   C979.164246,328.182098 953.256897,342.059204 921.938538,341.332947   C902.020935,340.871094 884.316040,334.917419 870.937195,319.323944   C860.659424,307.344849 855.518799,293.031342 853.422913,277.635315   C850.648743,257.256683 851.460449,237.092972 859.363281,217.777023   C866.484558,200.371307 878.326111,187.481384 896.670898,180.688538  M922.770264,186.950455   C921.279480,187.107941 919.791626,187.303772 918.297485,187.417191   C894.105103,189.254059 878.240173,202.054245 870.121155,224.563644   C863.939941,241.700684 863.576233,259.438019 866.237976,277.257904   C868.417236,291.847504 873.391785,305.295319 884.253052,315.860901   C896.598511,327.870361 911.865906,330.747375 928.434631,330.234558   C952.205627,329.498871 970.693237,315.824371 978.156555,293.283325   C983.442261,277.319000 984.216187,260.947845 982.736145,244.482849   C981.676697,232.696533 978.619324,221.274612 972.215271,211.018616   C960.973816,193.015823 943.879578,186.869629 922.770264,186.950455  z"/>
<path fill="#070707" opacity="1.000000" stroke="none" d=" M422.253357,491.972229   C421.173523,476.916779 422.434357,462.594879 427.791748,448.879242   C438.470978,421.538940 458.720886,405.735565 487.443176,401.234436   C509.207397,397.823730 530.460510,400.479034 551.245544,409.680023   C550.457825,411.588562 549.755737,413.374969 548.985352,415.131470   C548.263672,416.776917 547.469666,418.390656 546.580444,420.289825   C540.755066,418.299530 535.233093,416.101562 529.538635,414.526978   C513.853699,410.189972 497.924774,409.249084 482.150116,413.566284   C460.908325,419.379791 446.298950,433.095428 439.252899,453.826935   C432.139404,474.756958 432.584259,496.065582 440.078339,516.931702   C447.233704,536.854797 462.148499,548.298279 482.401886,552.356079   C500.917633,556.065674 519.463135,555.093323 537.635437,549.365234   C539.984192,548.624817 541.302063,547.899048 541.282288,545.081299   C541.162048,527.928040 541.222290,510.773529 541.222290,493.128265   C525.453186,493.128265 509.876099,493.128265 493.875793,493.128265   C493.875793,489.245270 493.875793,485.844391 493.875793,482.071075   C513.314270,482.071075 532.896545,482.071075 552.965637,482.071075   C553.056091,483.330505 553.246521,484.756378 553.247742,486.182465   C553.266724,507.844849 553.170532,529.507935 553.349365,551.168884   C553.379333,554.800232 552.236145,556.297852 548.797607,557.434814   C523.322693,565.858032 497.567810,568.526184 471.421082,561.183105   C447.575531,554.486206 433.009155,538.232544 426.202209,514.913452   C424.083740,507.656128 423.527466,499.942719 422.253357,491.972229  z"/>
<path fill="#060606" opacity="1.000000" stroke="none" d=" M818.292297,499.677490   C816.496277,494.813751 813.443298,493.465698 808.577454,493.661560   C797.811523,494.094788 787.016113,493.796326 775.851685,493.796326   C775.851685,516.923401 775.851685,539.662903 775.851685,562.705688   C771.727356,562.705688 767.974670,562.705688 763.870850,562.705688   C763.870850,509.557373 763.870850,456.355011 763.876831,403.148560   C764.129700,402.936768 764.376343,402.547577 764.623535,402.547272   C786.867432,402.520172 809.225342,400.438202 831.202087,405.677032   C848.617981,409.828613 858.157471,420.305756 860.234009,438.108826   C862.065186,453.807587 859.817078,468.691437 846.787720,479.395386   C841.121826,484.050110 834.133362,487.095032 827.130310,491.234772   C841.120178,514.473267 855.463684,538.299255 870.328857,562.991821   C865.451843,562.991821 861.249512,563.187134 857.088684,562.857849   C856.016479,562.773010 854.805420,561.199341 854.113281,560.038330   C842.197327,540.049622 830.352661,520.018372 818.292297,499.677490  M843.040100,426.595703   C839.565918,421.573639 834.572876,418.813446 828.922607,416.927460   C811.604614,411.146881 793.786255,413.922089 776.087219,413.184418   C776.087219,436.621582 776.087219,459.496674 776.087219,482.368500   C789.181458,482.368500 802.001404,482.958191 814.725830,482.111420   C820.785583,481.708160 827.213013,479.531219 832.520569,476.492523   C848.370178,467.418121 853.139954,444.555817 843.040100,426.595703  z"/>
<path fill="#0B0B0B" opacity="1.000000" stroke="none" d=" M1175.310059,454.999298   C1175.310059,437.360748 1175.310059,420.222015 1175.310059,402.247681   C1178.599487,402.247681 1181.574707,401.935974 1184.425415,402.395660   C1185.625000,402.589111 1186.656982,404.339417 1187.566528,405.533325   C1187.888306,405.955597 1187.620605,406.827545 1187.620605,407.494202   C1187.620728,457.660431 1187.620728,507.826691 1187.620728,557.992920   C1187.620728,559.465088 1187.620728,560.937256 1187.620728,562.713745   C1183.470825,562.713745 1179.714844,562.713745 1175.404053,562.713745   C1175.404053,536.724792 1175.404053,510.648956 1175.404053,484.375977   C1144.404297,484.375977 1113.954956,484.375977 1082.992310,484.375977   C1082.992310,510.328583 1082.992310,536.381287 1082.992310,562.725830   C1078.734375,562.725830 1074.976196,562.725830 1070.875244,562.725830   C1070.875244,509.530762 1070.875244,456.299988 1070.875244,402.656250   C1074.656372,402.656250 1078.367065,402.656250 1082.554932,402.656250   C1082.554932,425.969116 1082.554932,449.206329 1082.554932,472.756439   C1113.582520,472.756439 1144.146606,472.756439 1175.310059,472.756439   C1175.310059,467.025574 1175.310059,461.262329 1175.310059,454.999298  z"/>
<path fill="#060606" opacity="1.000000" stroke="none" d=" M262.183777,479.689240   C272.801025,507.474915 283.308014,534.885620 293.970032,562.700684   C289.534821,562.700684 285.481476,562.700684 281.094238,562.700684   C274.476379,545.562500 267.668884,528.282166 261.202271,510.875183   C259.993469,507.621307 258.538086,506.699890 255.182800,506.729767   C235.859161,506.901886 216.531830,506.931976 197.209290,506.706909   C193.655060,506.665558 192.355011,507.993713 191.198120,511.016144   C184.556625,528.367188 177.720749,545.643799 170.976761,562.879272   C166.789536,562.879272 162.976410,562.879272 158.433044,562.879272   C179.498474,509.096710 200.422195,455.675995 221.389908,402.142883   C225.095215,402.142883 228.734177,402.142883 232.663376,402.142883   C242.467484,427.868591 252.270508,453.591461 262.183777,479.689240  M210.544632,461.017456   C206.161209,472.394440 201.777786,483.771423 197.231964,495.569885   C216.975906,495.569885 235.871445,495.569885 255.486954,495.569885   C245.866974,469.323547 236.384140,443.451355 226.853271,417.448151   C221.405914,432.015717 216.118866,446.154572 210.544632,461.017456  z"/>
<path fill="#060606" opacity="1.000000" stroke="none" d=" M1239.203613,223.000092   C1239.203613,231.804123 1239.203613,240.108154 1239.203613,248.795227   C1263.053589,248.795227 1286.642578,248.795227 1310.651123,248.795227   C1310.651123,252.558853 1310.651123,255.952805 1310.651123,259.900574   C1287.230835,259.900574 1263.512939,259.900574 1239.500732,259.900574   C1239.500732,282.823792 1239.500732,305.210968 1239.500732,328.097717   C1264.725464,328.097717 1289.789673,328.097717 1315.106689,328.097717   C1315.106689,331.867859 1315.106689,335.143036 1315.106689,338.717346   C1285.968384,338.717346 1256.892822,338.717346 1227.464844,338.717346   C1227.464844,285.559601 1227.464844,232.322693 1227.464844,178.672363   C1256.460693,178.672363 1285.537476,178.672363 1314.990479,178.672363   C1314.990479,181.959595 1314.990479,185.354340 1314.990479,189.203033   C1289.888428,189.203033 1264.795288,189.203033 1239.203613,189.203033   C1239.203613,200.594223 1239.203613,211.547150 1239.203613,223.000092  z"/>
<path fill="#020202" opacity="1.000000" stroke="none" d=" M1122.043579,694.000000   C1122.043579,725.130737 1122.043579,755.761414 1122.043579,786.696289   C1112.878052,786.696289 1104.135376,786.696289 1095.056885,786.696289   C1095.056885,733.498230 1095.056885,680.274719 1095.056885,626.662231   C1103.797852,626.662231 1112.514160,626.662231 1122.043579,626.662231   C1122.043579,649.010742 1122.043579,671.255371 1122.043579,694.000000  z"/>
<path fill="#070707" opacity="1.000000" stroke="none" d=" M811.589539,283.656372   C806.039612,275.235596 797.620850,271.523468 789.150024,268.008118   C776.582947,262.792908 763.618713,258.432861 751.383057,252.545776   C734.473938,244.410080 728.254822,229.891159 730.312073,211.677277   C732.139526,195.497940 741.961670,185.485596 756.673706,180.306198   C779.330322,172.329926 801.423523,176.083435 823.669922,184.651215   C822.218262,188.347931 820.913940,191.669403 819.795715,194.517014   C810.335083,192.267700 801.430664,189.600113 792.332642,188.134964   C782.268433,186.514206 772.024170,186.524750 762.229309,190.121857   C751.937195,193.901611 744.291260,200.310745 742.719421,211.912918   C741.062256,224.144302 744.150085,234.763062 755.398682,241.066193   C763.167297,245.419296 771.686890,248.441208 779.901367,251.987381   C789.186951,255.995972 798.761780,259.424713 807.753357,264.003876   C822.187927,271.354950 828.112305,283.811829 827.340149,299.796997   C826.548889,316.177734 818.518799,327.718414 804.018616,334.820862   C792.860474,340.286316 780.779907,342.198212 768.576477,341.218353   C756.885376,340.279572 745.313171,337.889709 733.677612,336.214722   C729.059326,335.549896 727.010925,333.243225 727.869934,328.460754   C728.183167,326.716827 727.920349,324.869446 727.920349,322.135834   C730.896057,323.091980 733.172302,323.827606 735.451233,324.554993   C752.007141,329.839447 768.879761,331.835602 786.140381,329.163696   C789.239197,328.684021 792.331543,327.773987 795.257507,326.629822   C813.140198,319.636871 820.189941,301.338623 811.589539,283.656372  z"/>
<path fill="#070707" opacity="1.000000" stroke="none" d=" M1513.536133,421.446442   C1494.700928,434.731171 1487.404419,453.690094 1485.966919,475.298431   C1484.852173,492.055542 1486.578125,508.581055 1494.294189,523.901367   C1504.023682,543.219116 1520.225098,552.753235 1541.427856,554.062378   C1556.987061,555.023010 1572.270142,553.088318 1587.994995,547.591858   C1587.994995,551.106079 1588.201782,554.016479 1587.876831,556.866272   C1587.770874,557.795776 1586.421997,559.022034 1585.399658,559.344116   C1563.713623,566.175781 1541.837646,568.016968 1519.761230,561.265381   C1502.145874,555.877991 1489.349243,544.433655 1482.213135,527.806335   C1469.791626,498.863403 1468.643921,469.217590 1482.053223,440.292603   C1492.887451,416.922424 1512.255493,404.346527 1537.725220,400.966492   C1556.488892,398.476379 1574.384766,401.394714 1592.240112,409.027405   C1590.655640,412.603638 1589.211792,415.862305 1587.617188,419.461456   C1562.648193,409.467560 1537.977661,406.631622 1513.536133,421.446442  z"/>
<path fill="#060606" opacity="1.000000" stroke="none" d=" M1129.235840,326.428528   C1132.145508,325.528381 1134.677979,324.810059 1138.171021,323.819305   C1138.171021,327.089294 1138.374268,329.987640 1138.055908,332.827545   C1137.950928,333.762970 1136.645874,335.011261 1135.639404,335.332428   C1114.137329,342.193420 1092.395020,343.983582 1070.496216,337.452789   C1052.522827,332.092682 1039.424072,320.436310 1032.270386,303.398987   C1019.871765,273.870361 1018.866821,243.758286 1033.170166,214.558212   C1044.048706,192.349960 1062.981323,180.425842 1087.384033,177.030014   C1106.296143,174.398224 1124.367432,177.321106 1142.428589,184.995834   C1140.885864,188.512207 1139.455322,191.772858 1137.779907,195.591766   C1135.683838,194.766647 1133.748291,194.011551 1131.817627,193.243591   C1115.401611,186.713562 1098.441650,185.207382 1081.418091,189.590134   C1060.842896,194.887314 1047.230957,208.508606 1040.763062,228.507263   C1032.897095,252.828934 1033.706055,277.124084 1044.931641,300.357147   C1054.266602,319.676971 1070.769409,328.698700 1091.720581,330.079834   C1104.256226,330.906158 1116.643311,329.525452 1129.235840,326.428528  z"/>
<path fill="#060606" opacity="1.000000" stroke="none" d=" M1447.035645,178.804886   C1450.322510,178.626190 1453.681152,177.978516 1456.866699,178.464554   C1458.484863,178.711411 1460.269531,180.742416 1461.167358,182.405060   C1475.146118,208.288879 1488.990234,234.245331 1502.873291,260.180817   C1503.574097,261.490021 1504.346558,262.760956 1505.370361,264.545990   C1506.244141,263.231506 1506.984619,262.293396 1507.540161,261.256287   C1521.121704,235.899445 1534.869385,210.628372 1548.097778,185.088333   C1550.882446,179.711761 1553.955811,177.121979 1559.916504,178.229797   C1561.335205,178.493500 1562.820923,178.396515 1565.114380,178.505112   C1563.436401,181.765381 1562.087524,184.509232 1560.631958,187.195267   C1545.032593,215.982620 1529.379150,244.740799 1513.877197,273.580444   C1512.688110,275.792480 1512.007812,278.556396 1511.984741,281.071930   C1511.824341,298.565155 1511.900024,316.060516 1511.900024,333.555206   C1511.900024,335.186432 1511.900024,336.817688 1511.900024,338.728424   C1507.793091,338.728424 1504.061768,338.728424 1499.810181,338.728424   C1499.810181,334.707428 1499.810059,330.760681 1499.810059,326.813934   C1499.810059,320.815765 1499.815552,314.817566 1499.808838,308.819397   C1499.797729,298.822998 1501.596680,288.373810 1499.250977,278.957855   C1496.914062,269.576935 1490.477905,261.198975 1485.730103,252.440323   C1472.901001,228.772842 1460.014038,205.136749 1447.106934,180.881104   C1447.054443,179.784271 1447.045044,179.294571 1447.035645,178.804886  z"/>
<path fill="#0C0C0C" opacity="1.000000" stroke="none" d=" M1446.556641,178.905518   C1447.045044,179.294571 1447.054443,179.784271 1447.065186,180.518890   C1446.459961,181.555542 1445.460693,182.287231 1445.328491,183.151459   C1445.056152,184.933548 1445.246582,186.786362 1445.246582,189.036865   C1428.178223,189.036865 1411.267456,189.036865 1393.794067,189.036865   C1393.794067,239.166290 1393.794067,288.873047 1393.794067,338.800690   C1389.458618,338.800690 1385.684570,338.800690 1381.336060,338.800690   C1381.336060,289.047729 1381.336060,239.337982 1381.336060,189.374451   C1363.991211,189.374451 1347.212891,189.374451 1330.096436,189.374451   C1330.096436,185.732437 1330.096436,182.337936 1330.096436,178.238098   C1331.828003,178.238098 1333.578857,178.238098 1335.329590,178.238098   C1370.142212,178.238098 1404.954712,178.224762 1439.767334,178.270950   C1441.870972,178.273727 1443.974243,178.750122 1446.556641,178.905518  z"/>
<path fill="#060606" opacity="1.000000" stroke="none" d=" M997.877991,413.286163   C996.877625,414.972107 995.970154,416.653961 995.967346,418.337280   C995.890564,464.498108 995.905945,510.659119 995.905945,556.820068   C995.905945,558.641479 995.905884,560.462830 995.905884,562.646729   C991.865662,562.646729 987.978027,562.646729 983.637939,562.646729   C983.637939,513.073792 983.637939,463.478546 983.637939,413.428284   C966.282410,413.428284 949.362915,413.428284 932.188232,413.428284   C932.188232,409.574188 932.188232,406.176056 932.188232,402.518005   C970.482727,402.518005 1008.589905,402.518005 1047.112793,402.518005   C1047.112793,405.899078 1047.112793,409.289368 1047.112793,413.282745   C1030.953491,413.282745 1014.672974,413.282745 997.877991,413.286163  z"/>
<path fill="#060606" opacity="1.000000" stroke="none" d=" M315.525208,438.999695   C315.525208,426.699585 315.525208,414.899475 315.525208,402.681824   C319.625427,402.681824 323.330505,402.681824 327.587708,402.681824   C327.587708,452.280426 327.587708,501.809326 327.587708,551.890747   C353.177826,551.890747 378.235718,551.890747 403.588715,551.890747   C403.588715,555.694275 403.588715,558.966797 403.588715,562.626465   C374.613251,562.626465 345.395813,562.626465 315.525177,562.626465   C315.525177,521.667786 315.525177,480.583740 315.525208,438.999695  z"/>
<path fill="#050505" opacity="1.000000" stroke="none" d=" M908.880432,483.000061   C908.880432,509.777374 908.880432,536.054688 908.880432,562.670654   C904.824036,562.670654 900.954712,562.670654 896.914307,562.670654   C896.914307,509.361908 896.914307,456.164764 896.914307,402.615112   C900.859924,402.615112 904.576477,402.615112 908.880432,402.615112   C908.880432,429.376892 908.880432,455.938477 908.880432,483.000061  z"/>
<path fill="#030303" opacity="1.000000" stroke="none" d=" M1170.789673,336.821045   C1170.781494,283.874939 1170.781494,231.412430 1170.781494,178.609711   C1174.971313,178.609711 1178.704224,178.609711 1182.686157,178.609711   C1182.686157,232.068527 1182.686157,285.301514 1182.686157,339.734619   C1178.534668,338.886047 1174.666260,338.095337 1170.789673,336.821045  z"/>
<path fill="#030303" opacity="1.000000" stroke="none" d=" M1437.084351,437.000061   C1437.077271,478.801819 1437.070557,520.103577 1437.055542,561.405334   C1437.055420,561.723633 1436.940186,562.041931 1436.816650,562.681946   C1433.150146,562.681946 1429.417847,562.681946 1425.339844,562.681946   C1425.339844,509.517242 1425.339844,456.311157 1425.339844,402.687500   C1429.016235,402.687500 1432.732422,402.687500 1437.084351,402.687500   C1437.084351,413.978546 1437.084351,425.239288 1437.084351,437.000061  z"/>
</svg>