<svg xmlns="http://www.w3.org/2000/svg" xmlns:xlink="http://www.w3.org/1999/xlink" version="1.1" id="Layer_1" x="0px" y="0px" width="100%" viewBox="0 0 739 739" enable-background="new 0 0 739 739" xml:space="preserve">
<path fill="#3C3C3C" opacity="1.000000" stroke="none" d=" M346.910675,255.891724   C362.287628,257.213623 373.580475,267.315094 377.026825,282.547089   C377.759583,285.785736 378.109741,289.114624 378.913757,292.332550   C379.854553,296.097687 381.809235,298.505890 386.070099,296.185059   C387.338623,297.843994 386.564056,299.293884 385.833191,300.475067   C383.383606,304.433960 385.572723,304.703186 388.832031,304.757416   C401.063080,304.960938 401.084839,305.018402 399.841461,317.500977   C397.976379,336.225555 396.087738,354.947876 394.183624,373.668549   C393.529694,380.097656 391.510681,386.239807 390.962799,392.792542   C390.324646,400.425140 384.402679,404.857269 376.790253,406.224365   C370.398529,407.372253 363.978638,408.448822 357.526581,409.140808   C354.046539,409.514069 353.109711,410.812622 353.441071,414.219635   C355.036469,430.622589 356.416992,447.046448 357.872131,463.463043   C358.033905,465.288025 358.247375,467.111023 358.330841,468.939789   C358.619843,475.273590 355.895203,479.553680 351.072205,480.432404   C346.261749,481.308807 341.859131,477.777435 340.267426,471.527100   C337.596344,461.038300 335.072540,450.512146 332.430115,440.015930   C330.135681,430.901794 327.762817,421.807373 325.094910,411.420715   C320.573395,417.675903 316.809906,422.887756 313.040680,428.095398   C309.625031,432.814575 306.261597,437.573029 302.768463,442.234222   C298.765747,447.575439 293.548981,449.182739 289.026337,446.628479   C283.961884,443.768188 282.609894,438.310944 285.842529,431.819092   C293.037018,417.371216 300.448334,403.031403 307.747986,388.635712   C310.949646,382.321808 310.892273,382.257477 303.814484,382.236328   C296.546356,382.214630 296.268463,382.221832 296.075867,374.776093   C295.963196,370.420929 294.353333,368.177216 290.221039,366.910339   C285.622559,365.500519 281.088013,363.715302 276.769653,361.596161   C269.554779,358.055634 269.111450,350.389984 275.699524,345.648865   C279.884399,342.637207 284.130829,339.699982 288.473358,336.922760   C291.014648,335.297485 291.981110,333.460114 291.546082,330.320007   C290.610107,323.564056 290.302917,316.722137 289.412048,309.958374   C288.867126,305.820953 290.524780,304.460938 294.371155,304.694580   C296.528351,304.825592 298.701294,304.681030 300.866974,304.691223   C307.014557,304.720093 306.997253,304.729401 305.926056,298.810272   C305.748260,297.827911 304.976257,296.012421 307.107330,296.600037   C312.790741,298.167206 313.284210,293.964203 313.836548,290.451111   C314.799500,284.326355 315.915131,278.366913 319.062073,272.863342   C325.169403,262.182526 333.992920,256.121582 346.910675,255.891724  z"/>
<path fill="#575757" opacity="1.000000" stroke="none" d=" M214.171265,287.648132   C214.353729,288.981476 214.462143,289.978516 214.632080,291.346222   C215.022766,293.027405 214.938660,294.383789 215.182770,296.040771   C215.384827,297.338531 215.541061,298.304291 215.745209,299.635864   C215.954010,300.792084 215.982483,301.598602 216.141266,302.692291   C216.288574,303.986938 216.378769,304.985535 216.541626,306.353668   C216.814133,307.584564 217.020676,308.444824 217.064636,309.666138   C220.557175,336.363953 224.018829,362.731781 227.539520,389.387482   C228.119690,391.233368 228.755478,392.766663 228.708832,393.600708   C228.509415,391.004547 230.407700,387.863983 230.294037,384.059235   C230.525269,382.412994 230.682404,381.101868 230.863190,379.393829   C231.096176,377.543030 230.925873,376.068909 231.178711,374.305847   C231.467773,371.926514 231.697830,369.855438 231.956375,367.392090   C232.014450,366.197296 232.005539,365.393066 232.133698,364.294678   C234.451614,339.123016 236.803589,314.256195 238.922760,289.369537   C239.242371,285.615967 240.271255,284.063171 244.276535,284.392334   C248.910309,284.773102 253.610291,284.691803 258.259277,284.424286   C261.378601,284.244843 261.941223,285.523560 261.621094,288.205353   C258.582123,313.665497 255.543625,339.125916 252.600983,364.597321   C249.600876,390.566254 246.630859,416.539368 243.856506,442.532928   C243.457932,446.267181 242.429810,447.733490 238.460815,447.465515   C233.156464,447.107300 227.801270,447.313446 222.476883,447.514648   C219.524155,447.626221 218.180237,447.030762 217.767670,443.599518   C215.581253,425.415314 213.039795,407.273773 210.514709,388.690887   C210.336487,387.692261 210.104767,387.152740 210.069153,386.285950   C209.861252,384.244873 209.649292,382.492126 209.390167,380.367126   C209.210754,379.563049 209.122177,379.122131 209.070618,378.335571   C208.961227,376.984680 208.852219,375.971771 208.691956,374.580139   C207.880112,372.799133 208.034760,371.264099 207.988373,369.378937   C207.889160,368.305298 207.797287,367.609924 207.638977,366.570129   C207.054337,365.109314 206.985825,363.920349 207.004715,362.358521   C206.898972,360.992737 206.795059,359.985504 206.628174,358.603821   C205.897705,356.799805 206.029556,355.268341 205.988342,353.379333   C205.750381,351.531952 205.519623,350.063232 205.230453,348.227722   C204.593872,347.519989 204.461197,346.903595 204.185165,346.360809   C204.074051,346.142242 204.480713,345.536407 203.836609,345.722717   C203.676453,345.769012 203.600510,346.257019 203.153320,346.699463   C198.518082,378.553802 194.076141,410.207703 189.845139,441.889740   C189.285767,446.078491 188.094238,447.983429 183.443283,447.511230   C178.499374,447.009308 173.453629,447.246246 168.469589,447.499573   C165.296860,447.660828 164.162125,446.597656 163.782089,443.405426   C160.752380,417.956360 157.520798,392.531403 154.393372,367.093872   C151.204575,341.157013 148.134857,315.205170 144.822235,289.284271   C144.347458,285.569061 144.926773,284.077698 148.979385,284.393005   C153.284134,284.727936 157.650864,284.721893 161.958893,284.417358   C165.541077,284.164185 166.838654,285.221161 167.173248,288.970184   C168.519669,304.055511 170.244659,319.107025 171.877716,334.585449   C172.011551,336.109039 171.953247,337.225311 172.149780,338.660095   C172.402664,340.739655 172.594116,342.491302 172.827942,344.621674   C172.972427,345.797394 172.982132,346.603241 173.164154,347.692932   C173.274506,348.992523 173.320633,349.997894 173.434387,351.374695   C174.209579,353.513611 173.889404,355.387299 174.118942,357.600464   C174.340149,359.423523 174.509308,360.855652 174.722137,362.645691   C175.102753,364.443970 174.910843,365.919891 175.101746,367.683228   C176.013748,376.054504 176.883392,384.115509 177.777252,392.597229   C178.069702,393.705872 178.212463,394.446106 178.653671,395.061920   C179.122986,394.605225 179.030777,393.901245 179.522202,393.093170   C179.889359,390.567841 180.122055,388.344421 180.380646,385.703979   C181.606903,382.820953 180.474106,380.053711 181.589661,377.204895   C181.822220,376.142792 181.870300,375.428772 181.933350,374.357056   C181.981201,373.552765 182.021729,373.106812 182.116882,372.329010   C182.379807,370.569519 182.595718,369.142548 182.843689,367.356659   C182.995178,366.123474 182.998215,365.235962 183.225433,364.041138   C183.455505,362.725586 183.635971,361.737305 183.854797,360.373596   C184.000153,359.199127 184.001541,358.390015 184.179413,357.295441   C184.778198,352.940948 185.319046,348.883148 185.902283,344.412354   C185.978256,343.553162 186.017365,343.107483 186.103302,342.329315   C186.369293,340.570129 186.593323,339.143890 186.855896,337.357941   C186.997528,336.121124 186.998398,335.233337 187.215424,334.035156   C187.449890,332.401459 187.638336,331.095886 187.866577,329.394470   C187.998352,328.121918 187.999390,327.236755 188.190857,326.037323   C188.781662,321.752441 189.332321,317.795776 189.908752,313.419189   C189.987122,312.420746 190.082153,311.850006 190.279846,311.004456   C190.424286,309.722626 190.536743,308.728577 190.678085,307.359283   C191.157654,305.511017 190.855698,303.949493 191.341675,302.102722   C191.559738,301.053955 191.674286,300.370911 191.813507,299.342133   C191.990067,298.126312 192.000946,297.242096 192.126709,296.037445   C194.064194,284.602814 194.064194,284.608093 205.431732,284.594666   C207.578049,284.592133 209.724319,284.529297 212.256958,284.504089   C214.182358,284.898621 213.826828,286.267822 214.171265,287.648132  z"/>
<path fill="#575757" opacity="1.000000" stroke="none" d=" M529.553711,359.999817   C530.004333,343.045959 528.340027,326.518341 531.838440,310.176117   C537.031982,285.915009 562.112244,274.561859 583.838257,286.817535   C590.588135,290.625122 594.644104,296.592133 596.974182,303.787079   C601.442688,317.585358 599.705200,331.853455 599.973206,345.966553   C600.005005,347.641205 599.094604,348.336609 597.484863,348.337646   C591.319336,348.341583 585.153503,348.332275 578.988403,348.395172   C575.955811,348.426117 576.107605,346.401184 576.078613,344.308624   C575.958679,335.648407 575.859009,326.986481 575.579041,318.330780   C575.499084,315.857269 574.965393,313.373291 574.412964,310.945740   C573.428467,306.619537 570.347229,304.446747 566.160950,304.230530   C561.762756,304.003418 558.413757,306.029846 556.861023,310.336121   C555.084473,315.263367 554.729126,320.426208 554.734924,325.608063   C554.765869,353.436310 554.825073,381.264557 554.884644,409.092804   C554.893188,413.111267 555.358765,417.074493 556.545715,420.929626   C557.875488,425.248474 560.742798,427.728790 565.324890,427.644897   C569.813293,427.562683 572.778809,425.228394 574.139221,420.879181   C575.805237,415.552948 575.928223,410.044739 576.031006,404.556274   C576.158936,397.726624 576.227600,390.886566 575.984131,384.063080   C575.856140,380.477844 577.161316,379.428558 580.603271,379.584137   C586.091553,379.832184 591.600159,379.749359 597.096680,379.636475   C599.356384,379.590088 600.521851,380.155701 600.461609,382.655701   C600.149170,395.626526 601.393738,408.669067 598.705505,421.528198   C594.847229,439.984314 584.806213,448.732300 566.872925,449.328583   C548.936096,449.924957 537.065674,441.005798 532.148193,423.278320   C529.895508,415.157562 529.627380,406.829681 529.574890,398.494385   C529.495178,385.829987 529.553650,373.164703 529.553711,359.999817  z"/>
<path fill="#575757" opacity="1.000000" stroke="none" d=" M486.013702,320.962280   C486.052002,323.106262 486.089050,324.771973 486.117432,326.437805   C486.302307,337.285065 486.301697,337.285065 475.195740,337.280151   C463.334412,337.274902 463.325775,337.274902 463.337158,325.343658   C463.341797,320.499512 463.056366,315.677277 461.997894,310.944092   C461.076721,306.824646 458.810791,304.108612 454.238037,303.764557   C449.526917,303.410095 445.815857,304.993561 444.318939,309.552124   C441.042694,319.529144 441.979675,329.001556 449.158295,337.162170   C456.631500,345.657745 464.422455,353.875122 471.846466,362.412445   C489.611176,382.841217 492.317444,406.208984 484.303925,431.226044   C480.339081,443.603729 469.213013,449.713715 453.549164,449.290314   C434.742035,448.781921 425.153168,440.682312 421.425262,422.191254   C419.267456,411.488129 419.549286,400.649994 419.531372,389.822998   C419.527832,387.683746 420.361969,386.916046 422.523102,386.961639   C428.185730,387.081146 433.857269,387.149200 439.515503,386.954529   C442.598541,386.848450 443.049835,388.309875 443.048157,390.892456   C443.042297,399.879608 442.419647,408.908325 444.109406,417.817810   C444.938843,422.191010 446.353912,426.303253 451.472717,427.469116   C458.240692,429.010620 462.623199,426.056854 463.774994,418.757050   C466.224213,403.234650 462.902283,389.371674 451.808411,377.688629   C444.822021,370.331177 437.500336,363.288513 431.137299,355.333801   C418.061554,338.987305 416.816986,320.652252 422.275421,301.429932   C425.172363,291.228058 432.700409,285.498749 443.044434,283.452423   C448.148773,282.442627 453.310394,282.167664 458.468964,282.671997   C473.895844,284.180084 482.042480,292.067108 484.663879,308.071442   C485.335602,312.172394 485.572052,316.344604 486.013702,320.962280  z"/>
<path fill="#F6E074" opacity="1.000000" stroke="none" d=" M587.175903,174.317261   C586.492004,173.758499 586.045044,173.453598 585.358154,173.022858   C580.224976,167.135223 573.960510,162.686935 569.185791,156.338898   C567.192200,154.446075 565.471680,152.764297 563.433472,150.990067   C545.326721,135.511749 525.788513,122.667007 505.347260,111.134407   C504.472870,110.641106 503.540619,110.289108 502.226776,109.929016   C500.784332,109.341042 499.599701,109.057304 498.348328,108.119110   C497.962006,107.552017 497.738007,107.333824 497.232269,107.085938   C495.481262,105.624535 493.441589,105.578644 491.318848,104.826523   C490.392273,104.433372 489.925598,103.962875 489.228149,103.251495   C488.605255,102.952782 488.224274,102.881210 487.554443,102.776161   C471.600861,95.682838 455.191010,90.839111 438.553711,86.809296   C420.101562,82.339890 401.329224,80.116653 382.342377,79.320312   C361.318420,78.438522 340.416260,79.590446 319.824493,83.612213   C301.121674,87.265068 282.588470,91.740440 264.943970,99.444099   C251.068741,105.502075 237.477646,112.026260 224.406555,119.640732   C219.675049,122.397049 215.038239,125.315079 210.151947,128.603149   C209.817215,128.842377 209.410034,128.901520 209.213104,128.961090   C183.637909,146.811676 161.947159,168.476151 142.151474,192.643066   C141.879395,192.869080 141.996689,192.980804 141.931763,192.932709   C135.573807,202.253113 128.763718,211.315689 123.143791,221.081894   C118.603500,228.971893 113.794846,236.791306 110.377792,245.297241   C109.040215,248.626831 106.791992,250.359940 103.113625,250.157211   C100.107315,249.991516 98.820602,248.665756 99.729149,245.627151   C100.638870,242.584579 101.949608,239.667526 103.394279,236.892960   C111.536980,221.254440 120.316719,206.022964 130.732040,191.712753   C142.423737,175.648865 155.792084,161.194839 170.265869,147.672943   C182.943024,135.829514 196.545212,125.196106 211.224609,115.946335   C212.636230,115.056854 214.010315,114.125015 215.502960,112.714645   C216.014832,112.339493 216.232758,112.205261 216.800690,111.908264   C228.471771,105.454124 239.871994,99.306435 251.810883,94.253769   C268.781097,87.071785 285.899261,80.391632 304.135986,76.903122   C311.278717,75.536804 318.413055,74.004242 325.512177,72.399483   C328.397736,71.747200 331.567902,73.147530 334.473389,70.786301   C335.517334,70.186707 336.284882,70.106247 337.445801,70.380280   C340.098175,71.347870 342.321381,70.641045 344.932220,70.127502   C346.852631,69.694778 348.422974,69.673126 350.385071,69.651764   C352.579987,69.882767 354.381073,70.137169 356.591248,69.891472   C357.709625,69.850372 358.442352,69.857086 359.538452,69.812836   C362.447815,68.035301 365.343658,68.478775 368.142975,68.507523   C373.970703,68.567368 379.800293,68.370865 386.060486,68.680710   C387.846130,68.882851 389.119232,69.621231 390.932312,69.225800   C394.155701,69.464310 397.002869,69.565979 400.165710,70.195358   C401.447174,70.822365 402.432800,71.028244 403.856445,70.954575   C405.537140,70.635597 406.814972,70.741768 408.426208,71.296135   C410.001526,72.063301 411.314331,72.005936 413.021790,71.939262   C421.795319,71.787239 429.806091,74.269096 437.790558,76.099258   C449.548065,78.794258 461.339813,81.636383 473.091736,85.910065   C474.458801,87.162766 475.451324,88.292198 477.526672,88.016876   C479.081970,88.015625 480.195557,88.329582 481.531433,89.075348   C482.544830,89.715164 483.114960,90.410637 484.271729,90.790977   C485.633514,91.198631 486.645050,91.599098 487.812378,92.442062   C489.832214,93.054497 491.217987,94.325294 493.335663,94.715424   C496.025146,95.120018 498.013916,96.484451 500.582581,97.270370   C504.358673,100.146202 508.172180,102.259834 512.546570,104.042336   C513.117493,104.137238 513.342224,104.194824 513.877197,104.408943   C517.668213,107.520103 521.860779,109.334969 526.002136,111.881638   C526.526550,112.132446 526.731506,112.244873 527.218018,112.568542   C530.751648,116.164536 535.098328,117.998093 538.995850,120.340736   C545.951050,124.521141 551.739319,130.239563 558.980469,134.573593   C565.281738,141.011414 572.308899,146.087601 578.546082,152.086456   C588.742554,161.893478 598.083557,172.421280 607.039246,183.329437   C616.029297,194.279297 623.575562,206.255142 630.771362,218.377396   C635.572510,226.465469 640.403442,234.669647 643.729065,243.570511   C644.510803,245.662720 646.127319,248.250916 643.050781,249.620163   C640.362854,250.816437 637.457825,250.570801 635.370422,247.947037   C634.225952,246.508591 633.368713,244.857040 632.638184,243.198471   C629.959412,237.116486 626.195496,231.602997 623.267822,225.252579   C623.028564,224.972824 623.000000,225.000000 623.014404,224.986237   C620.202576,219.820389 616.403259,215.211914 614.179932,209.333557   C613.815552,208.762054 613.621765,208.498856 613.127808,208.179840   C611.609131,206.580933 610.962219,204.631729 609.245239,203.045059   C608.849243,202.654953 608.695923,202.492905 608.331116,202.070526   C606.397705,199.471405 604.624451,197.164841 603.283325,194.194092   C603.072144,193.934296 603.002441,194.000000 603.035156,193.965363   C597.709473,187.590775 592.671448,180.991730 587.175903,174.317261  z"/>
<path fill="#F6E074" opacity="1.000000" stroke="none" d=" M143.710968,545.828247   C144.246780,546.533508 144.575699,546.975769 144.973541,547.694336   C148.956924,551.390503 151.591812,555.985291 155.667099,559.696716   C156.130249,560.488037 156.452042,560.969910 156.923035,561.700928   C157.986420,563.061707 158.959366,564.104126 160.595459,564.842529   C161.461823,565.292297 161.989670,565.672668 162.620026,566.444092   C165.316132,571.612488 170.070114,574.472656 173.677933,578.836792   C174.183411,579.254578 174.431061,579.451660 174.758377,579.909973   C179.847260,582.995117 183.383743,587.547363 187.753723,591.134399   C194.564713,596.725037 201.614792,601.979370 209.089691,607.265747   C218.366333,612.985229 226.844894,619.351807 236.859695,623.835754   C237.411316,624.059326 237.627655,624.159912 238.152191,624.442627   C243.112946,627.927246 248.731705,629.385681 253.761017,632.719482   C255.062424,633.343323 256.087769,633.743774 257.440735,634.202576   C275.399170,641.554138 293.390503,647.838196 312.128632,651.499817   C323.641266,653.749512 335.215637,655.979065 346.988892,656.620850   C348.819519,656.720703 350.639618,656.779480 352.759644,657.568848   C353.849243,657.802551 354.571777,657.847351 355.655884,657.864380   C356.804688,657.978455 357.596191,658.011597 358.687042,657.884583   C361.361572,657.871521 363.741241,657.903442 366.566223,657.908081   C373.161011,657.931091 379.316742,658.399475 385.819214,657.399780   C386.591217,657.199341 386.997742,657.205933 387.708923,657.224365   C396.931885,656.327759 405.924469,656.215210 414.789825,654.740540   C443.315979,649.995422 470.658783,641.571167 496.865570,629.233337   C514.433838,620.962585 530.765930,610.667419 546.205200,599.137634   C562.053101,587.302734 576.338379,573.549438 589.469299,558.662842   C593.200500,554.432800 597.289795,550.531311 600.071777,545.112732   C605.428467,540.488403 608.551331,534.617920 612.476807,528.911133   C618.867249,519.257996 624.635437,509.656189 629.801270,499.301147   C630.109619,498.625702 630.165894,498.207611 630.259094,497.475220   C630.390076,496.918732 630.484070,496.676483 630.810059,496.121094   C632.647278,493.689026 633.688660,491.230408 635.127747,489.013611   C636.957520,486.194977 640.855042,484.816589 643.212341,486.338776   C646.333923,488.354492 644.692627,490.953674 643.741577,493.376404   C643.379822,494.297974 642.955139,495.199066 642.468872,496.478394   C642.270325,497.334473 642.124207,497.809448 641.773682,498.594788   C639.099487,501.699219 637.659119,505.077454 636.161987,508.815399   C635.944946,509.349304 635.847534,509.558502 635.573120,510.064514   C632.089417,515.263123 629.189331,520.407837 626.178101,525.885864   C625.936157,526.411255 625.827637,526.616577 625.522095,527.110046   C619.270569,535.253662 614.326965,543.910889 607.876038,551.487610   C606.379822,553.244995 604.998901,555.117554 603.357422,557.204224   C603.054688,557.683167 602.927063,557.869324 602.593384,558.321411   C601.378723,559.748108 600.203796,560.750183 599.005920,562.180664   C598.410278,562.969238 598.028259,563.508179 597.483154,564.348022   C593.570862,568.413025 589.966431,572.297363 586.672485,576.913574   C586.255310,577.320190 586.072205,577.465332 585.589478,577.789978   C581.589966,581.346252 577.617188,584.430237 574.085999,588.493042   C573.721741,588.948547 573.564880,589.122009 573.137451,589.518799   C568.646179,591.863037 565.664490,595.395020 562.368164,599.062317   C562.034729,599.505310 561.895325,599.675598 561.520142,600.072021   C560.451904,601.010559 559.260498,600.875610 558.140015,601.689819   C557.880493,601.859192 557.810120,602.259766 557.835693,602.461548   C557.705811,603.368835 557.331116,603.945435 556.519409,604.615356   C552.040588,606.072388 548.869324,608.849731 545.581665,612.055420   C545.149841,612.427734 544.961365,612.559448 544.464844,612.849609   C539.090393,615.343079 534.871704,619.055603 529.754761,621.938110   C528.484131,622.960632 527.479858,623.777344 526.479797,625.066101   C525.895081,625.535645 525.514832,625.729736 524.809692,625.972168   C523.711731,626.280396 522.912964,626.488831 521.959656,627.137939   C521.525085,627.426331 521.348816,627.539612 520.898682,627.809448   C518.952698,628.830139 517.105774,629.416382 515.647034,631.212952   C515.117188,631.789307 514.776917,632.085327 514.116821,632.539307   C512.746399,633.230591 511.600739,633.545776 510.159363,634.111023   C502.268646,637.231140 495.083527,641.030457 487.587830,644.158081   C478.236176,648.059937 468.656372,651.272339 459.063110,654.477600   C457.024750,655.158630 454.924438,655.721436 452.771667,657.130432   C452.222778,657.461548 451.989563,657.573425 451.380493,657.790527   C450.487213,657.979248 449.966522,658.017639 449.050354,658.002686   C443.254028,658.003601 438.375763,660.428406 433.163635,661.379578   C425.995453,662.687683 418.772156,663.498779 411.229431,664.643555   C410.900024,664.859131 410.894257,664.939758 410.933167,664.950562   C410.576874,665.337158 410.111938,665.578674 409.180542,665.697754   C403.113678,665.541199 397.506317,666.100708 391.593994,667.367432   C390.745056,667.789795 390.227661,667.959412 389.280945,668.145874   C387.738983,668.305725 386.616882,668.231079 385.079315,667.989502   C381.299103,666.953308 377.862061,667.510559 374.020508,667.411377   C367.316132,667.451721 361.048889,667.640625 354.355988,667.246216   C351.245300,666.390930 348.541260,665.994141 345.367493,666.833252   C343.827454,667.114990 342.721069,667.085632 341.341705,666.266846   C340.265808,665.940125 339.532837,665.858337 338.433960,665.730225   C317.082855,662.539795 296.240112,658.775757 275.819275,651.419495   C274.909271,651.309326 274.398499,651.213135 273.528748,650.976746   C256.135834,644.285339 239.592087,636.687317 223.659134,627.736877   C209.594376,619.835938 196.322479,610.834290 184.096390,600.310181   C182.195953,598.674316 180.243118,597.172485 177.636688,595.961792   C177.122787,595.653259 176.928879,595.513977 176.486038,595.122559   C171.950134,589.893372 167.646515,584.933228 161.918365,580.949341   C161.227448,580.525391 160.876663,580.224548 160.352524,579.603882   C155.508926,573.664856 150.413116,568.422729 145.126740,562.891663   C144.479340,562.392456 144.140945,562.070984 143.609253,561.449707   C141.607315,557.367371 138.457962,554.613220 135.601318,551.209106   C135.176468,550.825256 135.016632,550.660828 134.661224,550.213989   C134.270630,549.522522 134.103897,549.102356 133.870804,548.352783   C133.092331,545.531250 131.016953,544.238037 128.930298,542.510864   C128.551636,542.097778 128.418884,541.915161 128.122589,541.435303   C126.207100,537.473206 124.050018,534.068481 121.168579,530.749756   C120.771111,530.364868 120.631859,530.193115 120.333847,529.734131   C119.649841,528.067444 119.177727,526.657532 117.771469,525.418762   C117.142899,524.651489 116.821030,524.071350 116.368347,523.174438   C114.352432,518.942810 112.474358,515.023376 109.531715,511.343384   C109.158150,510.942352 109.014702,510.779388 108.687057,510.353638   C108.026939,509.183105 107.610039,508.237854 106.655228,507.269836   C106.083412,506.521637 105.787079,505.967194 105.374924,505.112793   C104.797264,503.619415 104.461891,502.381317 103.969574,500.853638   C103.653061,499.677094 103.180908,498.946533 102.442574,497.957611   C102.146812,497.438690 102.041756,497.218842 101.814018,496.646667   C101.496162,495.138275 100.690521,494.216797 100.412613,493.112671   C99.844360,490.854980 97.891830,488.102966 100.797157,486.500427   C103.736290,484.879242 106.886642,485.563263 109.214043,488.293579   C111.053101,490.450928 111.808998,493.202271 113.271881,495.997986   C120.216835,509.748962 126.730202,523.317078 136.822296,535.139404   C137.228134,535.563049 137.374954,535.745056 137.699799,536.225220   C139.599503,539.633118 141.113510,542.871948 143.710968,545.828247  z"/>
<path fill="#F3F3F3" opacity="1.000000" stroke="none" d=" M321.375214,408.382751   C314.089172,418.534821 306.997528,428.383728 299.884430,438.217072   C299.107910,439.290497 298.305176,440.378754 297.343842,441.277527   C295.457245,443.041443 293.241913,443.605591 291.015137,442.004700   C288.895966,440.481110 288.128632,438.330505 289.297485,435.857025   C291.286163,431.648773 293.332336,427.465942 295.441681,423.316803   C303.429352,407.604523 311.457184,391.912659 319.454468,376.205231   C320.291351,374.561584 321.195068,373.007721 322.702728,371.860535   C326.443573,369.013977 329.275116,369.460846 331.650177,373.454803   C335.540527,379.996765 339.354828,386.583954 343.053925,392.900543   C342.353821,394.372955 341.425476,394.330902 340.733917,393.999207   C334.539490,391.027954 330.921051,393.924377 327.928833,399.162140   C326.127136,402.315979 323.706055,405.116028 321.375214,408.382751  z"/>
<path fill="#F3F3F3" opacity="1.000000" stroke="none" d=" M350.019287,428.857452   C351.120453,441.251434 352.191254,453.182281 353.253082,465.113953   C353.400513,466.770813 353.548065,468.429810 353.617004,470.091064   C353.722900,472.644470 352.936340,475.045258 350.264984,475.503021   C347.314636,476.008606 345.753296,473.884033 345.080139,471.193237   C339.871185,450.371185 334.610931,429.561523 329.518707,408.710907   C328.164917,403.167572 334.212616,397.457275 339.699890,398.670074   C349.342682,400.801300 347.389252,400.104004 348.249023,408.503723   C348.926575,415.123932 349.414093,421.763580 350.019287,428.857452  z"/>
<path fill="#EBEBEB" opacity="1.000000" stroke="none" d=" M331.173889,304.901611   C325.952271,305.702667 324.605865,303.415375 324.919464,299.015900   C325.252106,294.348511 325.897705,289.760010 326.911438,285.202209   C327.461731,282.728058 328.409363,281.609009 330.989929,283.241577   C341.147491,289.667755 351.363464,289.710449 361.486755,283.183624   C363.728546,281.738220 364.605591,282.376526 365.333130,284.708221   C367.097351,290.362427 367.357391,296.134857 367.232758,301.989197   C367.167908,305.036133 365.144226,304.891449 363.107635,304.893066   C352.621613,304.901398 342.135559,304.899536 331.173889,304.901611  z"/>
<path fill="#F0F0F0" opacity="1.000000" stroke="none" d=" M348.058655,334.666199   C352.673553,336.714111 354.993622,339.987152 354.382751,344.642883   C353.872894,348.528564 351.491974,351.301971 347.626465,352.494965   C343.680298,353.712799 340.365601,352.429352 337.806702,349.413086   C335.191650,346.330658 334.839478,342.673309 336.724518,339.184296   C339.053833,334.872925 342.912354,333.432709 348.058655,334.666199  z"/>
<path fill="#EBEBEB" opacity="1.000000" stroke="none" d=" M292.645874,354.301086   C293.279419,354.636719 293.658661,354.798309 293.759552,355.065186   C294.644135,357.404449 295.754456,360.356384 294.336823,362.158752   C292.599243,364.367889 290.194885,361.691559 288.175659,361.057953   C284.881256,360.024170 281.663330,358.643677 278.572205,357.092499   C275.185486,355.392944 275.044922,352.458771 277.632965,350.259888   C281.521515,346.956024 285.908722,344.233124 290.132172,341.333527   C291.185455,340.610382 292.700317,340.449249 292.742462,342.114105   C292.802887,344.502167 295.119995,347.330933 292.060364,349.235748   C290.946136,349.929413 288.838867,349.224731 288.775330,351.377869   C288.707672,353.670807 290.772461,353.640289 292.645874,354.301086  z"/>
<path fill="#575757" opacity="1.000000" stroke="none" d=" M360.056885,302.717316   C356.876495,301.469513 354.059082,300.612701 350.958740,301.438843   C349.389435,301.856995 347.768890,301.579529 347.412170,299.715942   C347.043335,297.788971 348.641174,297.308807 350.130646,296.825317   C354.049866,295.553131 357.832916,296.271240 361.182617,298.229218   C363.932495,299.836609 364.071808,301.839447 360.056885,302.717316  z"/>
<path fill="#575757" opacity="1.000000" stroke="none" d=" M342.095032,301.212158   C338.233307,301.480347 334.637268,300.810303 331.113281,302.114288   C330.212280,302.447723 329.136597,302.081604 328.607574,301.008698   C328.189545,300.160919 328.440125,299.421478 328.941223,298.703369   C330.932281,295.850067 340.002869,295.479584 342.248260,298.206573   C342.919769,299.022095 343.044434,300.009796 342.095032,301.212158  z"/>
</svg>